%TF.GenerationSoftware,KiCad,Pcbnew,9.0.1*%
%TF.CreationDate,2025-05-19T12:27:27-03:00*%
%TF.ProjectId,Project_2_Breadboard_Power_Suppy,50726f6a-6563-4745-9f32-5f4272656164,rev?*%
%TF.SameCoordinates,Original*%
%TF.FileFunction,Soldermask,Bot*%
%TF.FilePolarity,Negative*%
%FSLAX46Y46*%
G04 Gerber Fmt 4.6, Leading zero omitted, Abs format (unit mm)*
G04 Created by KiCad (PCBNEW 9.0.1) date 2025-05-19 12:27:27*
%MOMM*%
%LPD*%
G01*
G04 APERTURE LIST*
G04 Aperture macros list*
%AMRoundRect*
0 Rectangle with rounded corners*
0 $1 Rounding radius*
0 $2 $3 $4 $5 $6 $7 $8 $9 X,Y pos of 4 corners*
0 Add a 4 corners polygon primitive as box body*
4,1,4,$2,$3,$4,$5,$6,$7,$8,$9,$2,$3,0*
0 Add four circle primitives for the rounded corners*
1,1,$1+$1,$2,$3*
1,1,$1+$1,$4,$5*
1,1,$1+$1,$6,$7*
1,1,$1+$1,$8,$9*
0 Add four rect primitives between the rounded corners*
20,1,$1+$1,$2,$3,$4,$5,0*
20,1,$1+$1,$4,$5,$6,$7,0*
20,1,$1+$1,$6,$7,$8,$9,0*
20,1,$1+$1,$8,$9,$2,$3,0*%
G04 Aperture macros list end*
%ADD10RoundRect,0.875000X-0.875000X-0.875000X0.875000X-0.875000X0.875000X0.875000X-0.875000X0.875000X0*%
%ADD11RoundRect,0.750000X-0.750000X-1.000000X0.750000X-1.000000X0.750000X1.000000X-0.750000X1.000000X0*%
%ADD12R,3.500000X3.500000*%
%ADD13R,1.700000X1.700000*%
%ADD14C,1.700000*%
%ADD15C,1.400000*%
%ADD16O,1.400000X1.400000*%
%ADD17R,3.000000X3.000000*%
%ADD18C,3.000000*%
%ADD19R,1.800000X1.800000*%
%ADD20C,1.800000*%
%ADD21C,1.600000*%
%ADD22R,1.905000X2.000000*%
%ADD23O,1.905000X2.000000*%
%ADD24R,1.900000X1.900000*%
%ADD25C,1.900000*%
G04 APERTURE END LIST*
D10*
%TO.C,J1*%
X130290000Y-76700000D03*
D11*
X127290000Y-72000000D03*
D12*
X133290000Y-72000000D03*
%TD*%
D13*
%TO.C,J6*%
X150000000Y-47460000D03*
D14*
X150000000Y-50000000D03*
%TD*%
D15*
%TO.C,R1*%
X135220000Y-64000000D03*
D16*
X142840000Y-64000000D03*
%TD*%
D17*
%TO.C,J2*%
X136000000Y-93570000D03*
D18*
X141080000Y-93570000D03*
%TD*%
D13*
%TO.C,J4*%
X124000000Y-94000000D03*
D14*
X126540000Y-94000000D03*
X129080000Y-94000000D03*
%TD*%
D19*
%TO.C,D1*%
X140500000Y-74540000D03*
D20*
X140500000Y-72000000D03*
%TD*%
D21*
%TO.C,C1*%
X129000000Y-56000000D03*
X126500000Y-56000000D03*
%TD*%
D13*
%TO.C,J3*%
X150000000Y-93250000D03*
D14*
X150000000Y-95790000D03*
%TD*%
D15*
%TO.C,R3*%
X142485000Y-82000000D03*
D16*
X134865000Y-82000000D03*
%TD*%
D13*
%TO.C,J7*%
X124000000Y-50000000D03*
D14*
X126540000Y-50000000D03*
X129080000Y-50000000D03*
%TD*%
D21*
%TO.C,C3*%
X124000000Y-56000000D03*
X121500000Y-56000000D03*
%TD*%
%TO.C,C2*%
X124000000Y-88000000D03*
X121500000Y-88000000D03*
%TD*%
D22*
%TO.C,U2*%
X127080000Y-60000000D03*
D23*
X124540000Y-60000000D03*
X122000000Y-60000000D03*
%TD*%
D24*
%TO.C,S1*%
X140120000Y-59000000D03*
D25*
X137620000Y-59000000D03*
X135120000Y-59000000D03*
%TD*%
D15*
%TO.C,R2*%
X134865000Y-86000000D03*
D16*
X142485000Y-86000000D03*
%TD*%
D22*
%TO.C,U1*%
X122000000Y-84000000D03*
D23*
X124540000Y-84000000D03*
X127080000Y-84000000D03*
%TD*%
D17*
%TO.C,J5*%
X136000000Y-49600000D03*
D18*
X141080000Y-49600000D03*
%TD*%
M02*
