%TF.GenerationSoftware,KiCad,Pcbnew,9.0.1*%
%TF.CreationDate,2025-05-19T12:27:26-03:00*%
%TF.ProjectId,Project_2_Breadboard_Power_Suppy,50726f6a-6563-4745-9f32-5f4272656164,rev?*%
%TF.SameCoordinates,Original*%
%TF.FileFunction,Legend,Top*%
%TF.FilePolarity,Positive*%
%FSLAX46Y46*%
G04 Gerber Fmt 4.6, Leading zero omitted, Abs format (unit mm)*
G04 Created by KiCad (PCBNEW 9.0.1) date 2025-05-19 12:27:26*
%MOMM*%
%LPD*%
G01*
G04 APERTURE LIST*
%ADD10C,0.150000*%
%ADD11C,0.120000*%
%ADD12C,0.100000*%
G04 APERTURE END LIST*
D10*
X139427255Y-61469819D02*
X139617731Y-61469819D01*
X139617731Y-61469819D02*
X139712969Y-61517438D01*
X139712969Y-61517438D02*
X139808207Y-61612676D01*
X139808207Y-61612676D02*
X139855826Y-61803152D01*
X139855826Y-61803152D02*
X139855826Y-62136485D01*
X139855826Y-62136485D02*
X139808207Y-62326961D01*
X139808207Y-62326961D02*
X139712969Y-62422200D01*
X139712969Y-62422200D02*
X139617731Y-62469819D01*
X139617731Y-62469819D02*
X139427255Y-62469819D01*
X139427255Y-62469819D02*
X139332017Y-62422200D01*
X139332017Y-62422200D02*
X139236779Y-62326961D01*
X139236779Y-62326961D02*
X139189160Y-62136485D01*
X139189160Y-62136485D02*
X139189160Y-61803152D01*
X139189160Y-61803152D02*
X139236779Y-61612676D01*
X139236779Y-61612676D02*
X139332017Y-61517438D01*
X139332017Y-61517438D02*
X139427255Y-61469819D01*
X140284398Y-62469819D02*
X140284398Y-61469819D01*
X140284398Y-61469819D02*
X140855826Y-62469819D01*
X140855826Y-62469819D02*
X140855826Y-61469819D01*
X134227255Y-61569819D02*
X134417731Y-61569819D01*
X134417731Y-61569819D02*
X134512969Y-61617438D01*
X134512969Y-61617438D02*
X134608207Y-61712676D01*
X134608207Y-61712676D02*
X134655826Y-61903152D01*
X134655826Y-61903152D02*
X134655826Y-62236485D01*
X134655826Y-62236485D02*
X134608207Y-62426961D01*
X134608207Y-62426961D02*
X134512969Y-62522200D01*
X134512969Y-62522200D02*
X134417731Y-62569819D01*
X134417731Y-62569819D02*
X134227255Y-62569819D01*
X134227255Y-62569819D02*
X134132017Y-62522200D01*
X134132017Y-62522200D02*
X134036779Y-62426961D01*
X134036779Y-62426961D02*
X133989160Y-62236485D01*
X133989160Y-62236485D02*
X133989160Y-61903152D01*
X133989160Y-61903152D02*
X134036779Y-61712676D01*
X134036779Y-61712676D02*
X134132017Y-61617438D01*
X134132017Y-61617438D02*
X134227255Y-61569819D01*
X135417731Y-62046009D02*
X135084398Y-62046009D01*
X135084398Y-62569819D02*
X135084398Y-61569819D01*
X135084398Y-61569819D02*
X135560588Y-61569819D01*
X136274874Y-62046009D02*
X135941541Y-62046009D01*
X135941541Y-62569819D02*
X135941541Y-61569819D01*
X135941541Y-61569819D02*
X136417731Y-61569819D01*
X142636779Y-77088866D02*
X143398684Y-77088866D01*
X142636779Y-69388866D02*
X143398684Y-69388866D01*
X143017731Y-69769819D02*
X143017731Y-69007914D01*
X122341541Y-46969819D02*
X122960588Y-46969819D01*
X122960588Y-46969819D02*
X122627255Y-47350771D01*
X122627255Y-47350771D02*
X122770112Y-47350771D01*
X122770112Y-47350771D02*
X122865350Y-47398390D01*
X122865350Y-47398390D02*
X122912969Y-47446009D01*
X122912969Y-47446009D02*
X122960588Y-47541247D01*
X122960588Y-47541247D02*
X122960588Y-47779342D01*
X122960588Y-47779342D02*
X122912969Y-47874580D01*
X122912969Y-47874580D02*
X122865350Y-47922200D01*
X122865350Y-47922200D02*
X122770112Y-47969819D01*
X122770112Y-47969819D02*
X122484398Y-47969819D01*
X122484398Y-47969819D02*
X122389160Y-47922200D01*
X122389160Y-47922200D02*
X122341541Y-47874580D01*
X123389160Y-47874580D02*
X123436779Y-47922200D01*
X123436779Y-47922200D02*
X123389160Y-47969819D01*
X123389160Y-47969819D02*
X123341541Y-47922200D01*
X123341541Y-47922200D02*
X123389160Y-47874580D01*
X123389160Y-47874580D02*
X123389160Y-47969819D01*
X123770112Y-46969819D02*
X124389159Y-46969819D01*
X124389159Y-46969819D02*
X124055826Y-47350771D01*
X124055826Y-47350771D02*
X124198683Y-47350771D01*
X124198683Y-47350771D02*
X124293921Y-47398390D01*
X124293921Y-47398390D02*
X124341540Y-47446009D01*
X124341540Y-47446009D02*
X124389159Y-47541247D01*
X124389159Y-47541247D02*
X124389159Y-47779342D01*
X124389159Y-47779342D02*
X124341540Y-47874580D01*
X124341540Y-47874580D02*
X124293921Y-47922200D01*
X124293921Y-47922200D02*
X124198683Y-47969819D01*
X124198683Y-47969819D02*
X123912969Y-47969819D01*
X123912969Y-47969819D02*
X123817731Y-47922200D01*
X123817731Y-47922200D02*
X123770112Y-47874580D01*
X124674874Y-46969819D02*
X125008207Y-47969819D01*
X125008207Y-47969819D02*
X125341540Y-46969819D01*
X122741541Y-95969819D02*
X123360588Y-95969819D01*
X123360588Y-95969819D02*
X123027255Y-96350771D01*
X123027255Y-96350771D02*
X123170112Y-96350771D01*
X123170112Y-96350771D02*
X123265350Y-96398390D01*
X123265350Y-96398390D02*
X123312969Y-96446009D01*
X123312969Y-96446009D02*
X123360588Y-96541247D01*
X123360588Y-96541247D02*
X123360588Y-96779342D01*
X123360588Y-96779342D02*
X123312969Y-96874580D01*
X123312969Y-96874580D02*
X123265350Y-96922200D01*
X123265350Y-96922200D02*
X123170112Y-96969819D01*
X123170112Y-96969819D02*
X122884398Y-96969819D01*
X122884398Y-96969819D02*
X122789160Y-96922200D01*
X122789160Y-96922200D02*
X122741541Y-96874580D01*
X123789160Y-96874580D02*
X123836779Y-96922200D01*
X123836779Y-96922200D02*
X123789160Y-96969819D01*
X123789160Y-96969819D02*
X123741541Y-96922200D01*
X123741541Y-96922200D02*
X123789160Y-96874580D01*
X123789160Y-96874580D02*
X123789160Y-96969819D01*
X124170112Y-95969819D02*
X124789159Y-95969819D01*
X124789159Y-95969819D02*
X124455826Y-96350771D01*
X124455826Y-96350771D02*
X124598683Y-96350771D01*
X124598683Y-96350771D02*
X124693921Y-96398390D01*
X124693921Y-96398390D02*
X124741540Y-96446009D01*
X124741540Y-96446009D02*
X124789159Y-96541247D01*
X124789159Y-96541247D02*
X124789159Y-96779342D01*
X124789159Y-96779342D02*
X124741540Y-96874580D01*
X124741540Y-96874580D02*
X124693921Y-96922200D01*
X124693921Y-96922200D02*
X124598683Y-96969819D01*
X124598683Y-96969819D02*
X124312969Y-96969819D01*
X124312969Y-96969819D02*
X124217731Y-96922200D01*
X124217731Y-96922200D02*
X124170112Y-96874580D01*
X125074874Y-95969819D02*
X125408207Y-96969819D01*
X125408207Y-96969819D02*
X125741540Y-95969819D01*
X129212969Y-46869819D02*
X128736779Y-46869819D01*
X128736779Y-46869819D02*
X128689160Y-47346009D01*
X128689160Y-47346009D02*
X128736779Y-47298390D01*
X128736779Y-47298390D02*
X128832017Y-47250771D01*
X128832017Y-47250771D02*
X129070112Y-47250771D01*
X129070112Y-47250771D02*
X129165350Y-47298390D01*
X129165350Y-47298390D02*
X129212969Y-47346009D01*
X129212969Y-47346009D02*
X129260588Y-47441247D01*
X129260588Y-47441247D02*
X129260588Y-47679342D01*
X129260588Y-47679342D02*
X129212969Y-47774580D01*
X129212969Y-47774580D02*
X129165350Y-47822200D01*
X129165350Y-47822200D02*
X129070112Y-47869819D01*
X129070112Y-47869819D02*
X128832017Y-47869819D01*
X128832017Y-47869819D02*
X128736779Y-47822200D01*
X128736779Y-47822200D02*
X128689160Y-47774580D01*
X129546303Y-46869819D02*
X129879636Y-47869819D01*
X129879636Y-47869819D02*
X130212969Y-46869819D01*
X129012969Y-95869819D02*
X128536779Y-95869819D01*
X128536779Y-95869819D02*
X128489160Y-96346009D01*
X128489160Y-96346009D02*
X128536779Y-96298390D01*
X128536779Y-96298390D02*
X128632017Y-96250771D01*
X128632017Y-96250771D02*
X128870112Y-96250771D01*
X128870112Y-96250771D02*
X128965350Y-96298390D01*
X128965350Y-96298390D02*
X129012969Y-96346009D01*
X129012969Y-96346009D02*
X129060588Y-96441247D01*
X129060588Y-96441247D02*
X129060588Y-96679342D01*
X129060588Y-96679342D02*
X129012969Y-96774580D01*
X129012969Y-96774580D02*
X128965350Y-96822200D01*
X128965350Y-96822200D02*
X128870112Y-96869819D01*
X128870112Y-96869819D02*
X128632017Y-96869819D01*
X128632017Y-96869819D02*
X128536779Y-96822200D01*
X128536779Y-96822200D02*
X128489160Y-96774580D01*
X129346303Y-95869819D02*
X129679636Y-96869819D01*
X129679636Y-96869819D02*
X130012969Y-95869819D01*
X135560588Y-88117438D02*
X135465350Y-88069819D01*
X135465350Y-88069819D02*
X135322493Y-88069819D01*
X135322493Y-88069819D02*
X135179636Y-88117438D01*
X135179636Y-88117438D02*
X135084398Y-88212676D01*
X135084398Y-88212676D02*
X135036779Y-88307914D01*
X135036779Y-88307914D02*
X134989160Y-88498390D01*
X134989160Y-88498390D02*
X134989160Y-88641247D01*
X134989160Y-88641247D02*
X135036779Y-88831723D01*
X135036779Y-88831723D02*
X135084398Y-88926961D01*
X135084398Y-88926961D02*
X135179636Y-89022200D01*
X135179636Y-89022200D02*
X135322493Y-89069819D01*
X135322493Y-89069819D02*
X135417731Y-89069819D01*
X135417731Y-89069819D02*
X135560588Y-89022200D01*
X135560588Y-89022200D02*
X135608207Y-88974580D01*
X135608207Y-88974580D02*
X135608207Y-88641247D01*
X135608207Y-88641247D02*
X135417731Y-88641247D01*
X136036779Y-89069819D02*
X136036779Y-88069819D01*
X136036779Y-88069819D02*
X136608207Y-89069819D01*
X136608207Y-89069819D02*
X136608207Y-88069819D01*
X137084398Y-89069819D02*
X137084398Y-88069819D01*
X137084398Y-88069819D02*
X137322493Y-88069819D01*
X137322493Y-88069819D02*
X137465350Y-88117438D01*
X137465350Y-88117438D02*
X137560588Y-88212676D01*
X137560588Y-88212676D02*
X137608207Y-88307914D01*
X137608207Y-88307914D02*
X137655826Y-88498390D01*
X137655826Y-88498390D02*
X137655826Y-88641247D01*
X137655826Y-88641247D02*
X137608207Y-88831723D01*
X137608207Y-88831723D02*
X137560588Y-88926961D01*
X137560588Y-88926961D02*
X137465350Y-89022200D01*
X137465350Y-89022200D02*
X137322493Y-89069819D01*
X137322493Y-89069819D02*
X137084398Y-89069819D01*
X135260588Y-54117438D02*
X135165350Y-54069819D01*
X135165350Y-54069819D02*
X135022493Y-54069819D01*
X135022493Y-54069819D02*
X134879636Y-54117438D01*
X134879636Y-54117438D02*
X134784398Y-54212676D01*
X134784398Y-54212676D02*
X134736779Y-54307914D01*
X134736779Y-54307914D02*
X134689160Y-54498390D01*
X134689160Y-54498390D02*
X134689160Y-54641247D01*
X134689160Y-54641247D02*
X134736779Y-54831723D01*
X134736779Y-54831723D02*
X134784398Y-54926961D01*
X134784398Y-54926961D02*
X134879636Y-55022200D01*
X134879636Y-55022200D02*
X135022493Y-55069819D01*
X135022493Y-55069819D02*
X135117731Y-55069819D01*
X135117731Y-55069819D02*
X135260588Y-55022200D01*
X135260588Y-55022200D02*
X135308207Y-54974580D01*
X135308207Y-54974580D02*
X135308207Y-54641247D01*
X135308207Y-54641247D02*
X135117731Y-54641247D01*
X135736779Y-55069819D02*
X135736779Y-54069819D01*
X135736779Y-54069819D02*
X136308207Y-55069819D01*
X136308207Y-55069819D02*
X136308207Y-54069819D01*
X136784398Y-55069819D02*
X136784398Y-54069819D01*
X136784398Y-54069819D02*
X137022493Y-54069819D01*
X137022493Y-54069819D02*
X137165350Y-54117438D01*
X137165350Y-54117438D02*
X137260588Y-54212676D01*
X137260588Y-54212676D02*
X137308207Y-54307914D01*
X137308207Y-54307914D02*
X137355826Y-54498390D01*
X137355826Y-54498390D02*
X137355826Y-54641247D01*
X137355826Y-54641247D02*
X137308207Y-54831723D01*
X137308207Y-54831723D02*
X137260588Y-54926961D01*
X137260588Y-54926961D02*
X137165350Y-55022200D01*
X137165350Y-55022200D02*
X137022493Y-55069819D01*
X137022493Y-55069819D02*
X136784398Y-55069819D01*
X146617438Y-47739411D02*
X146569819Y-47834649D01*
X146569819Y-47834649D02*
X146569819Y-47977506D01*
X146569819Y-47977506D02*
X146617438Y-48120363D01*
X146617438Y-48120363D02*
X146712676Y-48215601D01*
X146712676Y-48215601D02*
X146807914Y-48263220D01*
X146807914Y-48263220D02*
X146998390Y-48310839D01*
X146998390Y-48310839D02*
X147141247Y-48310839D01*
X147141247Y-48310839D02*
X147331723Y-48263220D01*
X147331723Y-48263220D02*
X147426961Y-48215601D01*
X147426961Y-48215601D02*
X147522200Y-48120363D01*
X147522200Y-48120363D02*
X147569819Y-47977506D01*
X147569819Y-47977506D02*
X147569819Y-47882268D01*
X147569819Y-47882268D02*
X147522200Y-47739411D01*
X147522200Y-47739411D02*
X147474580Y-47691792D01*
X147474580Y-47691792D02*
X147141247Y-47691792D01*
X147141247Y-47691792D02*
X147141247Y-47882268D01*
X147569819Y-47263220D02*
X146569819Y-47263220D01*
X146569819Y-47263220D02*
X147569819Y-46691792D01*
X147569819Y-46691792D02*
X146569819Y-46691792D01*
X147569819Y-46215601D02*
X146569819Y-46215601D01*
X146569819Y-46215601D02*
X146569819Y-45977506D01*
X146569819Y-45977506D02*
X146617438Y-45834649D01*
X146617438Y-45834649D02*
X146712676Y-45739411D01*
X146712676Y-45739411D02*
X146807914Y-45691792D01*
X146807914Y-45691792D02*
X146998390Y-45644173D01*
X146998390Y-45644173D02*
X147141247Y-45644173D01*
X147141247Y-45644173D02*
X147331723Y-45691792D01*
X147331723Y-45691792D02*
X147426961Y-45739411D01*
X147426961Y-45739411D02*
X147522200Y-45834649D01*
X147522200Y-45834649D02*
X147569819Y-45977506D01*
X147569819Y-45977506D02*
X147569819Y-46215601D01*
X146517438Y-93839411D02*
X146469819Y-93934649D01*
X146469819Y-93934649D02*
X146469819Y-94077506D01*
X146469819Y-94077506D02*
X146517438Y-94220363D01*
X146517438Y-94220363D02*
X146612676Y-94315601D01*
X146612676Y-94315601D02*
X146707914Y-94363220D01*
X146707914Y-94363220D02*
X146898390Y-94410839D01*
X146898390Y-94410839D02*
X147041247Y-94410839D01*
X147041247Y-94410839D02*
X147231723Y-94363220D01*
X147231723Y-94363220D02*
X147326961Y-94315601D01*
X147326961Y-94315601D02*
X147422200Y-94220363D01*
X147422200Y-94220363D02*
X147469819Y-94077506D01*
X147469819Y-94077506D02*
X147469819Y-93982268D01*
X147469819Y-93982268D02*
X147422200Y-93839411D01*
X147422200Y-93839411D02*
X147374580Y-93791792D01*
X147374580Y-93791792D02*
X147041247Y-93791792D01*
X147041247Y-93791792D02*
X147041247Y-93982268D01*
X147469819Y-93363220D02*
X146469819Y-93363220D01*
X146469819Y-93363220D02*
X147469819Y-92791792D01*
X147469819Y-92791792D02*
X146469819Y-92791792D01*
X147469819Y-92315601D02*
X146469819Y-92315601D01*
X146469819Y-92315601D02*
X146469819Y-92077506D01*
X146469819Y-92077506D02*
X146517438Y-91934649D01*
X146517438Y-91934649D02*
X146612676Y-91839411D01*
X146612676Y-91839411D02*
X146707914Y-91791792D01*
X146707914Y-91791792D02*
X146898390Y-91744173D01*
X146898390Y-91744173D02*
X147041247Y-91744173D01*
X147041247Y-91744173D02*
X147231723Y-91791792D01*
X147231723Y-91791792D02*
X147326961Y-91839411D01*
X147326961Y-91839411D02*
X147422200Y-91934649D01*
X147422200Y-91934649D02*
X147469819Y-92077506D01*
X147469819Y-92077506D02*
X147469819Y-92315601D01*
X119666666Y-65954819D02*
X119666666Y-66669104D01*
X119666666Y-66669104D02*
X119619047Y-66811961D01*
X119619047Y-66811961D02*
X119523809Y-66907200D01*
X119523809Y-66907200D02*
X119380952Y-66954819D01*
X119380952Y-66954819D02*
X119285714Y-66954819D01*
X120666666Y-66954819D02*
X120095238Y-66954819D01*
X120380952Y-66954819D02*
X120380952Y-65954819D01*
X120380952Y-65954819D02*
X120285714Y-66097676D01*
X120285714Y-66097676D02*
X120190476Y-66192914D01*
X120190476Y-66192914D02*
X120095238Y-66240533D01*
X146666666Y-49354819D02*
X146666666Y-50069104D01*
X146666666Y-50069104D02*
X146619047Y-50211961D01*
X146619047Y-50211961D02*
X146523809Y-50307200D01*
X146523809Y-50307200D02*
X146380952Y-50354819D01*
X146380952Y-50354819D02*
X146285714Y-50354819D01*
X147571428Y-49354819D02*
X147380952Y-49354819D01*
X147380952Y-49354819D02*
X147285714Y-49402438D01*
X147285714Y-49402438D02*
X147238095Y-49450057D01*
X147238095Y-49450057D02*
X147142857Y-49592914D01*
X147142857Y-49592914D02*
X147095238Y-49783390D01*
X147095238Y-49783390D02*
X147095238Y-50164342D01*
X147095238Y-50164342D02*
X147142857Y-50259580D01*
X147142857Y-50259580D02*
X147190476Y-50307200D01*
X147190476Y-50307200D02*
X147285714Y-50354819D01*
X147285714Y-50354819D02*
X147476190Y-50354819D01*
X147476190Y-50354819D02*
X147571428Y-50307200D01*
X147571428Y-50307200D02*
X147619047Y-50259580D01*
X147619047Y-50259580D02*
X147666666Y-50164342D01*
X147666666Y-50164342D02*
X147666666Y-49926247D01*
X147666666Y-49926247D02*
X147619047Y-49831009D01*
X147619047Y-49831009D02*
X147571428Y-49783390D01*
X147571428Y-49783390D02*
X147476190Y-49735771D01*
X147476190Y-49735771D02*
X147285714Y-49735771D01*
X147285714Y-49735771D02*
X147190476Y-49783390D01*
X147190476Y-49783390D02*
X147142857Y-49831009D01*
X147142857Y-49831009D02*
X147095238Y-49926247D01*
X142733333Y-66254819D02*
X142400000Y-65778628D01*
X142161905Y-66254819D02*
X142161905Y-65254819D01*
X142161905Y-65254819D02*
X142542857Y-65254819D01*
X142542857Y-65254819D02*
X142638095Y-65302438D01*
X142638095Y-65302438D02*
X142685714Y-65350057D01*
X142685714Y-65350057D02*
X142733333Y-65445295D01*
X142733333Y-65445295D02*
X142733333Y-65588152D01*
X142733333Y-65588152D02*
X142685714Y-65683390D01*
X142685714Y-65683390D02*
X142638095Y-65731009D01*
X142638095Y-65731009D02*
X142542857Y-65778628D01*
X142542857Y-65778628D02*
X142161905Y-65778628D01*
X143685714Y-66254819D02*
X143114286Y-66254819D01*
X143400000Y-66254819D02*
X143400000Y-65254819D01*
X143400000Y-65254819D02*
X143304762Y-65397676D01*
X143304762Y-65397676D02*
X143209524Y-65492914D01*
X143209524Y-65492914D02*
X143114286Y-65540533D01*
X133914286Y-65354819D02*
X134533333Y-65354819D01*
X134533333Y-65354819D02*
X134200000Y-65735771D01*
X134200000Y-65735771D02*
X134342857Y-65735771D01*
X134342857Y-65735771D02*
X134438095Y-65783390D01*
X134438095Y-65783390D02*
X134485714Y-65831009D01*
X134485714Y-65831009D02*
X134533333Y-65926247D01*
X134533333Y-65926247D02*
X134533333Y-66164342D01*
X134533333Y-66164342D02*
X134485714Y-66259580D01*
X134485714Y-66259580D02*
X134438095Y-66307200D01*
X134438095Y-66307200D02*
X134342857Y-66354819D01*
X134342857Y-66354819D02*
X134057143Y-66354819D01*
X134057143Y-66354819D02*
X133961905Y-66307200D01*
X133961905Y-66307200D02*
X133914286Y-66259580D01*
X134866667Y-65354819D02*
X135485714Y-65354819D01*
X135485714Y-65354819D02*
X135152381Y-65735771D01*
X135152381Y-65735771D02*
X135295238Y-65735771D01*
X135295238Y-65735771D02*
X135390476Y-65783390D01*
X135390476Y-65783390D02*
X135438095Y-65831009D01*
X135438095Y-65831009D02*
X135485714Y-65926247D01*
X135485714Y-65926247D02*
X135485714Y-66164342D01*
X135485714Y-66164342D02*
X135438095Y-66259580D01*
X135438095Y-66259580D02*
X135390476Y-66307200D01*
X135390476Y-66307200D02*
X135295238Y-66354819D01*
X135295238Y-66354819D02*
X135009524Y-66354819D01*
X135009524Y-66354819D02*
X134914286Y-66307200D01*
X134914286Y-66307200D02*
X134866667Y-66259580D01*
X136104762Y-65354819D02*
X136200000Y-65354819D01*
X136200000Y-65354819D02*
X136295238Y-65402438D01*
X136295238Y-65402438D02*
X136342857Y-65450057D01*
X136342857Y-65450057D02*
X136390476Y-65545295D01*
X136390476Y-65545295D02*
X136438095Y-65735771D01*
X136438095Y-65735771D02*
X136438095Y-65973866D01*
X136438095Y-65973866D02*
X136390476Y-66164342D01*
X136390476Y-66164342D02*
X136342857Y-66259580D01*
X136342857Y-66259580D02*
X136295238Y-66307200D01*
X136295238Y-66307200D02*
X136200000Y-66354819D01*
X136200000Y-66354819D02*
X136104762Y-66354819D01*
X136104762Y-66354819D02*
X136009524Y-66307200D01*
X136009524Y-66307200D02*
X135961905Y-66259580D01*
X135961905Y-66259580D02*
X135914286Y-66164342D01*
X135914286Y-66164342D02*
X135866667Y-65973866D01*
X135866667Y-65973866D02*
X135866667Y-65735771D01*
X135866667Y-65735771D02*
X135914286Y-65545295D01*
X135914286Y-65545295D02*
X135961905Y-65450057D01*
X135961905Y-65450057D02*
X136009524Y-65402438D01*
X136009524Y-65402438D02*
X136104762Y-65354819D01*
X140866666Y-88054819D02*
X140866666Y-88769104D01*
X140866666Y-88769104D02*
X140819047Y-88911961D01*
X140819047Y-88911961D02*
X140723809Y-89007200D01*
X140723809Y-89007200D02*
X140580952Y-89054819D01*
X140580952Y-89054819D02*
X140485714Y-89054819D01*
X141295238Y-88150057D02*
X141342857Y-88102438D01*
X141342857Y-88102438D02*
X141438095Y-88054819D01*
X141438095Y-88054819D02*
X141676190Y-88054819D01*
X141676190Y-88054819D02*
X141771428Y-88102438D01*
X141771428Y-88102438D02*
X141819047Y-88150057D01*
X141819047Y-88150057D02*
X141866666Y-88245295D01*
X141866666Y-88245295D02*
X141866666Y-88340533D01*
X141866666Y-88340533D02*
X141819047Y-88483390D01*
X141819047Y-88483390D02*
X141247619Y-89054819D01*
X141247619Y-89054819D02*
X141866666Y-89054819D01*
X120666666Y-93454819D02*
X120666666Y-94169104D01*
X120666666Y-94169104D02*
X120619047Y-94311961D01*
X120619047Y-94311961D02*
X120523809Y-94407200D01*
X120523809Y-94407200D02*
X120380952Y-94454819D01*
X120380952Y-94454819D02*
X120285714Y-94454819D01*
X121571428Y-93788152D02*
X121571428Y-94454819D01*
X121333333Y-93407200D02*
X121095238Y-94121485D01*
X121095238Y-94121485D02*
X121714285Y-94121485D01*
X139661905Y-69454819D02*
X139661905Y-68454819D01*
X139661905Y-68454819D02*
X139900000Y-68454819D01*
X139900000Y-68454819D02*
X140042857Y-68502438D01*
X140042857Y-68502438D02*
X140138095Y-68597676D01*
X140138095Y-68597676D02*
X140185714Y-68692914D01*
X140185714Y-68692914D02*
X140233333Y-68883390D01*
X140233333Y-68883390D02*
X140233333Y-69026247D01*
X140233333Y-69026247D02*
X140185714Y-69216723D01*
X140185714Y-69216723D02*
X140138095Y-69311961D01*
X140138095Y-69311961D02*
X140042857Y-69407200D01*
X140042857Y-69407200D02*
X139900000Y-69454819D01*
X139900000Y-69454819D02*
X139661905Y-69454819D01*
X141185714Y-69454819D02*
X140614286Y-69454819D01*
X140900000Y-69454819D02*
X140900000Y-68454819D01*
X140900000Y-68454819D02*
X140804762Y-68597676D01*
X140804762Y-68597676D02*
X140709524Y-68692914D01*
X140709524Y-68692914D02*
X140614286Y-68740533D01*
X129233333Y-54459580D02*
X129185714Y-54507200D01*
X129185714Y-54507200D02*
X129042857Y-54554819D01*
X129042857Y-54554819D02*
X128947619Y-54554819D01*
X128947619Y-54554819D02*
X128804762Y-54507200D01*
X128804762Y-54507200D02*
X128709524Y-54411961D01*
X128709524Y-54411961D02*
X128661905Y-54316723D01*
X128661905Y-54316723D02*
X128614286Y-54126247D01*
X128614286Y-54126247D02*
X128614286Y-53983390D01*
X128614286Y-53983390D02*
X128661905Y-53792914D01*
X128661905Y-53792914D02*
X128709524Y-53697676D01*
X128709524Y-53697676D02*
X128804762Y-53602438D01*
X128804762Y-53602438D02*
X128947619Y-53554819D01*
X128947619Y-53554819D02*
X129042857Y-53554819D01*
X129042857Y-53554819D02*
X129185714Y-53602438D01*
X129185714Y-53602438D02*
X129233333Y-53650057D01*
X130185714Y-54554819D02*
X129614286Y-54554819D01*
X129900000Y-54554819D02*
X129900000Y-53554819D01*
X129900000Y-53554819D02*
X129804762Y-53697676D01*
X129804762Y-53697676D02*
X129709524Y-53792914D01*
X129709524Y-53792914D02*
X129614286Y-53840533D01*
X125957142Y-54554819D02*
X125385714Y-54554819D01*
X125671428Y-54554819D02*
X125671428Y-53554819D01*
X125671428Y-53554819D02*
X125576190Y-53697676D01*
X125576190Y-53697676D02*
X125480952Y-53792914D01*
X125480952Y-53792914D02*
X125385714Y-53840533D01*
X126576190Y-53554819D02*
X126671428Y-53554819D01*
X126671428Y-53554819D02*
X126766666Y-53602438D01*
X126766666Y-53602438D02*
X126814285Y-53650057D01*
X126814285Y-53650057D02*
X126861904Y-53745295D01*
X126861904Y-53745295D02*
X126909523Y-53935771D01*
X126909523Y-53935771D02*
X126909523Y-54173866D01*
X126909523Y-54173866D02*
X126861904Y-54364342D01*
X126861904Y-54364342D02*
X126814285Y-54459580D01*
X126814285Y-54459580D02*
X126766666Y-54507200D01*
X126766666Y-54507200D02*
X126671428Y-54554819D01*
X126671428Y-54554819D02*
X126576190Y-54554819D01*
X126576190Y-54554819D02*
X126480952Y-54507200D01*
X126480952Y-54507200D02*
X126433333Y-54459580D01*
X126433333Y-54459580D02*
X126385714Y-54364342D01*
X126385714Y-54364342D02*
X126338095Y-54173866D01*
X126338095Y-54173866D02*
X126338095Y-53935771D01*
X126338095Y-53935771D02*
X126385714Y-53745295D01*
X126385714Y-53745295D02*
X126433333Y-53650057D01*
X126433333Y-53650057D02*
X126480952Y-53602438D01*
X126480952Y-53602438D02*
X126576190Y-53554819D01*
X127766666Y-53888152D02*
X127766666Y-54554819D01*
X127338095Y-53888152D02*
X127338095Y-54411961D01*
X127338095Y-54411961D02*
X127385714Y-54507200D01*
X127385714Y-54507200D02*
X127480952Y-54554819D01*
X127480952Y-54554819D02*
X127623809Y-54554819D01*
X127623809Y-54554819D02*
X127719047Y-54507200D01*
X127719047Y-54507200D02*
X127766666Y-54459580D01*
X146566666Y-95254819D02*
X146566666Y-95969104D01*
X146566666Y-95969104D02*
X146519047Y-96111961D01*
X146519047Y-96111961D02*
X146423809Y-96207200D01*
X146423809Y-96207200D02*
X146280952Y-96254819D01*
X146280952Y-96254819D02*
X146185714Y-96254819D01*
X146947619Y-95254819D02*
X147566666Y-95254819D01*
X147566666Y-95254819D02*
X147233333Y-95635771D01*
X147233333Y-95635771D02*
X147376190Y-95635771D01*
X147376190Y-95635771D02*
X147471428Y-95683390D01*
X147471428Y-95683390D02*
X147519047Y-95731009D01*
X147519047Y-95731009D02*
X147566666Y-95826247D01*
X147566666Y-95826247D02*
X147566666Y-96064342D01*
X147566666Y-96064342D02*
X147519047Y-96159580D01*
X147519047Y-96159580D02*
X147471428Y-96207200D01*
X147471428Y-96207200D02*
X147376190Y-96254819D01*
X147376190Y-96254819D02*
X147090476Y-96254819D01*
X147090476Y-96254819D02*
X146995238Y-96207200D01*
X146995238Y-96207200D02*
X146947619Y-96159580D01*
X142433333Y-80554819D02*
X142100000Y-80078628D01*
X141861905Y-80554819D02*
X141861905Y-79554819D01*
X141861905Y-79554819D02*
X142242857Y-79554819D01*
X142242857Y-79554819D02*
X142338095Y-79602438D01*
X142338095Y-79602438D02*
X142385714Y-79650057D01*
X142385714Y-79650057D02*
X142433333Y-79745295D01*
X142433333Y-79745295D02*
X142433333Y-79888152D01*
X142433333Y-79888152D02*
X142385714Y-79983390D01*
X142385714Y-79983390D02*
X142338095Y-80031009D01*
X142338095Y-80031009D02*
X142242857Y-80078628D01*
X142242857Y-80078628D02*
X141861905Y-80078628D01*
X142766667Y-79554819D02*
X143385714Y-79554819D01*
X143385714Y-79554819D02*
X143052381Y-79935771D01*
X143052381Y-79935771D02*
X143195238Y-79935771D01*
X143195238Y-79935771D02*
X143290476Y-79983390D01*
X143290476Y-79983390D02*
X143338095Y-80031009D01*
X143338095Y-80031009D02*
X143385714Y-80126247D01*
X143385714Y-80126247D02*
X143385714Y-80364342D01*
X143385714Y-80364342D02*
X143338095Y-80459580D01*
X143338095Y-80459580D02*
X143290476Y-80507200D01*
X143290476Y-80507200D02*
X143195238Y-80554819D01*
X143195238Y-80554819D02*
X142909524Y-80554819D01*
X142909524Y-80554819D02*
X142814286Y-80507200D01*
X142814286Y-80507200D02*
X142766667Y-80459580D01*
X134385714Y-79554819D02*
X133909524Y-79554819D01*
X133909524Y-79554819D02*
X133861905Y-80031009D01*
X133861905Y-80031009D02*
X133909524Y-79983390D01*
X133909524Y-79983390D02*
X134004762Y-79935771D01*
X134004762Y-79935771D02*
X134242857Y-79935771D01*
X134242857Y-79935771D02*
X134338095Y-79983390D01*
X134338095Y-79983390D02*
X134385714Y-80031009D01*
X134385714Y-80031009D02*
X134433333Y-80126247D01*
X134433333Y-80126247D02*
X134433333Y-80364342D01*
X134433333Y-80364342D02*
X134385714Y-80459580D01*
X134385714Y-80459580D02*
X134338095Y-80507200D01*
X134338095Y-80507200D02*
X134242857Y-80554819D01*
X134242857Y-80554819D02*
X134004762Y-80554819D01*
X134004762Y-80554819D02*
X133909524Y-80507200D01*
X133909524Y-80507200D02*
X133861905Y-80459580D01*
X135290476Y-79554819D02*
X135100000Y-79554819D01*
X135100000Y-79554819D02*
X135004762Y-79602438D01*
X135004762Y-79602438D02*
X134957143Y-79650057D01*
X134957143Y-79650057D02*
X134861905Y-79792914D01*
X134861905Y-79792914D02*
X134814286Y-79983390D01*
X134814286Y-79983390D02*
X134814286Y-80364342D01*
X134814286Y-80364342D02*
X134861905Y-80459580D01*
X134861905Y-80459580D02*
X134909524Y-80507200D01*
X134909524Y-80507200D02*
X135004762Y-80554819D01*
X135004762Y-80554819D02*
X135195238Y-80554819D01*
X135195238Y-80554819D02*
X135290476Y-80507200D01*
X135290476Y-80507200D02*
X135338095Y-80459580D01*
X135338095Y-80459580D02*
X135385714Y-80364342D01*
X135385714Y-80364342D02*
X135385714Y-80126247D01*
X135385714Y-80126247D02*
X135338095Y-80031009D01*
X135338095Y-80031009D02*
X135290476Y-79983390D01*
X135290476Y-79983390D02*
X135195238Y-79935771D01*
X135195238Y-79935771D02*
X135004762Y-79935771D01*
X135004762Y-79935771D02*
X134909524Y-79983390D01*
X134909524Y-79983390D02*
X134861905Y-80031009D01*
X134861905Y-80031009D02*
X134814286Y-80126247D01*
X136004762Y-79554819D02*
X136100000Y-79554819D01*
X136100000Y-79554819D02*
X136195238Y-79602438D01*
X136195238Y-79602438D02*
X136242857Y-79650057D01*
X136242857Y-79650057D02*
X136290476Y-79745295D01*
X136290476Y-79745295D02*
X136338095Y-79935771D01*
X136338095Y-79935771D02*
X136338095Y-80173866D01*
X136338095Y-80173866D02*
X136290476Y-80364342D01*
X136290476Y-80364342D02*
X136242857Y-80459580D01*
X136242857Y-80459580D02*
X136195238Y-80507200D01*
X136195238Y-80507200D02*
X136100000Y-80554819D01*
X136100000Y-80554819D02*
X136004762Y-80554819D01*
X136004762Y-80554819D02*
X135909524Y-80507200D01*
X135909524Y-80507200D02*
X135861905Y-80459580D01*
X135861905Y-80459580D02*
X135814286Y-80364342D01*
X135814286Y-80364342D02*
X135766667Y-80173866D01*
X135766667Y-80173866D02*
X135766667Y-79935771D01*
X135766667Y-79935771D02*
X135814286Y-79745295D01*
X135814286Y-79745295D02*
X135861905Y-79650057D01*
X135861905Y-79650057D02*
X135909524Y-79602438D01*
X135909524Y-79602438D02*
X136004762Y-79554819D01*
X120766666Y-49454819D02*
X120766666Y-50169104D01*
X120766666Y-50169104D02*
X120719047Y-50311961D01*
X120719047Y-50311961D02*
X120623809Y-50407200D01*
X120623809Y-50407200D02*
X120480952Y-50454819D01*
X120480952Y-50454819D02*
X120385714Y-50454819D01*
X121147619Y-49454819D02*
X121814285Y-49454819D01*
X121814285Y-49454819D02*
X121385714Y-50454819D01*
X123933333Y-54459580D02*
X123885714Y-54507200D01*
X123885714Y-54507200D02*
X123742857Y-54554819D01*
X123742857Y-54554819D02*
X123647619Y-54554819D01*
X123647619Y-54554819D02*
X123504762Y-54507200D01*
X123504762Y-54507200D02*
X123409524Y-54411961D01*
X123409524Y-54411961D02*
X123361905Y-54316723D01*
X123361905Y-54316723D02*
X123314286Y-54126247D01*
X123314286Y-54126247D02*
X123314286Y-53983390D01*
X123314286Y-53983390D02*
X123361905Y-53792914D01*
X123361905Y-53792914D02*
X123409524Y-53697676D01*
X123409524Y-53697676D02*
X123504762Y-53602438D01*
X123504762Y-53602438D02*
X123647619Y-53554819D01*
X123647619Y-53554819D02*
X123742857Y-53554819D01*
X123742857Y-53554819D02*
X123885714Y-53602438D01*
X123885714Y-53602438D02*
X123933333Y-53650057D01*
X124266667Y-53554819D02*
X124885714Y-53554819D01*
X124885714Y-53554819D02*
X124552381Y-53935771D01*
X124552381Y-53935771D02*
X124695238Y-53935771D01*
X124695238Y-53935771D02*
X124790476Y-53983390D01*
X124790476Y-53983390D02*
X124838095Y-54031009D01*
X124838095Y-54031009D02*
X124885714Y-54126247D01*
X124885714Y-54126247D02*
X124885714Y-54364342D01*
X124885714Y-54364342D02*
X124838095Y-54459580D01*
X124838095Y-54459580D02*
X124790476Y-54507200D01*
X124790476Y-54507200D02*
X124695238Y-54554819D01*
X124695238Y-54554819D02*
X124409524Y-54554819D01*
X124409524Y-54554819D02*
X124314286Y-54507200D01*
X124314286Y-54507200D02*
X124266667Y-54459580D01*
X119785714Y-53554819D02*
X119880952Y-53554819D01*
X119880952Y-53554819D02*
X119976190Y-53602438D01*
X119976190Y-53602438D02*
X120023809Y-53650057D01*
X120023809Y-53650057D02*
X120071428Y-53745295D01*
X120071428Y-53745295D02*
X120119047Y-53935771D01*
X120119047Y-53935771D02*
X120119047Y-54173866D01*
X120119047Y-54173866D02*
X120071428Y-54364342D01*
X120071428Y-54364342D02*
X120023809Y-54459580D01*
X120023809Y-54459580D02*
X119976190Y-54507200D01*
X119976190Y-54507200D02*
X119880952Y-54554819D01*
X119880952Y-54554819D02*
X119785714Y-54554819D01*
X119785714Y-54554819D02*
X119690476Y-54507200D01*
X119690476Y-54507200D02*
X119642857Y-54459580D01*
X119642857Y-54459580D02*
X119595238Y-54364342D01*
X119595238Y-54364342D02*
X119547619Y-54173866D01*
X119547619Y-54173866D02*
X119547619Y-53935771D01*
X119547619Y-53935771D02*
X119595238Y-53745295D01*
X119595238Y-53745295D02*
X119642857Y-53650057D01*
X119642857Y-53650057D02*
X119690476Y-53602438D01*
X119690476Y-53602438D02*
X119785714Y-53554819D01*
X120547619Y-54459580D02*
X120595238Y-54507200D01*
X120595238Y-54507200D02*
X120547619Y-54554819D01*
X120547619Y-54554819D02*
X120500000Y-54507200D01*
X120500000Y-54507200D02*
X120547619Y-54459580D01*
X120547619Y-54459580D02*
X120547619Y-54554819D01*
X121547618Y-54554819D02*
X120976190Y-54554819D01*
X121261904Y-54554819D02*
X121261904Y-53554819D01*
X121261904Y-53554819D02*
X121166666Y-53697676D01*
X121166666Y-53697676D02*
X121071428Y-53792914D01*
X121071428Y-53792914D02*
X120976190Y-53840533D01*
X122404761Y-53888152D02*
X122404761Y-54554819D01*
X121976190Y-53888152D02*
X121976190Y-54411961D01*
X121976190Y-54411961D02*
X122023809Y-54507200D01*
X122023809Y-54507200D02*
X122119047Y-54554819D01*
X122119047Y-54554819D02*
X122261904Y-54554819D01*
X122261904Y-54554819D02*
X122357142Y-54507200D01*
X122357142Y-54507200D02*
X122404761Y-54459580D01*
X124333333Y-90259580D02*
X124285714Y-90307200D01*
X124285714Y-90307200D02*
X124142857Y-90354819D01*
X124142857Y-90354819D02*
X124047619Y-90354819D01*
X124047619Y-90354819D02*
X123904762Y-90307200D01*
X123904762Y-90307200D02*
X123809524Y-90211961D01*
X123809524Y-90211961D02*
X123761905Y-90116723D01*
X123761905Y-90116723D02*
X123714286Y-89926247D01*
X123714286Y-89926247D02*
X123714286Y-89783390D01*
X123714286Y-89783390D02*
X123761905Y-89592914D01*
X123761905Y-89592914D02*
X123809524Y-89497676D01*
X123809524Y-89497676D02*
X123904762Y-89402438D01*
X123904762Y-89402438D02*
X124047619Y-89354819D01*
X124047619Y-89354819D02*
X124142857Y-89354819D01*
X124142857Y-89354819D02*
X124285714Y-89402438D01*
X124285714Y-89402438D02*
X124333333Y-89450057D01*
X124714286Y-89450057D02*
X124761905Y-89402438D01*
X124761905Y-89402438D02*
X124857143Y-89354819D01*
X124857143Y-89354819D02*
X125095238Y-89354819D01*
X125095238Y-89354819D02*
X125190476Y-89402438D01*
X125190476Y-89402438D02*
X125238095Y-89450057D01*
X125238095Y-89450057D02*
X125285714Y-89545295D01*
X125285714Y-89545295D02*
X125285714Y-89640533D01*
X125285714Y-89640533D02*
X125238095Y-89783390D01*
X125238095Y-89783390D02*
X124666667Y-90354819D01*
X124666667Y-90354819D02*
X125285714Y-90354819D01*
X120233333Y-90254819D02*
X119661905Y-90254819D01*
X119947619Y-90254819D02*
X119947619Y-89254819D01*
X119947619Y-89254819D02*
X119852381Y-89397676D01*
X119852381Y-89397676D02*
X119757143Y-89492914D01*
X119757143Y-89492914D02*
X119661905Y-89540533D01*
X121090476Y-89588152D02*
X121090476Y-90254819D01*
X120661905Y-89588152D02*
X120661905Y-90111961D01*
X120661905Y-90111961D02*
X120709524Y-90207200D01*
X120709524Y-90207200D02*
X120804762Y-90254819D01*
X120804762Y-90254819D02*
X120947619Y-90254819D01*
X120947619Y-90254819D02*
X121042857Y-90207200D01*
X121042857Y-90207200D02*
X121090476Y-90159580D01*
X130138095Y-62254819D02*
X130138095Y-63064342D01*
X130138095Y-63064342D02*
X130185714Y-63159580D01*
X130185714Y-63159580D02*
X130233333Y-63207200D01*
X130233333Y-63207200D02*
X130328571Y-63254819D01*
X130328571Y-63254819D02*
X130519047Y-63254819D01*
X130519047Y-63254819D02*
X130614285Y-63207200D01*
X130614285Y-63207200D02*
X130661904Y-63159580D01*
X130661904Y-63159580D02*
X130709523Y-63064342D01*
X130709523Y-63064342D02*
X130709523Y-62254819D01*
X131138095Y-62350057D02*
X131185714Y-62302438D01*
X131185714Y-62302438D02*
X131280952Y-62254819D01*
X131280952Y-62254819D02*
X131519047Y-62254819D01*
X131519047Y-62254819D02*
X131614285Y-62302438D01*
X131614285Y-62302438D02*
X131661904Y-62350057D01*
X131661904Y-62350057D02*
X131709523Y-62445295D01*
X131709523Y-62445295D02*
X131709523Y-62540533D01*
X131709523Y-62540533D02*
X131661904Y-62683390D01*
X131661904Y-62683390D02*
X131090476Y-63254819D01*
X131090476Y-63254819D02*
X131709523Y-63254819D01*
X120019047Y-64854819D02*
X119542857Y-64854819D01*
X119542857Y-64854819D02*
X119542857Y-63854819D01*
X120352381Y-64854819D02*
X120352381Y-63854819D01*
X120352381Y-63854819D02*
X120685714Y-64569104D01*
X120685714Y-64569104D02*
X121019047Y-63854819D01*
X121019047Y-63854819D02*
X121019047Y-64854819D01*
X121400000Y-63854819D02*
X122066666Y-63854819D01*
X122066666Y-63854819D02*
X121638095Y-64854819D01*
X122590476Y-64283390D02*
X122495238Y-64235771D01*
X122495238Y-64235771D02*
X122447619Y-64188152D01*
X122447619Y-64188152D02*
X122400000Y-64092914D01*
X122400000Y-64092914D02*
X122400000Y-64045295D01*
X122400000Y-64045295D02*
X122447619Y-63950057D01*
X122447619Y-63950057D02*
X122495238Y-63902438D01*
X122495238Y-63902438D02*
X122590476Y-63854819D01*
X122590476Y-63854819D02*
X122780952Y-63854819D01*
X122780952Y-63854819D02*
X122876190Y-63902438D01*
X122876190Y-63902438D02*
X122923809Y-63950057D01*
X122923809Y-63950057D02*
X122971428Y-64045295D01*
X122971428Y-64045295D02*
X122971428Y-64092914D01*
X122971428Y-64092914D02*
X122923809Y-64188152D01*
X122923809Y-64188152D02*
X122876190Y-64235771D01*
X122876190Y-64235771D02*
X122780952Y-64283390D01*
X122780952Y-64283390D02*
X122590476Y-64283390D01*
X122590476Y-64283390D02*
X122495238Y-64331009D01*
X122495238Y-64331009D02*
X122447619Y-64378628D01*
X122447619Y-64378628D02*
X122400000Y-64473866D01*
X122400000Y-64473866D02*
X122400000Y-64664342D01*
X122400000Y-64664342D02*
X122447619Y-64759580D01*
X122447619Y-64759580D02*
X122495238Y-64807200D01*
X122495238Y-64807200D02*
X122590476Y-64854819D01*
X122590476Y-64854819D02*
X122780952Y-64854819D01*
X122780952Y-64854819D02*
X122876190Y-64807200D01*
X122876190Y-64807200D02*
X122923809Y-64759580D01*
X122923809Y-64759580D02*
X122971428Y-64664342D01*
X122971428Y-64664342D02*
X122971428Y-64473866D01*
X122971428Y-64473866D02*
X122923809Y-64378628D01*
X122923809Y-64378628D02*
X122876190Y-64331009D01*
X122876190Y-64331009D02*
X122780952Y-64283390D01*
X123590476Y-63854819D02*
X123685714Y-63854819D01*
X123685714Y-63854819D02*
X123780952Y-63902438D01*
X123780952Y-63902438D02*
X123828571Y-63950057D01*
X123828571Y-63950057D02*
X123876190Y-64045295D01*
X123876190Y-64045295D02*
X123923809Y-64235771D01*
X123923809Y-64235771D02*
X123923809Y-64473866D01*
X123923809Y-64473866D02*
X123876190Y-64664342D01*
X123876190Y-64664342D02*
X123828571Y-64759580D01*
X123828571Y-64759580D02*
X123780952Y-64807200D01*
X123780952Y-64807200D02*
X123685714Y-64854819D01*
X123685714Y-64854819D02*
X123590476Y-64854819D01*
X123590476Y-64854819D02*
X123495238Y-64807200D01*
X123495238Y-64807200D02*
X123447619Y-64759580D01*
X123447619Y-64759580D02*
X123400000Y-64664342D01*
X123400000Y-64664342D02*
X123352381Y-64473866D01*
X123352381Y-64473866D02*
X123352381Y-64235771D01*
X123352381Y-64235771D02*
X123400000Y-64045295D01*
X123400000Y-64045295D02*
X123447619Y-63950057D01*
X123447619Y-63950057D02*
X123495238Y-63902438D01*
X123495238Y-63902438D02*
X123590476Y-63854819D01*
X124828571Y-63854819D02*
X124352381Y-63854819D01*
X124352381Y-63854819D02*
X124304762Y-64331009D01*
X124304762Y-64331009D02*
X124352381Y-64283390D01*
X124352381Y-64283390D02*
X124447619Y-64235771D01*
X124447619Y-64235771D02*
X124685714Y-64235771D01*
X124685714Y-64235771D02*
X124780952Y-64283390D01*
X124780952Y-64283390D02*
X124828571Y-64331009D01*
X124828571Y-64331009D02*
X124876190Y-64426247D01*
X124876190Y-64426247D02*
X124876190Y-64664342D01*
X124876190Y-64664342D02*
X124828571Y-64759580D01*
X124828571Y-64759580D02*
X124780952Y-64807200D01*
X124780952Y-64807200D02*
X124685714Y-64854819D01*
X124685714Y-64854819D02*
X124447619Y-64854819D01*
X124447619Y-64854819D02*
X124352381Y-64807200D01*
X124352381Y-64807200D02*
X124304762Y-64759580D01*
X125066667Y-64950057D02*
X125828571Y-64950057D01*
X125923810Y-63854819D02*
X126495238Y-63854819D01*
X126209524Y-64854819D02*
X126209524Y-63854819D01*
X127019048Y-63854819D02*
X127209524Y-63854819D01*
X127209524Y-63854819D02*
X127304762Y-63902438D01*
X127304762Y-63902438D02*
X127400000Y-63997676D01*
X127400000Y-63997676D02*
X127447619Y-64188152D01*
X127447619Y-64188152D02*
X127447619Y-64521485D01*
X127447619Y-64521485D02*
X127400000Y-64711961D01*
X127400000Y-64711961D02*
X127304762Y-64807200D01*
X127304762Y-64807200D02*
X127209524Y-64854819D01*
X127209524Y-64854819D02*
X127019048Y-64854819D01*
X127019048Y-64854819D02*
X126923810Y-64807200D01*
X126923810Y-64807200D02*
X126828572Y-64711961D01*
X126828572Y-64711961D02*
X126780953Y-64521485D01*
X126780953Y-64521485D02*
X126780953Y-64188152D01*
X126780953Y-64188152D02*
X126828572Y-63997676D01*
X126828572Y-63997676D02*
X126923810Y-63902438D01*
X126923810Y-63902438D02*
X127019048Y-63854819D01*
X127828572Y-63950057D02*
X127876191Y-63902438D01*
X127876191Y-63902438D02*
X127971429Y-63854819D01*
X127971429Y-63854819D02*
X128209524Y-63854819D01*
X128209524Y-63854819D02*
X128304762Y-63902438D01*
X128304762Y-63902438D02*
X128352381Y-63950057D01*
X128352381Y-63950057D02*
X128400000Y-64045295D01*
X128400000Y-64045295D02*
X128400000Y-64140533D01*
X128400000Y-64140533D02*
X128352381Y-64283390D01*
X128352381Y-64283390D02*
X127780953Y-64854819D01*
X127780953Y-64854819D02*
X128400000Y-64854819D01*
X128780953Y-63950057D02*
X128828572Y-63902438D01*
X128828572Y-63902438D02*
X128923810Y-63854819D01*
X128923810Y-63854819D02*
X129161905Y-63854819D01*
X129161905Y-63854819D02*
X129257143Y-63902438D01*
X129257143Y-63902438D02*
X129304762Y-63950057D01*
X129304762Y-63950057D02*
X129352381Y-64045295D01*
X129352381Y-64045295D02*
X129352381Y-64140533D01*
X129352381Y-64140533D02*
X129304762Y-64283390D01*
X129304762Y-64283390D02*
X128733334Y-64854819D01*
X128733334Y-64854819D02*
X129352381Y-64854819D01*
X129971429Y-63854819D02*
X130066667Y-63854819D01*
X130066667Y-63854819D02*
X130161905Y-63902438D01*
X130161905Y-63902438D02*
X130209524Y-63950057D01*
X130209524Y-63950057D02*
X130257143Y-64045295D01*
X130257143Y-64045295D02*
X130304762Y-64235771D01*
X130304762Y-64235771D02*
X130304762Y-64473866D01*
X130304762Y-64473866D02*
X130257143Y-64664342D01*
X130257143Y-64664342D02*
X130209524Y-64759580D01*
X130209524Y-64759580D02*
X130161905Y-64807200D01*
X130161905Y-64807200D02*
X130066667Y-64854819D01*
X130066667Y-64854819D02*
X129971429Y-64854819D01*
X129971429Y-64854819D02*
X129876191Y-64807200D01*
X129876191Y-64807200D02*
X129828572Y-64759580D01*
X129828572Y-64759580D02*
X129780953Y-64664342D01*
X129780953Y-64664342D02*
X129733334Y-64473866D01*
X129733334Y-64473866D02*
X129733334Y-64235771D01*
X129733334Y-64235771D02*
X129780953Y-64045295D01*
X129780953Y-64045295D02*
X129828572Y-63950057D01*
X129828572Y-63950057D02*
X129876191Y-63902438D01*
X129876191Y-63902438D02*
X129971429Y-63854819D01*
X142238095Y-56507200D02*
X142380952Y-56554819D01*
X142380952Y-56554819D02*
X142619047Y-56554819D01*
X142619047Y-56554819D02*
X142714285Y-56507200D01*
X142714285Y-56507200D02*
X142761904Y-56459580D01*
X142761904Y-56459580D02*
X142809523Y-56364342D01*
X142809523Y-56364342D02*
X142809523Y-56269104D01*
X142809523Y-56269104D02*
X142761904Y-56173866D01*
X142761904Y-56173866D02*
X142714285Y-56126247D01*
X142714285Y-56126247D02*
X142619047Y-56078628D01*
X142619047Y-56078628D02*
X142428571Y-56031009D01*
X142428571Y-56031009D02*
X142333333Y-55983390D01*
X142333333Y-55983390D02*
X142285714Y-55935771D01*
X142285714Y-55935771D02*
X142238095Y-55840533D01*
X142238095Y-55840533D02*
X142238095Y-55745295D01*
X142238095Y-55745295D02*
X142285714Y-55650057D01*
X142285714Y-55650057D02*
X142333333Y-55602438D01*
X142333333Y-55602438D02*
X142428571Y-55554819D01*
X142428571Y-55554819D02*
X142666666Y-55554819D01*
X142666666Y-55554819D02*
X142809523Y-55602438D01*
X143761904Y-56554819D02*
X143190476Y-56554819D01*
X143476190Y-56554819D02*
X143476190Y-55554819D01*
X143476190Y-55554819D02*
X143380952Y-55697676D01*
X143380952Y-55697676D02*
X143285714Y-55792914D01*
X143285714Y-55792914D02*
X143190476Y-55840533D01*
X131680952Y-55931009D02*
X132014285Y-55931009D01*
X132157142Y-56454819D02*
X131680952Y-56454819D01*
X131680952Y-56454819D02*
X131680952Y-55454819D01*
X131680952Y-55454819D02*
X132157142Y-55454819D01*
X133109523Y-55502438D02*
X133014285Y-55454819D01*
X133014285Y-55454819D02*
X132871428Y-55454819D01*
X132871428Y-55454819D02*
X132728571Y-55502438D01*
X132728571Y-55502438D02*
X132633333Y-55597676D01*
X132633333Y-55597676D02*
X132585714Y-55692914D01*
X132585714Y-55692914D02*
X132538095Y-55883390D01*
X132538095Y-55883390D02*
X132538095Y-56026247D01*
X132538095Y-56026247D02*
X132585714Y-56216723D01*
X132585714Y-56216723D02*
X132633333Y-56311961D01*
X132633333Y-56311961D02*
X132728571Y-56407200D01*
X132728571Y-56407200D02*
X132871428Y-56454819D01*
X132871428Y-56454819D02*
X132966666Y-56454819D01*
X132966666Y-56454819D02*
X133109523Y-56407200D01*
X133109523Y-56407200D02*
X133157142Y-56359580D01*
X133157142Y-56359580D02*
X133157142Y-56026247D01*
X133157142Y-56026247D02*
X132966666Y-56026247D01*
X134109523Y-56454819D02*
X133538095Y-56454819D01*
X133823809Y-56454819D02*
X133823809Y-55454819D01*
X133823809Y-55454819D02*
X133728571Y-55597676D01*
X133728571Y-55597676D02*
X133633333Y-55692914D01*
X133633333Y-55692914D02*
X133538095Y-55740533D01*
X134490476Y-55550057D02*
X134538095Y-55502438D01*
X134538095Y-55502438D02*
X134633333Y-55454819D01*
X134633333Y-55454819D02*
X134871428Y-55454819D01*
X134871428Y-55454819D02*
X134966666Y-55502438D01*
X134966666Y-55502438D02*
X135014285Y-55550057D01*
X135014285Y-55550057D02*
X135061904Y-55645295D01*
X135061904Y-55645295D02*
X135061904Y-55740533D01*
X135061904Y-55740533D02*
X135014285Y-55883390D01*
X135014285Y-55883390D02*
X134442857Y-56454819D01*
X134442857Y-56454819D02*
X135061904Y-56454819D01*
X136014285Y-56454819D02*
X135442857Y-56454819D01*
X135728571Y-56454819D02*
X135728571Y-55454819D01*
X135728571Y-55454819D02*
X135633333Y-55597676D01*
X135633333Y-55597676D02*
X135538095Y-55692914D01*
X135538095Y-55692914D02*
X135442857Y-55740533D01*
X136585714Y-55883390D02*
X136490476Y-55835771D01*
X136490476Y-55835771D02*
X136442857Y-55788152D01*
X136442857Y-55788152D02*
X136395238Y-55692914D01*
X136395238Y-55692914D02*
X136395238Y-55645295D01*
X136395238Y-55645295D02*
X136442857Y-55550057D01*
X136442857Y-55550057D02*
X136490476Y-55502438D01*
X136490476Y-55502438D02*
X136585714Y-55454819D01*
X136585714Y-55454819D02*
X136776190Y-55454819D01*
X136776190Y-55454819D02*
X136871428Y-55502438D01*
X136871428Y-55502438D02*
X136919047Y-55550057D01*
X136919047Y-55550057D02*
X136966666Y-55645295D01*
X136966666Y-55645295D02*
X136966666Y-55692914D01*
X136966666Y-55692914D02*
X136919047Y-55788152D01*
X136919047Y-55788152D02*
X136871428Y-55835771D01*
X136871428Y-55835771D02*
X136776190Y-55883390D01*
X136776190Y-55883390D02*
X136585714Y-55883390D01*
X136585714Y-55883390D02*
X136490476Y-55931009D01*
X136490476Y-55931009D02*
X136442857Y-55978628D01*
X136442857Y-55978628D02*
X136395238Y-56073866D01*
X136395238Y-56073866D02*
X136395238Y-56264342D01*
X136395238Y-56264342D02*
X136442857Y-56359580D01*
X136442857Y-56359580D02*
X136490476Y-56407200D01*
X136490476Y-56407200D02*
X136585714Y-56454819D01*
X136585714Y-56454819D02*
X136776190Y-56454819D01*
X136776190Y-56454819D02*
X136871428Y-56407200D01*
X136871428Y-56407200D02*
X136919047Y-56359580D01*
X136919047Y-56359580D02*
X136966666Y-56264342D01*
X136966666Y-56264342D02*
X136966666Y-56073866D01*
X136966666Y-56073866D02*
X136919047Y-55978628D01*
X136919047Y-55978628D02*
X136871428Y-55931009D01*
X136871428Y-55931009D02*
X136776190Y-55883390D01*
X142233333Y-84454819D02*
X141900000Y-83978628D01*
X141661905Y-84454819D02*
X141661905Y-83454819D01*
X141661905Y-83454819D02*
X142042857Y-83454819D01*
X142042857Y-83454819D02*
X142138095Y-83502438D01*
X142138095Y-83502438D02*
X142185714Y-83550057D01*
X142185714Y-83550057D02*
X142233333Y-83645295D01*
X142233333Y-83645295D02*
X142233333Y-83788152D01*
X142233333Y-83788152D02*
X142185714Y-83883390D01*
X142185714Y-83883390D02*
X142138095Y-83931009D01*
X142138095Y-83931009D02*
X142042857Y-83978628D01*
X142042857Y-83978628D02*
X141661905Y-83978628D01*
X142614286Y-83550057D02*
X142661905Y-83502438D01*
X142661905Y-83502438D02*
X142757143Y-83454819D01*
X142757143Y-83454819D02*
X142995238Y-83454819D01*
X142995238Y-83454819D02*
X143090476Y-83502438D01*
X143090476Y-83502438D02*
X143138095Y-83550057D01*
X143138095Y-83550057D02*
X143185714Y-83645295D01*
X143185714Y-83645295D02*
X143185714Y-83740533D01*
X143185714Y-83740533D02*
X143138095Y-83883390D01*
X143138095Y-83883390D02*
X142566667Y-84454819D01*
X142566667Y-84454819D02*
X143185714Y-84454819D01*
X134014286Y-83454819D02*
X134633333Y-83454819D01*
X134633333Y-83454819D02*
X134300000Y-83835771D01*
X134300000Y-83835771D02*
X134442857Y-83835771D01*
X134442857Y-83835771D02*
X134538095Y-83883390D01*
X134538095Y-83883390D02*
X134585714Y-83931009D01*
X134585714Y-83931009D02*
X134633333Y-84026247D01*
X134633333Y-84026247D02*
X134633333Y-84264342D01*
X134633333Y-84264342D02*
X134585714Y-84359580D01*
X134585714Y-84359580D02*
X134538095Y-84407200D01*
X134538095Y-84407200D02*
X134442857Y-84454819D01*
X134442857Y-84454819D02*
X134157143Y-84454819D01*
X134157143Y-84454819D02*
X134061905Y-84407200D01*
X134061905Y-84407200D02*
X134014286Y-84359580D01*
X134966667Y-83454819D02*
X135585714Y-83454819D01*
X135585714Y-83454819D02*
X135252381Y-83835771D01*
X135252381Y-83835771D02*
X135395238Y-83835771D01*
X135395238Y-83835771D02*
X135490476Y-83883390D01*
X135490476Y-83883390D02*
X135538095Y-83931009D01*
X135538095Y-83931009D02*
X135585714Y-84026247D01*
X135585714Y-84026247D02*
X135585714Y-84264342D01*
X135585714Y-84264342D02*
X135538095Y-84359580D01*
X135538095Y-84359580D02*
X135490476Y-84407200D01*
X135490476Y-84407200D02*
X135395238Y-84454819D01*
X135395238Y-84454819D02*
X135109524Y-84454819D01*
X135109524Y-84454819D02*
X135014286Y-84407200D01*
X135014286Y-84407200D02*
X134966667Y-84359580D01*
X136204762Y-83454819D02*
X136300000Y-83454819D01*
X136300000Y-83454819D02*
X136395238Y-83502438D01*
X136395238Y-83502438D02*
X136442857Y-83550057D01*
X136442857Y-83550057D02*
X136490476Y-83645295D01*
X136490476Y-83645295D02*
X136538095Y-83835771D01*
X136538095Y-83835771D02*
X136538095Y-84073866D01*
X136538095Y-84073866D02*
X136490476Y-84264342D01*
X136490476Y-84264342D02*
X136442857Y-84359580D01*
X136442857Y-84359580D02*
X136395238Y-84407200D01*
X136395238Y-84407200D02*
X136300000Y-84454819D01*
X136300000Y-84454819D02*
X136204762Y-84454819D01*
X136204762Y-84454819D02*
X136109524Y-84407200D01*
X136109524Y-84407200D02*
X136061905Y-84359580D01*
X136061905Y-84359580D02*
X136014286Y-84264342D01*
X136014286Y-84264342D02*
X135966667Y-84073866D01*
X135966667Y-84073866D02*
X135966667Y-83835771D01*
X135966667Y-83835771D02*
X136014286Y-83645295D01*
X136014286Y-83645295D02*
X136061905Y-83550057D01*
X136061905Y-83550057D02*
X136109524Y-83502438D01*
X136109524Y-83502438D02*
X136204762Y-83454819D01*
X130038095Y-80654819D02*
X130038095Y-81464342D01*
X130038095Y-81464342D02*
X130085714Y-81559580D01*
X130085714Y-81559580D02*
X130133333Y-81607200D01*
X130133333Y-81607200D02*
X130228571Y-81654819D01*
X130228571Y-81654819D02*
X130419047Y-81654819D01*
X130419047Y-81654819D02*
X130514285Y-81607200D01*
X130514285Y-81607200D02*
X130561904Y-81559580D01*
X130561904Y-81559580D02*
X130609523Y-81464342D01*
X130609523Y-81464342D02*
X130609523Y-80654819D01*
X131609523Y-81654819D02*
X131038095Y-81654819D01*
X131323809Y-81654819D02*
X131323809Y-80654819D01*
X131323809Y-80654819D02*
X131228571Y-80797676D01*
X131228571Y-80797676D02*
X131133333Y-80892914D01*
X131133333Y-80892914D02*
X131038095Y-80940533D01*
X119876190Y-80254819D02*
X119400000Y-80254819D01*
X119400000Y-80254819D02*
X119400000Y-79254819D01*
X120209524Y-80254819D02*
X120209524Y-79254819D01*
X120209524Y-79254819D02*
X120542857Y-79969104D01*
X120542857Y-79969104D02*
X120876190Y-79254819D01*
X120876190Y-79254819D02*
X120876190Y-80254819D01*
X121257143Y-79254819D02*
X121876190Y-79254819D01*
X121876190Y-79254819D02*
X121542857Y-79635771D01*
X121542857Y-79635771D02*
X121685714Y-79635771D01*
X121685714Y-79635771D02*
X121780952Y-79683390D01*
X121780952Y-79683390D02*
X121828571Y-79731009D01*
X121828571Y-79731009D02*
X121876190Y-79826247D01*
X121876190Y-79826247D02*
X121876190Y-80064342D01*
X121876190Y-80064342D02*
X121828571Y-80159580D01*
X121828571Y-80159580D02*
X121780952Y-80207200D01*
X121780952Y-80207200D02*
X121685714Y-80254819D01*
X121685714Y-80254819D02*
X121400000Y-80254819D01*
X121400000Y-80254819D02*
X121304762Y-80207200D01*
X121304762Y-80207200D02*
X121257143Y-80159580D01*
X122828571Y-80254819D02*
X122257143Y-80254819D01*
X122542857Y-80254819D02*
X122542857Y-79254819D01*
X122542857Y-79254819D02*
X122447619Y-79397676D01*
X122447619Y-79397676D02*
X122352381Y-79492914D01*
X122352381Y-79492914D02*
X122257143Y-79540533D01*
X123161905Y-79254819D02*
X123828571Y-79254819D01*
X123828571Y-79254819D02*
X123400000Y-80254819D01*
X123971429Y-80350057D02*
X124733333Y-80350057D01*
X124828572Y-79254819D02*
X125400000Y-79254819D01*
X125114286Y-80254819D02*
X125114286Y-79254819D01*
X125923810Y-79254819D02*
X126114286Y-79254819D01*
X126114286Y-79254819D02*
X126209524Y-79302438D01*
X126209524Y-79302438D02*
X126304762Y-79397676D01*
X126304762Y-79397676D02*
X126352381Y-79588152D01*
X126352381Y-79588152D02*
X126352381Y-79921485D01*
X126352381Y-79921485D02*
X126304762Y-80111961D01*
X126304762Y-80111961D02*
X126209524Y-80207200D01*
X126209524Y-80207200D02*
X126114286Y-80254819D01*
X126114286Y-80254819D02*
X125923810Y-80254819D01*
X125923810Y-80254819D02*
X125828572Y-80207200D01*
X125828572Y-80207200D02*
X125733334Y-80111961D01*
X125733334Y-80111961D02*
X125685715Y-79921485D01*
X125685715Y-79921485D02*
X125685715Y-79588152D01*
X125685715Y-79588152D02*
X125733334Y-79397676D01*
X125733334Y-79397676D02*
X125828572Y-79302438D01*
X125828572Y-79302438D02*
X125923810Y-79254819D01*
X126780953Y-79873866D02*
X127542858Y-79873866D01*
X127971429Y-79350057D02*
X128019048Y-79302438D01*
X128019048Y-79302438D02*
X128114286Y-79254819D01*
X128114286Y-79254819D02*
X128352381Y-79254819D01*
X128352381Y-79254819D02*
X128447619Y-79302438D01*
X128447619Y-79302438D02*
X128495238Y-79350057D01*
X128495238Y-79350057D02*
X128542857Y-79445295D01*
X128542857Y-79445295D02*
X128542857Y-79540533D01*
X128542857Y-79540533D02*
X128495238Y-79683390D01*
X128495238Y-79683390D02*
X127923810Y-80254819D01*
X127923810Y-80254819D02*
X128542857Y-80254819D01*
X128923810Y-79350057D02*
X128971429Y-79302438D01*
X128971429Y-79302438D02*
X129066667Y-79254819D01*
X129066667Y-79254819D02*
X129304762Y-79254819D01*
X129304762Y-79254819D02*
X129400000Y-79302438D01*
X129400000Y-79302438D02*
X129447619Y-79350057D01*
X129447619Y-79350057D02*
X129495238Y-79445295D01*
X129495238Y-79445295D02*
X129495238Y-79540533D01*
X129495238Y-79540533D02*
X129447619Y-79683390D01*
X129447619Y-79683390D02*
X128876191Y-80254819D01*
X128876191Y-80254819D02*
X129495238Y-80254819D01*
X130114286Y-79254819D02*
X130209524Y-79254819D01*
X130209524Y-79254819D02*
X130304762Y-79302438D01*
X130304762Y-79302438D02*
X130352381Y-79350057D01*
X130352381Y-79350057D02*
X130400000Y-79445295D01*
X130400000Y-79445295D02*
X130447619Y-79635771D01*
X130447619Y-79635771D02*
X130447619Y-79873866D01*
X130447619Y-79873866D02*
X130400000Y-80064342D01*
X130400000Y-80064342D02*
X130352381Y-80159580D01*
X130352381Y-80159580D02*
X130304762Y-80207200D01*
X130304762Y-80207200D02*
X130209524Y-80254819D01*
X130209524Y-80254819D02*
X130114286Y-80254819D01*
X130114286Y-80254819D02*
X130019048Y-80207200D01*
X130019048Y-80207200D02*
X129971429Y-80159580D01*
X129971429Y-80159580D02*
X129923810Y-80064342D01*
X129923810Y-80064342D02*
X129876191Y-79873866D01*
X129876191Y-79873866D02*
X129876191Y-79635771D01*
X129876191Y-79635771D02*
X129923810Y-79445295D01*
X129923810Y-79445295D02*
X129971429Y-79350057D01*
X129971429Y-79350057D02*
X130019048Y-79302438D01*
X130019048Y-79302438D02*
X130114286Y-79254819D01*
X140766666Y-54054819D02*
X140766666Y-54769104D01*
X140766666Y-54769104D02*
X140719047Y-54911961D01*
X140719047Y-54911961D02*
X140623809Y-55007200D01*
X140623809Y-55007200D02*
X140480952Y-55054819D01*
X140480952Y-55054819D02*
X140385714Y-55054819D01*
X141719047Y-54054819D02*
X141242857Y-54054819D01*
X141242857Y-54054819D02*
X141195238Y-54531009D01*
X141195238Y-54531009D02*
X141242857Y-54483390D01*
X141242857Y-54483390D02*
X141338095Y-54435771D01*
X141338095Y-54435771D02*
X141576190Y-54435771D01*
X141576190Y-54435771D02*
X141671428Y-54483390D01*
X141671428Y-54483390D02*
X141719047Y-54531009D01*
X141719047Y-54531009D02*
X141766666Y-54626247D01*
X141766666Y-54626247D02*
X141766666Y-54864342D01*
X141766666Y-54864342D02*
X141719047Y-54959580D01*
X141719047Y-54959580D02*
X141671428Y-55007200D01*
X141671428Y-55007200D02*
X141576190Y-55054819D01*
X141576190Y-55054819D02*
X141338095Y-55054819D01*
X141338095Y-55054819D02*
X141242857Y-55007200D01*
X141242857Y-55007200D02*
X141195238Y-54959580D01*
D11*
%TO.C,J1*%
X134390000Y-68250000D02*
X134390000Y-67200000D01*
X134190000Y-76600000D02*
X132290000Y-76600000D01*
X134190000Y-73900000D02*
X134190000Y-76600000D01*
X134190000Y-67400000D02*
X134190000Y-70000000D01*
X133340000Y-67200000D02*
X134390000Y-67200000D01*
X128290000Y-76600000D02*
X119490000Y-76600000D01*
X119490000Y-76600000D02*
X119490000Y-67400000D01*
X119490000Y-67400000D02*
X134190000Y-67400000D01*
%TO.C,J6*%
X148620000Y-46080000D02*
X150000000Y-46080000D01*
X148620000Y-47460000D02*
X148620000Y-46080000D01*
X148620000Y-48730000D02*
X148620000Y-51380000D01*
X148620000Y-48730000D02*
X151380000Y-48730000D01*
X148620000Y-51380000D02*
X151380000Y-51380000D01*
X151380000Y-48730000D02*
X151380000Y-51380000D01*
%TO.C,R1*%
X136160000Y-64000000D02*
X137110000Y-64000000D01*
X137110000Y-63080000D02*
X137110000Y-64920000D01*
X137110000Y-64920000D02*
X140950000Y-64920000D01*
X140950000Y-63080000D02*
X137110000Y-63080000D01*
X140950000Y-64920000D02*
X140950000Y-63080000D01*
X141900000Y-64000000D02*
X140950000Y-64000000D01*
%TO.C,J2*%
X133460000Y-89760000D02*
X133460000Y-97380000D01*
X133460000Y-97380000D02*
X143620000Y-97380000D01*
X143620000Y-89760000D02*
X133460000Y-89760000D01*
X143620000Y-96110000D02*
X133460000Y-96110000D01*
X143620000Y-97380000D02*
X143620000Y-89760000D01*
%TO.C,J4*%
X122620000Y-95380000D02*
X122620000Y-94000000D01*
X124000000Y-95380000D02*
X122620000Y-95380000D01*
X125270000Y-92620000D02*
X130460000Y-92620000D01*
X125270000Y-95380000D02*
X125270000Y-92620000D01*
X125270000Y-95380000D02*
X130460000Y-95380000D01*
X130460000Y-95380000D02*
X130460000Y-92620000D01*
%TO.C,D1*%
X138955000Y-75830000D02*
X142045000Y-75830000D01*
X138955170Y-75830000D02*
G75*
G02*
X140499952Y-70280000I1544830J2560000D01*
G01*
X140500048Y-70280000D02*
G75*
G02*
X142044830Y-75830000I-48J-2990000D01*
G01*
X143000000Y-73270000D02*
G75*
G02*
X138000000Y-73270000I-2500000J0D01*
G01*
X138000000Y-73270000D02*
G75*
G02*
X143000000Y-73270000I2500000J0D01*
G01*
%TO.C,C1*%
X128515000Y-55080000D02*
X126985000Y-55080000D01*
X128515000Y-56920000D02*
X126985000Y-56920000D01*
%TO.C,J3*%
X148620000Y-91870000D02*
X150000000Y-91870000D01*
X148620000Y-93250000D02*
X148620000Y-91870000D01*
X148620000Y-94520000D02*
X148620000Y-97170000D01*
X148620000Y-94520000D02*
X151380000Y-94520000D01*
X148620000Y-97170000D02*
X151380000Y-97170000D01*
X151380000Y-94520000D02*
X151380000Y-97170000D01*
%TO.C,R3*%
X135805000Y-82000000D02*
X136755000Y-82000000D01*
X136755000Y-81080000D02*
X136755000Y-82920000D01*
X136755000Y-82920000D02*
X140595000Y-82920000D01*
X140595000Y-81080000D02*
X136755000Y-81080000D01*
X140595000Y-82920000D02*
X140595000Y-81080000D01*
X141545000Y-82000000D02*
X140595000Y-82000000D01*
%TO.C,J7*%
X122620000Y-51380000D02*
X122620000Y-50000000D01*
X124000000Y-51380000D02*
X122620000Y-51380000D01*
X125270000Y-48620000D02*
X130460000Y-48620000D01*
X125270000Y-51380000D02*
X125270000Y-48620000D01*
X125270000Y-51380000D02*
X130460000Y-51380000D01*
X130460000Y-51380000D02*
X130460000Y-48620000D01*
%TO.C,C3*%
X123515000Y-55080000D02*
X121985000Y-55080000D01*
X123515000Y-56920000D02*
X121985000Y-56920000D01*
%TO.C,C2*%
X123515000Y-87080000D02*
X121985000Y-87080000D01*
X123515000Y-88920000D02*
X121985000Y-88920000D01*
%TO.C,U2*%
X119420000Y-63270000D02*
X119420000Y-58629000D01*
X122689000Y-63270000D02*
X122689000Y-61760000D01*
X126390000Y-63270000D02*
X126390000Y-61760000D01*
X129660000Y-58629000D02*
X119420000Y-58629000D01*
X129660000Y-61760000D02*
X119420000Y-61760000D01*
X129660000Y-63270000D02*
X119420000Y-63270000D01*
X129660000Y-63270000D02*
X129660000Y-58629000D01*
D12*
%TO.C,S1*%
X131820000Y-56900000D02*
X131820000Y-57400000D01*
X131820000Y-56900000D02*
X132320000Y-56900000D01*
X131820000Y-61100000D02*
X131820000Y-60600000D01*
X131820000Y-61100000D02*
X132320000Y-61100000D01*
X143720000Y-56900000D02*
X143220000Y-56900000D01*
X143720000Y-56900000D02*
X143720000Y-57400000D01*
X143720000Y-61100000D02*
X143220000Y-61100000D01*
X143720000Y-61100000D02*
X143720000Y-60600000D01*
D11*
%TO.C,R2*%
X135805000Y-86000000D02*
X136755000Y-86000000D01*
X136755000Y-85080000D02*
X136755000Y-86920000D01*
X136755000Y-86920000D02*
X140595000Y-86920000D01*
X140595000Y-85080000D02*
X136755000Y-85080000D01*
X140595000Y-86920000D02*
X140595000Y-85080000D01*
X141545000Y-86000000D02*
X140595000Y-86000000D01*
%TO.C,U1*%
X119420000Y-80730000D02*
X119420000Y-85371000D01*
X119420000Y-80730000D02*
X129660000Y-80730000D01*
X119420000Y-82240000D02*
X129660000Y-82240000D01*
X119420000Y-85371000D02*
X129660000Y-85371000D01*
X122690000Y-80730000D02*
X122690000Y-82240000D01*
X126391000Y-80730000D02*
X126391000Y-82240000D01*
X129660000Y-80730000D02*
X129660000Y-85371000D01*
%TO.C,J5*%
X133460000Y-45790000D02*
X133460000Y-53410000D01*
X133460000Y-53410000D02*
X143620000Y-53410000D01*
X143620000Y-45790000D02*
X133460000Y-45790000D01*
X143620000Y-52140000D02*
X133460000Y-52140000D01*
X143620000Y-53410000D02*
X143620000Y-45790000D01*
%TD*%
M02*
