%TF.GenerationSoftware,KiCad,Pcbnew,9.0.1*%
%TF.CreationDate,2025-05-19T12:27:26-03:00*%
%TF.ProjectId,Project_2_Breadboard_Power_Suppy,50726f6a-6563-4745-9f32-5f4272656164,rev?*%
%TF.SameCoordinates,Original*%
%TF.FileFunction,Copper,L2,Bot*%
%TF.FilePolarity,Positive*%
%FSLAX46Y46*%
G04 Gerber Fmt 4.6, Leading zero omitted, Abs format (unit mm)*
G04 Created by KiCad (PCBNEW 9.0.1) date 2025-05-19 12:27:26*
%MOMM*%
%LPD*%
G01*
G04 APERTURE LIST*
G04 Aperture macros list*
%AMRoundRect*
0 Rectangle with rounded corners*
0 $1 Rounding radius*
0 $2 $3 $4 $5 $6 $7 $8 $9 X,Y pos of 4 corners*
0 Add a 4 corners polygon primitive as box body*
4,1,4,$2,$3,$4,$5,$6,$7,$8,$9,$2,$3,0*
0 Add four circle primitives for the rounded corners*
1,1,$1+$1,$2,$3*
1,1,$1+$1,$4,$5*
1,1,$1+$1,$6,$7*
1,1,$1+$1,$8,$9*
0 Add four rect primitives between the rounded corners*
20,1,$1+$1,$2,$3,$4,$5,0*
20,1,$1+$1,$4,$5,$6,$7,0*
20,1,$1+$1,$6,$7,$8,$9,0*
20,1,$1+$1,$8,$9,$2,$3,0*%
G04 Aperture macros list end*
%TA.AperFunction,ComponentPad*%
%ADD10RoundRect,0.875000X-0.875000X-0.875000X0.875000X-0.875000X0.875000X0.875000X-0.875000X0.875000X0*%
%TD*%
%TA.AperFunction,ComponentPad*%
%ADD11RoundRect,0.750000X-0.750000X-1.000000X0.750000X-1.000000X0.750000X1.000000X-0.750000X1.000000X0*%
%TD*%
%TA.AperFunction,ComponentPad*%
%ADD12R,3.500000X3.500000*%
%TD*%
%TA.AperFunction,ComponentPad*%
%ADD13R,1.700000X1.700000*%
%TD*%
%TA.AperFunction,ComponentPad*%
%ADD14C,1.700000*%
%TD*%
%TA.AperFunction,ComponentPad*%
%ADD15C,1.400000*%
%TD*%
%TA.AperFunction,ComponentPad*%
%ADD16O,1.400000X1.400000*%
%TD*%
%TA.AperFunction,ComponentPad*%
%ADD17R,3.000000X3.000000*%
%TD*%
%TA.AperFunction,ComponentPad*%
%ADD18C,3.000000*%
%TD*%
%TA.AperFunction,ComponentPad*%
%ADD19R,1.800000X1.800000*%
%TD*%
%TA.AperFunction,ComponentPad*%
%ADD20C,1.800000*%
%TD*%
%TA.AperFunction,ComponentPad*%
%ADD21C,1.600000*%
%TD*%
%TA.AperFunction,ComponentPad*%
%ADD22R,1.905000X2.000000*%
%TD*%
%TA.AperFunction,ComponentPad*%
%ADD23O,1.905000X2.000000*%
%TD*%
%TA.AperFunction,ComponentPad*%
%ADD24R,1.900000X1.900000*%
%TD*%
%TA.AperFunction,ComponentPad*%
%ADD25C,1.900000*%
%TD*%
%TA.AperFunction,ViaPad*%
%ADD26C,0.800000*%
%TD*%
%TA.AperFunction,Conductor*%
%ADD27C,0.500000*%
%TD*%
G04 APERTURE END LIST*
D10*
%TO.P,J1,3*%
%TO.N,GND*%
X130290000Y-76700000D03*
D11*
%TO.P,J1,2*%
X127290000Y-72000000D03*
D12*
%TO.P,J1,1*%
%TO.N,/PWR_IN*%
X133290000Y-72000000D03*
%TD*%
D13*
%TO.P,J6,1,Pin_1*%
%TO.N,GND*%
X150000000Y-47460000D03*
D14*
%TO.P,J6,2,Pin_2*%
%TO.N,/OUT_2*%
X150000000Y-50000000D03*
%TD*%
D15*
%TO.P,R1,1*%
%TO.N,+12V*%
X135220000Y-64000000D03*
D16*
%TO.P,R1,2*%
%TO.N,/LED_A*%
X142840000Y-64000000D03*
%TD*%
D17*
%TO.P,J2,1,Pin_1*%
%TO.N,GND*%
X136000000Y-93570000D03*
D18*
%TO.P,J2,2,Pin_2*%
%TO.N,/OUT_1*%
X141080000Y-93570000D03*
%TD*%
D13*
%TO.P,J4,1,Pin_1*%
%TO.N,+3.3V*%
X124000000Y-94000000D03*
D14*
%TO.P,J4,2,Pin_2*%
%TO.N,/OUT_1*%
X126540000Y-94000000D03*
%TO.P,J4,3,Pin_3*%
%TO.N,+5V*%
X129080000Y-94000000D03*
%TD*%
D19*
%TO.P,D1,1,K*%
%TO.N,GND*%
X140500000Y-74540000D03*
D20*
%TO.P,D1,2,A*%
%TO.N,/LED_A*%
X140500000Y-72000000D03*
%TD*%
D21*
%TO.P,C1,1*%
%TO.N,+12V*%
X129000000Y-56000000D03*
%TO.P,C1,2*%
%TO.N,GND*%
X126500000Y-56000000D03*
%TD*%
D13*
%TO.P,J3,1,Pin_1*%
%TO.N,GND*%
X150000000Y-93250000D03*
D14*
%TO.P,J3,2,Pin_2*%
%TO.N,/OUT_1*%
X150000000Y-95790000D03*
%TD*%
D15*
%TO.P,R3,1*%
%TO.N,/ADJ*%
X142485000Y-82000000D03*
D16*
%TO.P,R3,2*%
%TO.N,GND*%
X134865000Y-82000000D03*
%TD*%
D13*
%TO.P,J7,1,Pin_1*%
%TO.N,+3.3V*%
X124000000Y-50000000D03*
D14*
%TO.P,J7,2,Pin_2*%
%TO.N,/OUT_2*%
X126540000Y-50000000D03*
%TO.P,J7,3,Pin_3*%
%TO.N,+5V*%
X129080000Y-50000000D03*
%TD*%
D21*
%TO.P,C3,1*%
%TO.N,+5V*%
X124000000Y-56000000D03*
%TO.P,C3,2*%
%TO.N,GND*%
X121500000Y-56000000D03*
%TD*%
%TO.P,C2,1*%
%TO.N,+3.3V*%
X124000000Y-88000000D03*
%TO.P,C2,2*%
%TO.N,GND*%
X121500000Y-88000000D03*
%TD*%
D22*
%TO.P,U2,1,VI*%
%TO.N,+12V*%
X127080000Y-60000000D03*
D23*
%TO.P,U2,2,GND*%
%TO.N,GND*%
X124540000Y-60000000D03*
%TO.P,U2,3,VO*%
%TO.N,+5V*%
X122000000Y-60000000D03*
%TD*%
D24*
%TO.P,S1,1*%
%TO.N,+12V*%
X140120000Y-59000000D03*
D25*
%TO.P,S1,2*%
%TO.N,/PWR_IN*%
X137620000Y-59000000D03*
%TO.P,S1,3*%
%TO.N,unconnected-(S1-Pad3)*%
X135120000Y-59000000D03*
%TD*%
D15*
%TO.P,R2,1*%
%TO.N,+3.3V*%
X134865000Y-86000000D03*
D16*
%TO.P,R2,2*%
%TO.N,/ADJ*%
X142485000Y-86000000D03*
%TD*%
D22*
%TO.P,U1,1,ADJ*%
%TO.N,/ADJ*%
X122000000Y-84000000D03*
D23*
%TO.P,U1,2,VO*%
%TO.N,+3.3V*%
X124540000Y-84000000D03*
%TO.P,U1,3,VI*%
%TO.N,+12V*%
X127080000Y-84000000D03*
%TD*%
D17*
%TO.P,J5,1,Pin_1*%
%TO.N,GND*%
X136000000Y-49600000D03*
D18*
%TO.P,J5,2,Pin_2*%
%TO.N,/OUT_2*%
X141080000Y-49600000D03*
%TD*%
D26*
%TO.N,+12V*%
X128100000Y-86000000D03*
X130000000Y-86000000D03*
%TO.N,+3.3V*%
X128000000Y-87000000D03*
X130000000Y-87000000D03*
%TO.N,/ADJ*%
X130000000Y-90000000D03*
X122900000Y-90000000D03*
%TD*%
D27*
%TO.N,+12V*%
X128100000Y-86000000D02*
X128000000Y-86000000D01*
X130000000Y-86000000D02*
X128100000Y-86000000D01*
%TO.N,+3.3V*%
X130000000Y-87000000D02*
X128000000Y-87000000D01*
%TO.N,/ADJ*%
X123000000Y-90000000D02*
X130000000Y-90000000D01*
%TD*%
%TA.AperFunction,Conductor*%
%TO.N,GND*%
G36*
X151306922Y-45601279D02*
G01*
X151419518Y-45613966D01*
X151446583Y-45620143D01*
X151546927Y-45655255D01*
X151571941Y-45667301D01*
X151661955Y-45723860D01*
X151683662Y-45741172D01*
X151758827Y-45816337D01*
X151776140Y-45838046D01*
X151832697Y-45928056D01*
X151844745Y-45953074D01*
X151879855Y-46053414D01*
X151886033Y-46080484D01*
X151898720Y-46193077D01*
X151899500Y-46206961D01*
X151899500Y-51293038D01*
X151898720Y-51306922D01*
X151886033Y-51419515D01*
X151879855Y-51446585D01*
X151844745Y-51546925D01*
X151832697Y-51571943D01*
X151776140Y-51661953D01*
X151758827Y-51683662D01*
X151683662Y-51758827D01*
X151661953Y-51776140D01*
X151571943Y-51832697D01*
X151546925Y-51844745D01*
X151446585Y-51879855D01*
X151419516Y-51886033D01*
X151334855Y-51895572D01*
X151306921Y-51898720D01*
X151293039Y-51899500D01*
X145357583Y-51899500D01*
X145300000Y-51899500D01*
X145189778Y-51899500D01*
X145117201Y-51910995D01*
X144972047Y-51933985D01*
X144762396Y-52002103D01*
X144762393Y-52002104D01*
X144565974Y-52102187D01*
X144387641Y-52231752D01*
X144387636Y-52231756D01*
X144231756Y-52387636D01*
X144231752Y-52387641D01*
X144102187Y-52565974D01*
X144002104Y-52762393D01*
X144002103Y-52762396D01*
X143933985Y-52972047D01*
X143899500Y-53189778D01*
X143899500Y-63062375D01*
X143879815Y-63129414D01*
X143827011Y-63175169D01*
X143757853Y-63185113D01*
X143694297Y-63156088D01*
X143687819Y-63150056D01*
X143622075Y-63084312D01*
X143622073Y-63084310D01*
X143469199Y-62973240D01*
X143300836Y-62887454D01*
X143121118Y-62829059D01*
X142934486Y-62799500D01*
X142934481Y-62799500D01*
X142745519Y-62799500D01*
X142745514Y-62799500D01*
X142558881Y-62829059D01*
X142379163Y-62887454D01*
X142210800Y-62973240D01*
X142123579Y-63036610D01*
X142057927Y-63084310D01*
X142057925Y-63084312D01*
X142057924Y-63084312D01*
X141924312Y-63217924D01*
X141924312Y-63217925D01*
X141924310Y-63217927D01*
X141876610Y-63283579D01*
X141813240Y-63370800D01*
X141727454Y-63539163D01*
X141669059Y-63718881D01*
X141639500Y-63905513D01*
X141639500Y-64094486D01*
X141669059Y-64281118D01*
X141727454Y-64460836D01*
X141813240Y-64629199D01*
X141924310Y-64782073D01*
X142057927Y-64915690D01*
X142210801Y-65026760D01*
X142290347Y-65067290D01*
X142379163Y-65112545D01*
X142379165Y-65112545D01*
X142379168Y-65112547D01*
X142475497Y-65143846D01*
X142558881Y-65170940D01*
X142745514Y-65200500D01*
X142745519Y-65200500D01*
X142934486Y-65200500D01*
X143121118Y-65170940D01*
X143300832Y-65112547D01*
X143469199Y-65026760D01*
X143622073Y-64915690D01*
X143687819Y-64849944D01*
X143749142Y-64816459D01*
X143818834Y-64821443D01*
X143874767Y-64863315D01*
X143899184Y-64928779D01*
X143899500Y-64937625D01*
X143899500Y-81685709D01*
X143879815Y-81752748D01*
X143827011Y-81798503D01*
X143757853Y-81808447D01*
X143694297Y-81779422D01*
X143658209Y-81723267D01*
X143657446Y-81723516D01*
X143597545Y-81539163D01*
X143511759Y-81370800D01*
X143400690Y-81217927D01*
X143267073Y-81084310D01*
X143114199Y-80973240D01*
X142945836Y-80887454D01*
X142766118Y-80829059D01*
X142579486Y-80799500D01*
X142579481Y-80799500D01*
X142390519Y-80799500D01*
X142390514Y-80799500D01*
X142203881Y-80829059D01*
X142024163Y-80887454D01*
X141855800Y-80973240D01*
X141768579Y-81036610D01*
X141702927Y-81084310D01*
X141702925Y-81084312D01*
X141702924Y-81084312D01*
X141569312Y-81217924D01*
X141569312Y-81217925D01*
X141569310Y-81217927D01*
X141569070Y-81218258D01*
X141458240Y-81370800D01*
X141372454Y-81539163D01*
X141314059Y-81718881D01*
X141284500Y-81905513D01*
X141284500Y-82094486D01*
X141314059Y-82281118D01*
X141372454Y-82460836D01*
X141421046Y-82556202D01*
X141458240Y-82629199D01*
X141569310Y-82782073D01*
X141702927Y-82915690D01*
X141855801Y-83026760D01*
X141935347Y-83067290D01*
X142024163Y-83112545D01*
X142024165Y-83112545D01*
X142024168Y-83112547D01*
X142105834Y-83139082D01*
X142203881Y-83170940D01*
X142390514Y-83200500D01*
X142390519Y-83200500D01*
X142579486Y-83200500D01*
X142766118Y-83170940D01*
X142767623Y-83170451D01*
X142945832Y-83112547D01*
X143114199Y-83026760D01*
X143267073Y-82915690D01*
X143400690Y-82782073D01*
X143511760Y-82629199D01*
X143597547Y-82460832D01*
X143655940Y-82281118D01*
X143657446Y-82276484D01*
X143659616Y-82277189D01*
X143689690Y-82224776D01*
X143751707Y-82192594D01*
X143821278Y-82199049D01*
X143876315Y-82242093D01*
X143899343Y-82308058D01*
X143899500Y-82314290D01*
X143899500Y-85685709D01*
X143879815Y-85752748D01*
X143827011Y-85798503D01*
X143757853Y-85808447D01*
X143694297Y-85779422D01*
X143658209Y-85723267D01*
X143657446Y-85723516D01*
X143608687Y-85573453D01*
X143597547Y-85539168D01*
X143597545Y-85539165D01*
X143597545Y-85539163D01*
X143511759Y-85370800D01*
X143502130Y-85357547D01*
X143400690Y-85217927D01*
X143267073Y-85084310D01*
X143114199Y-84973240D01*
X142945836Y-84887454D01*
X142766118Y-84829059D01*
X142579486Y-84799500D01*
X142579481Y-84799500D01*
X142390519Y-84799500D01*
X142390514Y-84799500D01*
X142203881Y-84829059D01*
X142024163Y-84887454D01*
X141855800Y-84973240D01*
X141797840Y-85015351D01*
X141702927Y-85084310D01*
X141702925Y-85084312D01*
X141702924Y-85084312D01*
X141569312Y-85217924D01*
X141569312Y-85217925D01*
X141569310Y-85217927D01*
X141546371Y-85249500D01*
X141458240Y-85370800D01*
X141372454Y-85539163D01*
X141314059Y-85718881D01*
X141284500Y-85905513D01*
X141284500Y-86094486D01*
X141314059Y-86281118D01*
X141372454Y-86460836D01*
X141429836Y-86573453D01*
X141458240Y-86629199D01*
X141569310Y-86782073D01*
X141702927Y-86915690D01*
X141855801Y-87026760D01*
X141935347Y-87067290D01*
X142024163Y-87112545D01*
X142024165Y-87112545D01*
X142024168Y-87112547D01*
X142120497Y-87143846D01*
X142203881Y-87170940D01*
X142390514Y-87200500D01*
X142390519Y-87200500D01*
X142579486Y-87200500D01*
X142766118Y-87170940D01*
X142945832Y-87112547D01*
X143114199Y-87026760D01*
X143267073Y-86915690D01*
X143400690Y-86782073D01*
X143511760Y-86629199D01*
X143597547Y-86460832D01*
X143655940Y-86281118D01*
X143657446Y-86276484D01*
X143659616Y-86277189D01*
X143689690Y-86224776D01*
X143751707Y-86192594D01*
X143821278Y-86199049D01*
X143876315Y-86242093D01*
X143899343Y-86308058D01*
X143899500Y-86314290D01*
X143899500Y-90110221D01*
X143933985Y-90327952D01*
X144002103Y-90537603D01*
X144002104Y-90537606D01*
X144051213Y-90633985D01*
X144085922Y-90702105D01*
X144102187Y-90734025D01*
X144231752Y-90912358D01*
X144231756Y-90912363D01*
X144387636Y-91068243D01*
X144387641Y-91068247D01*
X144414327Y-91087635D01*
X144565978Y-91197815D01*
X144694375Y-91263237D01*
X144762393Y-91297895D01*
X144762396Y-91297896D01*
X144867221Y-91331955D01*
X144972049Y-91366015D01*
X145189778Y-91400500D01*
X145247273Y-91400500D01*
X151242417Y-91400500D01*
X151293039Y-91400500D01*
X151306922Y-91401279D01*
X151419518Y-91413966D01*
X151446583Y-91420143D01*
X151546927Y-91455255D01*
X151571941Y-91467301D01*
X151661955Y-91523860D01*
X151683662Y-91541172D01*
X151758827Y-91616337D01*
X151776140Y-91638046D01*
X151832697Y-91728056D01*
X151844745Y-91753074D01*
X151879855Y-91853414D01*
X151886033Y-91880484D01*
X151898720Y-91993077D01*
X151899500Y-92006961D01*
X151899500Y-92057583D01*
X151899524Y-97093039D01*
X151898744Y-97106921D01*
X151898744Y-97106923D01*
X151886058Y-97219522D01*
X151879879Y-97246594D01*
X151844767Y-97346937D01*
X151832720Y-97371954D01*
X151776161Y-97461968D01*
X151758848Y-97483677D01*
X151683677Y-97558848D01*
X151661967Y-97576161D01*
X151571991Y-97632697D01*
X151571954Y-97632720D01*
X151546937Y-97644767D01*
X151446594Y-97679879D01*
X151419523Y-97686058D01*
X151339696Y-97695052D01*
X151306921Y-97698745D01*
X151293040Y-97699525D01*
X120066588Y-97699525D01*
X120057655Y-97699521D01*
X120057583Y-97699500D01*
X120006909Y-97699500D01*
X120006896Y-97699496D01*
X119993077Y-97698720D01*
X119880484Y-97686033D01*
X119853414Y-97679855D01*
X119753074Y-97644745D01*
X119728056Y-97632697D01*
X119638046Y-97576140D01*
X119616337Y-97558827D01*
X119541172Y-97483662D01*
X119523859Y-97461953D01*
X119467302Y-97371943D01*
X119455254Y-97346925D01*
X119420144Y-97246585D01*
X119413966Y-97219514D01*
X119412919Y-97210224D01*
X119405063Y-97140500D01*
X119401280Y-97106921D01*
X119400500Y-97093038D01*
X119400500Y-95683713D01*
X148649500Y-95683713D01*
X148649500Y-95896286D01*
X148682753Y-96106239D01*
X148748444Y-96308414D01*
X148844951Y-96497820D01*
X148969890Y-96669786D01*
X149120213Y-96820109D01*
X149292179Y-96945048D01*
X149292181Y-96945049D01*
X149292184Y-96945051D01*
X149481588Y-97041557D01*
X149683757Y-97107246D01*
X149893713Y-97140500D01*
X149893714Y-97140500D01*
X150106286Y-97140500D01*
X150106287Y-97140500D01*
X150316243Y-97107246D01*
X150518412Y-97041557D01*
X150707816Y-96945051D01*
X150729789Y-96929086D01*
X150879786Y-96820109D01*
X150879788Y-96820106D01*
X150879792Y-96820104D01*
X151030104Y-96669792D01*
X151030106Y-96669788D01*
X151030109Y-96669786D01*
X151155048Y-96497820D01*
X151155047Y-96497820D01*
X151155051Y-96497816D01*
X151251557Y-96308412D01*
X151317246Y-96106243D01*
X151350500Y-95896287D01*
X151350500Y-95683713D01*
X151317246Y-95473757D01*
X151251557Y-95271588D01*
X151155051Y-95082184D01*
X151155049Y-95082181D01*
X151155048Y-95082179D01*
X151030109Y-94910213D01*
X150916181Y-94796285D01*
X150882696Y-94734962D01*
X150887680Y-94665270D01*
X150929552Y-94609337D01*
X150960529Y-94592422D01*
X151092086Y-94543354D01*
X151092093Y-94543350D01*
X151207187Y-94457190D01*
X151207190Y-94457187D01*
X151293350Y-94342093D01*
X151293354Y-94342086D01*
X151343596Y-94207379D01*
X151343598Y-94207372D01*
X151349999Y-94147844D01*
X151350000Y-94147827D01*
X151350000Y-93500000D01*
X150433012Y-93500000D01*
X150465925Y-93442993D01*
X150500000Y-93315826D01*
X150500000Y-93184174D01*
X150465925Y-93057007D01*
X150433012Y-93000000D01*
X151350000Y-93000000D01*
X151350000Y-92352172D01*
X151349999Y-92352155D01*
X151343598Y-92292627D01*
X151343596Y-92292620D01*
X151293354Y-92157913D01*
X151293350Y-92157906D01*
X151207190Y-92042812D01*
X151207187Y-92042809D01*
X151092093Y-91956649D01*
X151092086Y-91956645D01*
X150957379Y-91906403D01*
X150957372Y-91906401D01*
X150897844Y-91900000D01*
X150250000Y-91900000D01*
X150250000Y-92816988D01*
X150192993Y-92784075D01*
X150065826Y-92750000D01*
X149934174Y-92750000D01*
X149807007Y-92784075D01*
X149750000Y-92816988D01*
X149750000Y-91900000D01*
X149102155Y-91900000D01*
X149042627Y-91906401D01*
X149042620Y-91906403D01*
X148907913Y-91956645D01*
X148907906Y-91956649D01*
X148792812Y-92042809D01*
X148792809Y-92042812D01*
X148706649Y-92157906D01*
X148706645Y-92157913D01*
X148656403Y-92292620D01*
X148656401Y-92292627D01*
X148650000Y-92352155D01*
X148650000Y-93000000D01*
X149566988Y-93000000D01*
X149534075Y-93057007D01*
X149500000Y-93184174D01*
X149500000Y-93315826D01*
X149534075Y-93442993D01*
X149566988Y-93500000D01*
X148650000Y-93500000D01*
X148650000Y-94147844D01*
X148656401Y-94207372D01*
X148656403Y-94207379D01*
X148706645Y-94342086D01*
X148706649Y-94342093D01*
X148792809Y-94457187D01*
X148792812Y-94457190D01*
X148907906Y-94543350D01*
X148907913Y-94543354D01*
X149039470Y-94592422D01*
X149095404Y-94634293D01*
X149119821Y-94699758D01*
X149104969Y-94768031D01*
X149083819Y-94796285D01*
X148969889Y-94910215D01*
X148844951Y-95082179D01*
X148748444Y-95271585D01*
X148682753Y-95473760D01*
X148649500Y-95683713D01*
X119400500Y-95683713D01*
X119400500Y-93102135D01*
X122649500Y-93102135D01*
X122649500Y-94897870D01*
X122649501Y-94897876D01*
X122655908Y-94957483D01*
X122706202Y-95092328D01*
X122706206Y-95092335D01*
X122792452Y-95207544D01*
X122792455Y-95207547D01*
X122907664Y-95293793D01*
X122907671Y-95293797D01*
X123042517Y-95344091D01*
X123042516Y-95344091D01*
X123049444Y-95344835D01*
X123102127Y-95350500D01*
X124897872Y-95350499D01*
X124957483Y-95344091D01*
X125092331Y-95293796D01*
X125207546Y-95207546D01*
X125293796Y-95092331D01*
X125342810Y-94960916D01*
X125384681Y-94904984D01*
X125450145Y-94880566D01*
X125518418Y-94895417D01*
X125546673Y-94916569D01*
X125660213Y-95030109D01*
X125832179Y-95155048D01*
X125832181Y-95155049D01*
X125832184Y-95155051D01*
X126021588Y-95251557D01*
X126223757Y-95317246D01*
X126433713Y-95350500D01*
X126433714Y-95350500D01*
X126646286Y-95350500D01*
X126646287Y-95350500D01*
X126856243Y-95317246D01*
X127058412Y-95251557D01*
X127247816Y-95155051D01*
X127269789Y-95139086D01*
X127419786Y-95030109D01*
X127419788Y-95030106D01*
X127419792Y-95030104D01*
X127570104Y-94879792D01*
X127570106Y-94879788D01*
X127570109Y-94879786D01*
X127695048Y-94707820D01*
X127695047Y-94707820D01*
X127695051Y-94707816D01*
X127699514Y-94699054D01*
X127747488Y-94648259D01*
X127815308Y-94631463D01*
X127881444Y-94653999D01*
X127920484Y-94699054D01*
X127924591Y-94707115D01*
X127924951Y-94707820D01*
X128049890Y-94879786D01*
X128200213Y-95030109D01*
X128372179Y-95155048D01*
X128372181Y-95155049D01*
X128372184Y-95155051D01*
X128561588Y-95251557D01*
X128763757Y-95317246D01*
X128973713Y-95350500D01*
X128973714Y-95350500D01*
X129186286Y-95350500D01*
X129186287Y-95350500D01*
X129396243Y-95317246D01*
X129598412Y-95251557D01*
X129787816Y-95155051D01*
X129809789Y-95139086D01*
X129959786Y-95030109D01*
X129959788Y-95030106D01*
X129959792Y-95030104D01*
X130110104Y-94879792D01*
X130110106Y-94879788D01*
X130110109Y-94879786D01*
X130235048Y-94707820D01*
X130235047Y-94707820D01*
X130235051Y-94707816D01*
X130331557Y-94518412D01*
X130397246Y-94316243D01*
X130430500Y-94106287D01*
X130430500Y-93893713D01*
X130397246Y-93683757D01*
X130331557Y-93481588D01*
X130235051Y-93292184D01*
X130235049Y-93292181D01*
X130235048Y-93292179D01*
X130110109Y-93120213D01*
X129959786Y-92969890D01*
X129787820Y-92844951D01*
X129598414Y-92748444D01*
X129598413Y-92748443D01*
X129598412Y-92748443D01*
X129396243Y-92682754D01*
X129396241Y-92682753D01*
X129396240Y-92682753D01*
X129234957Y-92657208D01*
X129186287Y-92649500D01*
X128973713Y-92649500D01*
X128925042Y-92657208D01*
X128763760Y-92682753D01*
X128561585Y-92748444D01*
X128372179Y-92844951D01*
X128200213Y-92969890D01*
X128049890Y-93120213D01*
X127924949Y-93292182D01*
X127920484Y-93300946D01*
X127872509Y-93351742D01*
X127804688Y-93368536D01*
X127738553Y-93345998D01*
X127699516Y-93300946D01*
X127695050Y-93292182D01*
X127570109Y-93120213D01*
X127419786Y-92969890D01*
X127247820Y-92844951D01*
X127058414Y-92748444D01*
X127058413Y-92748443D01*
X127058412Y-92748443D01*
X126856243Y-92682754D01*
X126856241Y-92682753D01*
X126856240Y-92682753D01*
X126694957Y-92657208D01*
X126646287Y-92649500D01*
X126433713Y-92649500D01*
X126385042Y-92657208D01*
X126223760Y-92682753D01*
X126021585Y-92748444D01*
X125832179Y-92844951D01*
X125660215Y-92969889D01*
X125546673Y-93083431D01*
X125485350Y-93116915D01*
X125415658Y-93111931D01*
X125359725Y-93070059D01*
X125342810Y-93039082D01*
X125293797Y-92907671D01*
X125293793Y-92907664D01*
X125207547Y-92792455D01*
X125207544Y-92792452D01*
X125092335Y-92706206D01*
X125092328Y-92706202D01*
X124957482Y-92655908D01*
X124957483Y-92655908D01*
X124897883Y-92649501D01*
X124897881Y-92649500D01*
X124897873Y-92649500D01*
X124897864Y-92649500D01*
X123102129Y-92649500D01*
X123102123Y-92649501D01*
X123042516Y-92655908D01*
X122907671Y-92706202D01*
X122907664Y-92706206D01*
X122792455Y-92792452D01*
X122792452Y-92792455D01*
X122706206Y-92907664D01*
X122706202Y-92907671D01*
X122655908Y-93042517D01*
X122649501Y-93102116D01*
X122649500Y-93102135D01*
X119400500Y-93102135D01*
X119400500Y-92022155D01*
X134000000Y-92022155D01*
X134000000Y-93320000D01*
X135280936Y-93320000D01*
X135269207Y-93348316D01*
X135240000Y-93495147D01*
X135240000Y-93644853D01*
X135269207Y-93791684D01*
X135280936Y-93820000D01*
X134000000Y-93820000D01*
X134000000Y-95117844D01*
X134006401Y-95177372D01*
X134006403Y-95177379D01*
X134056645Y-95312086D01*
X134056649Y-95312093D01*
X134142809Y-95427187D01*
X134142812Y-95427190D01*
X134257906Y-95513350D01*
X134257913Y-95513354D01*
X134392620Y-95563596D01*
X134392627Y-95563598D01*
X134452155Y-95569999D01*
X134452172Y-95570000D01*
X135750000Y-95570000D01*
X135750000Y-94289064D01*
X135778316Y-94300793D01*
X135925147Y-94330000D01*
X136074853Y-94330000D01*
X136221684Y-94300793D01*
X136250000Y-94289064D01*
X136250000Y-95570000D01*
X137547828Y-95570000D01*
X137547844Y-95569999D01*
X137607372Y-95563598D01*
X137607379Y-95563596D01*
X137742086Y-95513354D01*
X137742093Y-95513350D01*
X137857187Y-95427190D01*
X137857190Y-95427187D01*
X137943350Y-95312093D01*
X137943354Y-95312086D01*
X137993596Y-95177379D01*
X137993598Y-95177372D01*
X137999999Y-95117844D01*
X138000000Y-95117827D01*
X138000000Y-93820000D01*
X136719064Y-93820000D01*
X136730793Y-93791684D01*
X136760000Y-93644853D01*
X136760000Y-93495147D01*
X136748806Y-93438872D01*
X139079500Y-93438872D01*
X139079500Y-93701127D01*
X139091423Y-93791684D01*
X139113730Y-93961116D01*
X139167109Y-94160330D01*
X139181602Y-94214418D01*
X139181605Y-94214428D01*
X139281953Y-94456690D01*
X139281958Y-94456700D01*
X139413075Y-94683803D01*
X139572718Y-94891851D01*
X139572726Y-94891860D01*
X139758140Y-95077274D01*
X139758148Y-95077281D01*
X139758149Y-95077282D01*
X139777757Y-95092328D01*
X139966196Y-95236924D01*
X140193299Y-95368041D01*
X140193309Y-95368046D01*
X140336096Y-95427190D01*
X140435581Y-95468398D01*
X140688884Y-95536270D01*
X140937188Y-95568960D01*
X140945074Y-95569999D01*
X140948880Y-95570500D01*
X140948887Y-95570500D01*
X141211113Y-95570500D01*
X141211120Y-95570500D01*
X141471116Y-95536270D01*
X141724419Y-95468398D01*
X141966697Y-95368043D01*
X142193803Y-95236924D01*
X142401851Y-95077282D01*
X142401855Y-95077277D01*
X142401860Y-95077274D01*
X142587274Y-94891860D01*
X142587277Y-94891855D01*
X142587282Y-94891851D01*
X142746924Y-94683803D01*
X142878043Y-94456697D01*
X142978398Y-94214419D01*
X143046270Y-93961116D01*
X143080500Y-93701120D01*
X143080500Y-93438880D01*
X143046270Y-93178884D01*
X142978398Y-92925581D01*
X142978394Y-92925571D01*
X142878046Y-92683309D01*
X142878041Y-92683299D01*
X142746927Y-92456201D01*
X142746923Y-92456196D01*
X142587282Y-92248149D01*
X142587281Y-92248148D01*
X142587274Y-92248140D01*
X142401860Y-92062726D01*
X142401851Y-92062718D01*
X142193803Y-91903075D01*
X141966700Y-91771958D01*
X141966690Y-91771953D01*
X141724428Y-91671605D01*
X141724421Y-91671603D01*
X141724419Y-91671602D01*
X141471116Y-91603730D01*
X141413339Y-91596123D01*
X141211127Y-91569500D01*
X141211120Y-91569500D01*
X140948880Y-91569500D01*
X140948872Y-91569500D01*
X140717772Y-91599926D01*
X140688884Y-91603730D01*
X140435581Y-91671602D01*
X140435571Y-91671605D01*
X140193309Y-91771953D01*
X140193299Y-91771958D01*
X139966196Y-91903075D01*
X139758148Y-92062718D01*
X139572718Y-92248148D01*
X139413075Y-92456196D01*
X139281958Y-92683299D01*
X139281953Y-92683309D01*
X139181605Y-92925571D01*
X139181602Y-92925581D01*
X139130335Y-93116915D01*
X139113730Y-93178885D01*
X139079500Y-93438872D01*
X136748806Y-93438872D01*
X136730793Y-93348316D01*
X136719064Y-93320000D01*
X138000000Y-93320000D01*
X138000000Y-92022172D01*
X137999999Y-92022155D01*
X137993598Y-91962627D01*
X137993596Y-91962620D01*
X137943354Y-91827913D01*
X137943350Y-91827906D01*
X137857190Y-91712812D01*
X137857187Y-91712809D01*
X137742093Y-91626649D01*
X137742086Y-91626645D01*
X137607379Y-91576403D01*
X137607372Y-91576401D01*
X137547844Y-91570000D01*
X136250000Y-91570000D01*
X136250000Y-92850935D01*
X136221684Y-92839207D01*
X136074853Y-92810000D01*
X135925147Y-92810000D01*
X135778316Y-92839207D01*
X135750000Y-92850935D01*
X135750000Y-91570000D01*
X134452155Y-91570000D01*
X134392627Y-91576401D01*
X134392620Y-91576403D01*
X134257913Y-91626645D01*
X134257906Y-91626649D01*
X134142812Y-91712809D01*
X134142809Y-91712812D01*
X134056649Y-91827906D01*
X134056645Y-91827913D01*
X134006403Y-91962620D01*
X134006401Y-91962627D01*
X134000000Y-92022155D01*
X119400500Y-92022155D01*
X119400500Y-87897682D01*
X120200000Y-87897682D01*
X120200000Y-88102317D01*
X120232009Y-88304417D01*
X120295244Y-88499031D01*
X120388141Y-88681350D01*
X120388147Y-88681359D01*
X120420523Y-88725921D01*
X120420524Y-88725922D01*
X121100000Y-88046446D01*
X121100000Y-88052661D01*
X121127259Y-88154394D01*
X121179920Y-88245606D01*
X121254394Y-88320080D01*
X121345606Y-88372741D01*
X121447339Y-88400000D01*
X121453553Y-88400000D01*
X120774076Y-89079474D01*
X120818650Y-89111859D01*
X121000968Y-89204755D01*
X121195582Y-89267990D01*
X121397683Y-89300000D01*
X121602317Y-89300000D01*
X121804417Y-89267990D01*
X121999031Y-89204755D01*
X122154120Y-89125732D01*
X122221967Y-89075520D01*
X121546447Y-88400000D01*
X121552661Y-88400000D01*
X121654394Y-88372741D01*
X121745606Y-88320080D01*
X121820080Y-88245606D01*
X121872741Y-88154394D01*
X121900000Y-88052661D01*
X121900000Y-88046448D01*
X122579474Y-88725922D01*
X122579474Y-88725921D01*
X122611859Y-88681349D01*
X122639233Y-88627624D01*
X122687207Y-88576827D01*
X122755028Y-88560031D01*
X122821163Y-88582567D01*
X122860203Y-88627621D01*
X122887713Y-88681611D01*
X123008028Y-88847213D01*
X123048634Y-88887819D01*
X123082119Y-88949142D01*
X123077135Y-89018834D01*
X123035263Y-89074767D01*
X122969799Y-89099184D01*
X122960953Y-89099500D01*
X122811306Y-89099500D01*
X122637341Y-89134103D01*
X122637332Y-89134106D01*
X122473459Y-89201983D01*
X122473441Y-89201993D01*
X122417055Y-89239669D01*
X122417024Y-89239691D01*
X122325965Y-89300536D01*
X122300777Y-89325723D01*
X122300770Y-89325729D01*
X122200535Y-89425965D01*
X122101990Y-89573446D01*
X122101983Y-89573459D01*
X122034106Y-89737332D01*
X122034103Y-89737341D01*
X121999500Y-89911304D01*
X121999500Y-90088695D01*
X122034103Y-90262658D01*
X122034106Y-90262667D01*
X122101983Y-90426540D01*
X122101990Y-90426553D01*
X122200535Y-90574034D01*
X122200538Y-90574038D01*
X122325961Y-90699461D01*
X122325965Y-90699464D01*
X122473446Y-90798009D01*
X122473459Y-90798016D01*
X122596363Y-90848923D01*
X122637334Y-90865894D01*
X122637336Y-90865894D01*
X122637341Y-90865896D01*
X122811304Y-90900499D01*
X122811307Y-90900500D01*
X122811309Y-90900500D01*
X122988693Y-90900500D01*
X122988694Y-90900499D01*
X123046682Y-90888964D01*
X123162658Y-90865896D01*
X123162661Y-90865894D01*
X123162666Y-90865894D01*
X123326547Y-90798013D01*
X123326550Y-90798010D01*
X123326552Y-90798010D01*
X123366378Y-90771399D01*
X123433055Y-90750520D01*
X123435270Y-90750500D01*
X129464730Y-90750500D01*
X129531769Y-90770185D01*
X129533622Y-90771399D01*
X129573447Y-90798010D01*
X129573450Y-90798011D01*
X129573453Y-90798013D01*
X129737334Y-90865894D01*
X129737336Y-90865894D01*
X129737341Y-90865896D01*
X129911304Y-90900499D01*
X129911307Y-90900500D01*
X129911309Y-90900500D01*
X130088693Y-90900500D01*
X130088694Y-90900499D01*
X130146682Y-90888964D01*
X130262658Y-90865896D01*
X130262661Y-90865894D01*
X130262666Y-90865894D01*
X130426547Y-90798013D01*
X130574035Y-90699464D01*
X130699464Y-90574035D01*
X130798013Y-90426547D01*
X130865894Y-90262666D01*
X130900500Y-90088691D01*
X130900500Y-89911309D01*
X130900500Y-89911306D01*
X130900499Y-89911304D01*
X130865896Y-89737341D01*
X130865893Y-89737332D01*
X130798016Y-89573459D01*
X130798009Y-89573446D01*
X130699464Y-89425965D01*
X130699461Y-89425961D01*
X130574038Y-89300538D01*
X130574034Y-89300535D01*
X130426553Y-89201990D01*
X130426540Y-89201983D01*
X130262667Y-89134106D01*
X130262658Y-89134103D01*
X130088694Y-89099500D01*
X130088691Y-89099500D01*
X129911309Y-89099500D01*
X129911306Y-89099500D01*
X129737341Y-89134103D01*
X129737332Y-89134106D01*
X129573452Y-89201987D01*
X129573447Y-89201989D01*
X129533622Y-89228601D01*
X129466945Y-89249480D01*
X129464730Y-89249500D01*
X124874387Y-89249500D01*
X124807348Y-89229815D01*
X124761593Y-89177011D01*
X124751649Y-89107853D01*
X124780674Y-89044297D01*
X124801502Y-89025182D01*
X124847213Y-88991971D01*
X124847215Y-88991968D01*
X124847219Y-88991966D01*
X124991966Y-88847219D01*
X124991968Y-88847215D01*
X124991971Y-88847213D01*
X125044732Y-88774590D01*
X125112287Y-88681610D01*
X125205220Y-88499219D01*
X125268477Y-88304534D01*
X125300500Y-88102352D01*
X125300500Y-87897648D01*
X125284719Y-87798010D01*
X125268477Y-87695465D01*
X125229021Y-87574034D01*
X125205220Y-87500781D01*
X125205218Y-87500778D01*
X125205218Y-87500776D01*
X125162750Y-87417429D01*
X125112287Y-87318390D01*
X125080092Y-87274077D01*
X124991971Y-87152786D01*
X124847213Y-87008028D01*
X124681613Y-86887715D01*
X124681612Y-86887714D01*
X124681610Y-86887713D01*
X124624653Y-86858691D01*
X124499223Y-86794781D01*
X124304534Y-86731522D01*
X124129995Y-86703878D01*
X124102352Y-86699500D01*
X123897648Y-86699500D01*
X123873329Y-86703351D01*
X123695465Y-86731522D01*
X123500776Y-86794781D01*
X123318386Y-86887715D01*
X123152786Y-87008028D01*
X123008028Y-87152786D01*
X122887714Y-87318386D01*
X122860203Y-87372379D01*
X122812227Y-87423174D01*
X122744406Y-87439968D01*
X122678272Y-87417429D01*
X122639234Y-87372376D01*
X122611861Y-87318652D01*
X122579474Y-87274077D01*
X122579474Y-87274076D01*
X121900000Y-87953551D01*
X121900000Y-87947339D01*
X121872741Y-87845606D01*
X121820080Y-87754394D01*
X121745606Y-87679920D01*
X121654394Y-87627259D01*
X121552661Y-87600000D01*
X121546446Y-87600000D01*
X122225922Y-86920524D01*
X122225921Y-86920523D01*
X122181359Y-86888147D01*
X122181350Y-86888141D01*
X121999031Y-86795244D01*
X121804417Y-86732009D01*
X121602317Y-86700000D01*
X121397683Y-86700000D01*
X121195582Y-86732009D01*
X121000968Y-86795244D01*
X120818644Y-86888143D01*
X120774077Y-86920523D01*
X120774077Y-86920524D01*
X121453554Y-87600000D01*
X121447339Y-87600000D01*
X121345606Y-87627259D01*
X121254394Y-87679920D01*
X121179920Y-87754394D01*
X121127259Y-87845606D01*
X121100000Y-87947339D01*
X121100000Y-87953553D01*
X120420524Y-87274077D01*
X120420523Y-87274077D01*
X120388143Y-87318644D01*
X120295244Y-87500968D01*
X120232009Y-87695582D01*
X120200000Y-87897682D01*
X119400500Y-87897682D01*
X119400500Y-82952135D01*
X120547000Y-82952135D01*
X120547000Y-85047870D01*
X120547001Y-85047876D01*
X120553408Y-85107483D01*
X120603702Y-85242328D01*
X120603706Y-85242335D01*
X120689952Y-85357544D01*
X120689955Y-85357547D01*
X120805164Y-85443793D01*
X120805171Y-85443797D01*
X120940017Y-85494091D01*
X120940016Y-85494091D01*
X120946944Y-85494835D01*
X120999627Y-85500500D01*
X123000372Y-85500499D01*
X123059983Y-85494091D01*
X123194831Y-85443796D01*
X123310046Y-85357546D01*
X123396296Y-85242331D01*
X123406690Y-85214460D01*
X123448560Y-85158527D01*
X123514023Y-85134108D01*
X123582297Y-85148958D01*
X123595746Y-85157465D01*
X123778462Y-85290217D01*
X123910599Y-85357544D01*
X123982244Y-85394049D01*
X124199751Y-85464721D01*
X124199752Y-85464721D01*
X124199755Y-85464722D01*
X124425646Y-85500500D01*
X124425647Y-85500500D01*
X124654353Y-85500500D01*
X124654354Y-85500500D01*
X124880245Y-85464722D01*
X124880248Y-85464721D01*
X124880249Y-85464721D01*
X125097755Y-85394049D01*
X125097755Y-85394048D01*
X125097758Y-85394048D01*
X125301538Y-85290217D01*
X125486566Y-85155786D01*
X125648286Y-84994066D01*
X125709683Y-84909559D01*
X125765012Y-84866896D01*
X125834625Y-84860917D01*
X125896420Y-84893523D01*
X125910314Y-84909556D01*
X125971714Y-84994066D01*
X126133434Y-85155786D01*
X126318462Y-85290217D01*
X126450599Y-85357544D01*
X126522244Y-85394049D01*
X126739751Y-85464721D01*
X126739752Y-85464721D01*
X126739755Y-85464722D01*
X126965646Y-85500500D01*
X126965647Y-85500500D01*
X127146627Y-85500500D01*
X127213666Y-85520185D01*
X127259421Y-85572989D01*
X127269365Y-85642147D01*
X127261188Y-85671952D01*
X127234106Y-85737332D01*
X127234103Y-85737341D01*
X127199500Y-85911304D01*
X127199500Y-86088695D01*
X127234103Y-86262658D01*
X127234105Y-86262662D01*
X127234106Y-86262666D01*
X127239830Y-86276484D01*
X127275919Y-86363613D01*
X127283387Y-86433082D01*
X127264460Y-86479954D01*
X127201989Y-86573448D01*
X127201983Y-86573459D01*
X127134106Y-86737332D01*
X127134103Y-86737341D01*
X127099500Y-86911304D01*
X127099500Y-87088695D01*
X127134103Y-87262658D01*
X127134106Y-87262667D01*
X127201983Y-87426540D01*
X127201990Y-87426553D01*
X127300535Y-87574034D01*
X127300538Y-87574038D01*
X127425961Y-87699461D01*
X127425965Y-87699464D01*
X127573446Y-87798009D01*
X127573459Y-87798016D01*
X127688354Y-87845606D01*
X127737334Y-87865894D01*
X127737336Y-87865894D01*
X127737341Y-87865896D01*
X127911304Y-87900499D01*
X127911307Y-87900500D01*
X127911309Y-87900500D01*
X128088693Y-87900500D01*
X128088694Y-87900499D01*
X128146682Y-87888964D01*
X128262658Y-87865896D01*
X128262661Y-87865894D01*
X128262666Y-87865894D01*
X128426547Y-87798013D01*
X128426550Y-87798010D01*
X128426552Y-87798010D01*
X128466378Y-87771399D01*
X128533055Y-87750520D01*
X128535270Y-87750500D01*
X129464730Y-87750500D01*
X129531769Y-87770185D01*
X129533622Y-87771399D01*
X129573447Y-87798010D01*
X129573450Y-87798011D01*
X129573453Y-87798013D01*
X129737334Y-87865894D01*
X129737336Y-87865894D01*
X129737341Y-87865896D01*
X129911304Y-87900499D01*
X129911307Y-87900500D01*
X129911309Y-87900500D01*
X130088693Y-87900500D01*
X130088694Y-87900499D01*
X130146682Y-87888964D01*
X130262658Y-87865896D01*
X130262661Y-87865894D01*
X130262666Y-87865894D01*
X130426547Y-87798013D01*
X130574035Y-87699464D01*
X130699464Y-87574035D01*
X130798013Y-87426547D01*
X130865894Y-87262666D01*
X130900500Y-87088691D01*
X130900500Y-86911309D01*
X130900500Y-86911306D01*
X130900499Y-86911304D01*
X130865896Y-86737341D01*
X130865893Y-86737332D01*
X130863486Y-86731522D01*
X130843267Y-86682707D01*
X130798015Y-86573457D01*
X130798014Y-86573455D01*
X130798013Y-86573453D01*
X130794965Y-86568892D01*
X130774086Y-86502217D01*
X130792569Y-86434837D01*
X130794948Y-86431132D01*
X130798013Y-86426547D01*
X130865894Y-86262666D01*
X130869987Y-86242093D01*
X130900499Y-86088695D01*
X130900500Y-86088693D01*
X130900500Y-85911306D01*
X130900499Y-85911304D01*
X130899347Y-85905513D01*
X133664500Y-85905513D01*
X133664500Y-86094486D01*
X133694059Y-86281118D01*
X133752454Y-86460836D01*
X133809836Y-86573453D01*
X133838240Y-86629199D01*
X133949310Y-86782073D01*
X134082927Y-86915690D01*
X134235801Y-87026760D01*
X134315347Y-87067290D01*
X134404163Y-87112545D01*
X134404165Y-87112545D01*
X134404168Y-87112547D01*
X134500497Y-87143846D01*
X134583881Y-87170940D01*
X134770514Y-87200500D01*
X134770519Y-87200500D01*
X134959486Y-87200500D01*
X135146118Y-87170940D01*
X135325832Y-87112547D01*
X135494199Y-87026760D01*
X135647073Y-86915690D01*
X135780690Y-86782073D01*
X135891760Y-86629199D01*
X135977547Y-86460832D01*
X136035940Y-86281118D01*
X136038862Y-86262667D01*
X136065500Y-86094486D01*
X136065500Y-85905513D01*
X136035940Y-85718881D01*
X135988687Y-85573453D01*
X135977547Y-85539168D01*
X135977545Y-85539165D01*
X135977545Y-85539163D01*
X135891759Y-85370800D01*
X135882130Y-85357547D01*
X135780690Y-85217927D01*
X135647073Y-85084310D01*
X135494199Y-84973240D01*
X135325836Y-84887454D01*
X135146118Y-84829059D01*
X134959486Y-84799500D01*
X134959481Y-84799500D01*
X134770519Y-84799500D01*
X134770514Y-84799500D01*
X134583881Y-84829059D01*
X134404163Y-84887454D01*
X134235800Y-84973240D01*
X134177840Y-85015351D01*
X134082927Y-85084310D01*
X134082925Y-85084312D01*
X134082924Y-85084312D01*
X133949312Y-85217924D01*
X133949312Y-85217925D01*
X133949310Y-85217927D01*
X133926371Y-85249500D01*
X133838240Y-85370800D01*
X133752454Y-85539163D01*
X133694059Y-85718881D01*
X133664500Y-85905513D01*
X130899347Y-85905513D01*
X130865896Y-85737341D01*
X130865893Y-85737332D01*
X130798016Y-85573459D01*
X130798009Y-85573446D01*
X130699464Y-85425965D01*
X130699461Y-85425961D01*
X130574038Y-85300538D01*
X130574034Y-85300535D01*
X130426553Y-85201990D01*
X130426540Y-85201983D01*
X130262667Y-85134106D01*
X130262658Y-85134103D01*
X130088694Y-85099500D01*
X130088691Y-85099500D01*
X129911309Y-85099500D01*
X129911306Y-85099500D01*
X129737341Y-85134103D01*
X129737332Y-85134106D01*
X129573452Y-85201987D01*
X129573447Y-85201989D01*
X129533622Y-85228601D01*
X129466945Y-85249480D01*
X129464730Y-85249500D01*
X128635270Y-85249500D01*
X128568231Y-85229815D01*
X128566378Y-85228601D01*
X128526552Y-85201989D01*
X128526547Y-85201987D01*
X128362667Y-85134106D01*
X128362659Y-85134104D01*
X128311391Y-85123906D01*
X128249480Y-85091521D01*
X128214906Y-85030805D01*
X128218647Y-84961035D01*
X128235264Y-84929405D01*
X128322717Y-84809038D01*
X128426548Y-84605258D01*
X128497222Y-84387745D01*
X128533000Y-84161854D01*
X128533000Y-83838146D01*
X128497222Y-83612255D01*
X128497221Y-83612251D01*
X128497221Y-83612250D01*
X128426549Y-83394744D01*
X128426548Y-83394742D01*
X128322717Y-83190962D01*
X128188286Y-83005934D01*
X128026566Y-82844214D01*
X127841538Y-82709783D01*
X127637755Y-82605950D01*
X127420248Y-82535278D01*
X127234812Y-82505908D01*
X127194354Y-82499500D01*
X126965646Y-82499500D01*
X126925188Y-82505908D01*
X126739753Y-82535278D01*
X126739750Y-82535278D01*
X126522244Y-82605950D01*
X126318461Y-82709783D01*
X126219414Y-82781746D01*
X126133434Y-82844214D01*
X126133432Y-82844216D01*
X126133431Y-82844216D01*
X125971715Y-83005932D01*
X125910318Y-83090438D01*
X125854987Y-83133103D01*
X125785374Y-83139082D01*
X125723579Y-83106476D01*
X125709682Y-83090438D01*
X125663416Y-83026759D01*
X125648286Y-83005934D01*
X125486566Y-82844214D01*
X125301538Y-82709783D01*
X125097755Y-82605950D01*
X124880248Y-82535278D01*
X124694812Y-82505908D01*
X124654354Y-82499500D01*
X124425646Y-82499500D01*
X124385188Y-82505908D01*
X124199753Y-82535278D01*
X124199750Y-82535278D01*
X123982244Y-82605950D01*
X123778461Y-82709783D01*
X123595759Y-82842525D01*
X123529952Y-82866005D01*
X123461898Y-82850180D01*
X123413203Y-82800074D01*
X123406690Y-82785538D01*
X123405398Y-82782075D01*
X123396296Y-82757669D01*
X123396293Y-82757664D01*
X123310047Y-82642455D01*
X123310044Y-82642452D01*
X123194835Y-82556206D01*
X123194828Y-82556202D01*
X123059982Y-82505908D01*
X123059983Y-82505908D01*
X123000383Y-82499501D01*
X123000381Y-82499500D01*
X123000373Y-82499500D01*
X123000364Y-82499500D01*
X120999629Y-82499500D01*
X120999623Y-82499501D01*
X120940016Y-82505908D01*
X120805171Y-82556202D01*
X120805164Y-82556206D01*
X120689955Y-82642452D01*
X120689952Y-82642455D01*
X120603706Y-82757664D01*
X120603702Y-82757671D01*
X120553408Y-82892517D01*
X120547001Y-82952116D01*
X120547000Y-82952135D01*
X119400500Y-82952135D01*
X119400500Y-82250000D01*
X133689638Y-82250000D01*
X133694548Y-82281002D01*
X133752914Y-82460637D01*
X133838670Y-82628940D01*
X133949685Y-82781741D01*
X133949689Y-82781746D01*
X134083253Y-82915310D01*
X134083258Y-82915314D01*
X134236059Y-83026329D01*
X134404362Y-83112085D01*
X134583997Y-83170451D01*
X134615000Y-83175362D01*
X134615000Y-83175361D01*
X135115000Y-83175361D01*
X135146002Y-83170451D01*
X135325637Y-83112085D01*
X135493940Y-83026329D01*
X135646741Y-82915314D01*
X135646746Y-82915310D01*
X135780310Y-82781746D01*
X135780314Y-82781741D01*
X135891329Y-82628940D01*
X135977085Y-82460637D01*
X136035451Y-82281002D01*
X136040362Y-82250000D01*
X135115000Y-82250000D01*
X135115000Y-83175361D01*
X134615000Y-83175361D01*
X134615000Y-82250000D01*
X133689638Y-82250000D01*
X119400500Y-82250000D01*
X119400500Y-81953922D01*
X134515000Y-81953922D01*
X134515000Y-82046078D01*
X134538852Y-82135095D01*
X134584930Y-82214905D01*
X134650095Y-82280070D01*
X134729905Y-82326148D01*
X134818922Y-82350000D01*
X134911078Y-82350000D01*
X135000095Y-82326148D01*
X135079905Y-82280070D01*
X135145070Y-82214905D01*
X135191148Y-82135095D01*
X135215000Y-82046078D01*
X135215000Y-81953922D01*
X135191148Y-81864905D01*
X135145070Y-81785095D01*
X135109975Y-81750000D01*
X135115000Y-81750000D01*
X136040362Y-81750000D01*
X136035451Y-81718997D01*
X135977085Y-81539362D01*
X135891329Y-81371059D01*
X135780314Y-81218258D01*
X135780310Y-81218253D01*
X135646746Y-81084689D01*
X135646741Y-81084685D01*
X135493940Y-80973670D01*
X135325635Y-80887913D01*
X135146004Y-80829549D01*
X135145995Y-80829547D01*
X135115000Y-80824637D01*
X135115000Y-81750000D01*
X135109975Y-81750000D01*
X135079905Y-81719930D01*
X135000095Y-81673852D01*
X134911078Y-81650000D01*
X134818922Y-81650000D01*
X134729905Y-81673852D01*
X134650095Y-81719930D01*
X134584930Y-81785095D01*
X134538852Y-81864905D01*
X134515000Y-81953922D01*
X119400500Y-81953922D01*
X119400500Y-81750000D01*
X133689638Y-81750000D01*
X134615000Y-81750000D01*
X134615000Y-80824637D01*
X134614999Y-80824637D01*
X134584004Y-80829547D01*
X134583995Y-80829549D01*
X134404364Y-80887913D01*
X134236059Y-80973670D01*
X134083258Y-81084685D01*
X134083253Y-81084689D01*
X133949689Y-81218253D01*
X133949685Y-81218258D01*
X133838670Y-81371059D01*
X133752914Y-81539362D01*
X133694548Y-81718997D01*
X133689638Y-81750000D01*
X119400500Y-81750000D01*
X119400500Y-75731421D01*
X128040000Y-75731421D01*
X128040000Y-76450000D01*
X128856988Y-76450000D01*
X128824075Y-76507007D01*
X128790000Y-76634174D01*
X128790000Y-76765826D01*
X128824075Y-76892993D01*
X128856988Y-76950000D01*
X128040001Y-76950000D01*
X128040001Y-77668588D01*
X128042794Y-77721191D01*
X128087237Y-77950987D01*
X128169879Y-78169975D01*
X128288339Y-78371841D01*
X128288344Y-78371848D01*
X128439211Y-78550786D01*
X128439213Y-78550788D01*
X128618151Y-78701655D01*
X128618158Y-78701660D01*
X128820024Y-78820120D01*
X129039012Y-78902762D01*
X129268809Y-78947205D01*
X129321382Y-78949998D01*
X129321421Y-78949999D01*
X130039999Y-78949999D01*
X130040000Y-78949998D01*
X130040000Y-77200000D01*
X130540000Y-77200000D01*
X130540000Y-78949999D01*
X131258576Y-78949999D01*
X131258588Y-78949998D01*
X131311191Y-78947205D01*
X131540987Y-78902762D01*
X131759975Y-78820120D01*
X131961841Y-78701660D01*
X131961848Y-78701655D01*
X132140786Y-78550788D01*
X132140788Y-78550786D01*
X132291655Y-78371848D01*
X132291660Y-78371841D01*
X132410120Y-78169975D01*
X132492762Y-77950987D01*
X132537205Y-77721191D01*
X132537205Y-77721190D01*
X132539998Y-77668617D01*
X132540000Y-77668578D01*
X132540000Y-76950000D01*
X131723012Y-76950000D01*
X131755925Y-76892993D01*
X131790000Y-76765826D01*
X131790000Y-76634174D01*
X131755925Y-76507007D01*
X131723012Y-76450000D01*
X132539999Y-76450000D01*
X132539999Y-75731423D01*
X132539998Y-75731411D01*
X132537205Y-75678808D01*
X132492762Y-75449012D01*
X132410120Y-75230024D01*
X132291660Y-75028158D01*
X132291655Y-75028151D01*
X132140790Y-74849216D01*
X132122079Y-74833440D01*
X132122077Y-74833437D01*
X131961848Y-74698344D01*
X131961841Y-74698339D01*
X131759975Y-74579879D01*
X131540984Y-74497236D01*
X131535840Y-74496241D01*
X131473760Y-74464180D01*
X131438869Y-74403646D01*
X131442244Y-74333858D01*
X131482814Y-74276973D01*
X131547697Y-74251052D01*
X131559374Y-74250499D01*
X135087872Y-74250499D01*
X135147483Y-74244091D01*
X135282331Y-74193796D01*
X135397546Y-74107546D01*
X135483796Y-73992331D01*
X135534091Y-73857483D01*
X135540500Y-73797873D01*
X135540499Y-71889778D01*
X139099500Y-71889778D01*
X139099500Y-72110221D01*
X139133985Y-72327952D01*
X139202103Y-72537603D01*
X139202104Y-72537606D01*
X139302187Y-72734025D01*
X139431752Y-72912358D01*
X139431756Y-72912363D01*
X139482316Y-72962923D01*
X139515801Y-73024246D01*
X139510817Y-73093938D01*
X139468945Y-73149871D01*
X139437969Y-73166785D01*
X139357918Y-73196643D01*
X139357906Y-73196649D01*
X139242812Y-73282809D01*
X139242809Y-73282812D01*
X139156649Y-73397906D01*
X139156645Y-73397913D01*
X139106403Y-73532620D01*
X139106401Y-73532627D01*
X139100000Y-73592155D01*
X139100000Y-74290000D01*
X140124722Y-74290000D01*
X140080667Y-74366306D01*
X140050000Y-74480756D01*
X140050000Y-74599244D01*
X140080667Y-74713694D01*
X140124722Y-74790000D01*
X139100000Y-74790000D01*
X139100000Y-75487844D01*
X139106401Y-75547372D01*
X139106403Y-75547379D01*
X139156645Y-75682086D01*
X139156649Y-75682093D01*
X139242809Y-75797187D01*
X139242812Y-75797190D01*
X139357906Y-75883350D01*
X139357913Y-75883354D01*
X139492620Y-75933596D01*
X139492627Y-75933598D01*
X139552155Y-75939999D01*
X139552172Y-75940000D01*
X140250000Y-75940000D01*
X140250000Y-74915277D01*
X140326306Y-74959333D01*
X140440756Y-74990000D01*
X140559244Y-74990000D01*
X140673694Y-74959333D01*
X140750000Y-74915277D01*
X140750000Y-75940000D01*
X141447828Y-75940000D01*
X141447844Y-75939999D01*
X141507372Y-75933598D01*
X141507379Y-75933596D01*
X141642086Y-75883354D01*
X141642093Y-75883350D01*
X141757187Y-75797190D01*
X141757190Y-75797187D01*
X141843350Y-75682093D01*
X141843354Y-75682086D01*
X141893596Y-75547379D01*
X141893598Y-75547372D01*
X141899999Y-75487844D01*
X141900000Y-75487827D01*
X141900000Y-74790000D01*
X140875278Y-74790000D01*
X140919333Y-74713694D01*
X140950000Y-74599244D01*
X140950000Y-74480756D01*
X140919333Y-74366306D01*
X140875278Y-74290000D01*
X141900000Y-74290000D01*
X141900000Y-73592172D01*
X141899999Y-73592155D01*
X141893598Y-73532627D01*
X141893596Y-73532620D01*
X141843354Y-73397913D01*
X141843350Y-73397906D01*
X141757190Y-73282812D01*
X141757187Y-73282809D01*
X141642093Y-73196649D01*
X141642087Y-73196646D01*
X141562030Y-73166786D01*
X141506097Y-73124914D01*
X141481680Y-73059450D01*
X141496532Y-72991177D01*
X141517681Y-72962925D01*
X141568242Y-72912365D01*
X141697815Y-72734022D01*
X141797895Y-72537606D01*
X141866015Y-72327951D01*
X141900500Y-72110222D01*
X141900500Y-71889778D01*
X141866015Y-71672049D01*
X141797895Y-71462394D01*
X141797895Y-71462393D01*
X141763237Y-71394375D01*
X141697815Y-71265978D01*
X141681260Y-71243192D01*
X141568247Y-71087641D01*
X141568243Y-71087636D01*
X141412363Y-70931756D01*
X141412358Y-70931752D01*
X141234025Y-70802187D01*
X141234024Y-70802186D01*
X141234022Y-70802185D01*
X141171096Y-70770122D01*
X141037606Y-70702104D01*
X141037603Y-70702103D01*
X140827952Y-70633985D01*
X140719086Y-70616742D01*
X140610222Y-70599500D01*
X140389778Y-70599500D01*
X140317201Y-70610995D01*
X140172047Y-70633985D01*
X139962396Y-70702103D01*
X139962393Y-70702104D01*
X139765974Y-70802187D01*
X139587641Y-70931752D01*
X139587636Y-70931756D01*
X139431756Y-71087636D01*
X139431752Y-71087641D01*
X139302187Y-71265974D01*
X139202104Y-71462393D01*
X139202103Y-71462396D01*
X139133985Y-71672047D01*
X139099500Y-71889778D01*
X135540499Y-71889778D01*
X135540499Y-70202128D01*
X135534091Y-70142517D01*
X135494571Y-70036559D01*
X135483797Y-70007671D01*
X135483793Y-70007664D01*
X135397547Y-69892455D01*
X135397544Y-69892452D01*
X135282335Y-69806206D01*
X135282328Y-69806202D01*
X135147482Y-69755908D01*
X135147483Y-69755908D01*
X135087883Y-69749501D01*
X135087881Y-69749500D01*
X135087873Y-69749500D01*
X135087864Y-69749500D01*
X131492129Y-69749500D01*
X131492123Y-69749501D01*
X131432516Y-69755908D01*
X131297671Y-69806202D01*
X131297664Y-69806206D01*
X131182455Y-69892452D01*
X131182452Y-69892455D01*
X131096206Y-70007664D01*
X131096202Y-70007671D01*
X131045908Y-70142517D01*
X131039501Y-70202116D01*
X131039501Y-70202123D01*
X131039500Y-70202135D01*
X131039500Y-73797870D01*
X131039501Y-73797876D01*
X131045908Y-73857483D01*
X131096202Y-73992328D01*
X131096206Y-73992335D01*
X131182452Y-74107544D01*
X131182455Y-74107547D01*
X131297664Y-74193793D01*
X131297673Y-74193798D01*
X131346506Y-74212011D01*
X131402440Y-74253881D01*
X131426858Y-74319345D01*
X131412007Y-74387618D01*
X131362603Y-74437024D01*
X131296598Y-74452018D01*
X131258625Y-74450001D01*
X131258579Y-74450000D01*
X130540000Y-74450000D01*
X130540000Y-76200000D01*
X130040000Y-76200000D01*
X130040000Y-74450000D01*
X129321423Y-74450000D01*
X129321411Y-74450001D01*
X129268808Y-74452794D01*
X129039012Y-74497237D01*
X128820024Y-74579879D01*
X128618158Y-74698339D01*
X128618151Y-74698344D01*
X128439213Y-74849211D01*
X128439211Y-74849213D01*
X128288344Y-75028151D01*
X128288339Y-75028158D01*
X128169879Y-75230024D01*
X128087237Y-75449012D01*
X128042794Y-75678808D01*
X128042794Y-75678809D01*
X128040001Y-75731382D01*
X128040000Y-75731421D01*
X119400500Y-75731421D01*
X119400500Y-70935803D01*
X125290000Y-70935803D01*
X125290000Y-71750000D01*
X126790000Y-71750000D01*
X126790000Y-72250000D01*
X125290001Y-72250000D01*
X125290001Y-73064197D01*
X125300400Y-73196332D01*
X125355377Y-73414519D01*
X125448428Y-73619374D01*
X125448431Y-73619380D01*
X125576559Y-73804323D01*
X125576569Y-73804335D01*
X125735664Y-73963430D01*
X125735676Y-73963440D01*
X125920619Y-74091568D01*
X125920625Y-74091571D01*
X126125480Y-74184622D01*
X126343667Y-74239599D01*
X126475810Y-74249999D01*
X127039999Y-74249999D01*
X127040000Y-74249998D01*
X127040000Y-73433012D01*
X127097007Y-73465925D01*
X127224174Y-73500000D01*
X127355826Y-73500000D01*
X127482993Y-73465925D01*
X127540000Y-73433012D01*
X127540000Y-74249999D01*
X128104182Y-74249999D01*
X128104197Y-74249998D01*
X128236332Y-74239599D01*
X128454519Y-74184622D01*
X128659374Y-74091571D01*
X128659380Y-74091568D01*
X128844323Y-73963440D01*
X128844335Y-73963430D01*
X129003430Y-73804335D01*
X129003440Y-73804323D01*
X129131568Y-73619380D01*
X129131571Y-73619374D01*
X129224622Y-73414519D01*
X129279599Y-73196332D01*
X129289999Y-73064196D01*
X129290000Y-73064184D01*
X129290000Y-72250000D01*
X127790000Y-72250000D01*
X127790000Y-71750000D01*
X129289999Y-71750000D01*
X129289999Y-70935817D01*
X129289998Y-70935802D01*
X129279599Y-70803667D01*
X129224622Y-70585480D01*
X129131571Y-70380625D01*
X129131568Y-70380619D01*
X129003440Y-70195676D01*
X129003430Y-70195664D01*
X128844335Y-70036569D01*
X128844323Y-70036559D01*
X128659380Y-69908431D01*
X128659374Y-69908428D01*
X128454519Y-69815377D01*
X128236332Y-69760400D01*
X128104196Y-69750000D01*
X127540000Y-69750000D01*
X127540000Y-70566988D01*
X127482993Y-70534075D01*
X127355826Y-70500000D01*
X127224174Y-70500000D01*
X127097007Y-70534075D01*
X127040000Y-70566988D01*
X127040000Y-69750000D01*
X126475817Y-69750000D01*
X126475802Y-69750001D01*
X126343667Y-69760400D01*
X126125480Y-69815377D01*
X125920625Y-69908428D01*
X125920619Y-69908431D01*
X125735676Y-70036559D01*
X125735664Y-70036569D01*
X125576569Y-70195664D01*
X125576559Y-70195676D01*
X125448431Y-70380619D01*
X125448428Y-70380625D01*
X125355377Y-70585480D01*
X125300400Y-70803667D01*
X125290000Y-70935803D01*
X119400500Y-70935803D01*
X119400500Y-63905513D01*
X134019500Y-63905513D01*
X134019500Y-64094486D01*
X134049059Y-64281118D01*
X134107454Y-64460836D01*
X134193240Y-64629199D01*
X134304310Y-64782073D01*
X134437927Y-64915690D01*
X134590801Y-65026760D01*
X134670347Y-65067290D01*
X134759163Y-65112545D01*
X134759165Y-65112545D01*
X134759168Y-65112547D01*
X134855497Y-65143846D01*
X134938881Y-65170940D01*
X135125514Y-65200500D01*
X135125519Y-65200500D01*
X135314486Y-65200500D01*
X135501118Y-65170940D01*
X135680832Y-65112547D01*
X135849199Y-65026760D01*
X136002073Y-64915690D01*
X136135690Y-64782073D01*
X136246760Y-64629199D01*
X136332547Y-64460832D01*
X136390940Y-64281118D01*
X136420500Y-64094486D01*
X136420500Y-63905513D01*
X136390940Y-63718881D01*
X136332545Y-63539163D01*
X136246759Y-63370800D01*
X136135690Y-63217927D01*
X136002073Y-63084310D01*
X135849199Y-62973240D01*
X135680836Y-62887454D01*
X135501118Y-62829059D01*
X135314486Y-62799500D01*
X135314481Y-62799500D01*
X135125519Y-62799500D01*
X135125514Y-62799500D01*
X134938881Y-62829059D01*
X134759163Y-62887454D01*
X134590800Y-62973240D01*
X134503579Y-63036610D01*
X134437927Y-63084310D01*
X134437925Y-63084312D01*
X134437924Y-63084312D01*
X134304312Y-63217924D01*
X134304312Y-63217925D01*
X134304310Y-63217927D01*
X134256610Y-63283579D01*
X134193240Y-63370800D01*
X134107454Y-63539163D01*
X134049059Y-63718881D01*
X134019500Y-63905513D01*
X119400500Y-63905513D01*
X119400500Y-59838146D01*
X120547000Y-59838146D01*
X120547000Y-60161853D01*
X120582778Y-60387746D01*
X120582778Y-60387749D01*
X120653450Y-60605255D01*
X120653452Y-60605258D01*
X120757283Y-60809038D01*
X120891714Y-60994066D01*
X121053434Y-61155786D01*
X121238462Y-61290217D01*
X121370599Y-61357544D01*
X121442244Y-61394049D01*
X121659751Y-61464721D01*
X121659752Y-61464721D01*
X121659755Y-61464722D01*
X121885646Y-61500500D01*
X121885647Y-61500500D01*
X122114353Y-61500500D01*
X122114354Y-61500500D01*
X122340245Y-61464722D01*
X122340248Y-61464721D01*
X122340249Y-61464721D01*
X122557755Y-61394049D01*
X122557755Y-61394048D01*
X122557758Y-61394048D01*
X122761538Y-61290217D01*
X122946566Y-61155786D01*
X123108286Y-60994066D01*
X123169992Y-60909134D01*
X123225319Y-60866470D01*
X123294932Y-60860491D01*
X123356727Y-60893096D01*
X123370626Y-60909135D01*
X123432097Y-60993741D01*
X123432097Y-60993742D01*
X123593757Y-61155402D01*
X123778723Y-61289788D01*
X123982429Y-61393582D01*
X124199871Y-61464234D01*
X124290000Y-61478509D01*
X124290000Y-60490747D01*
X124327708Y-60512518D01*
X124467591Y-60550000D01*
X124612409Y-60550000D01*
X124752292Y-60512518D01*
X124790000Y-60490747D01*
X124790000Y-61478508D01*
X124880128Y-61464234D01*
X125097570Y-61393582D01*
X125301276Y-61289788D01*
X125484059Y-61156988D01*
X125549865Y-61133508D01*
X125617919Y-61149333D01*
X125666614Y-61199439D01*
X125673127Y-61213974D01*
X125683701Y-61242326D01*
X125683706Y-61242335D01*
X125769952Y-61357544D01*
X125769955Y-61357547D01*
X125885164Y-61443793D01*
X125885171Y-61443797D01*
X126020017Y-61494091D01*
X126020016Y-61494091D01*
X126026944Y-61494835D01*
X126079627Y-61500500D01*
X128080372Y-61500499D01*
X128139983Y-61494091D01*
X128274831Y-61443796D01*
X128390046Y-61357546D01*
X128476296Y-61242331D01*
X128526591Y-61107483D01*
X128533000Y-61047873D01*
X128532999Y-58952128D01*
X128530016Y-58924379D01*
X128526775Y-58894224D01*
X128526775Y-58894222D01*
X128526592Y-58892519D01*
X128524100Y-58885837D01*
X133669500Y-58885837D01*
X133669500Y-59114162D01*
X133705215Y-59339660D01*
X133775770Y-59556803D01*
X133829520Y-59662292D01*
X133879421Y-59760228D01*
X134013621Y-59944937D01*
X134175063Y-60106379D01*
X134359772Y-60240579D01*
X134455884Y-60289550D01*
X134563196Y-60344229D01*
X134563198Y-60344229D01*
X134563201Y-60344231D01*
X134679592Y-60382049D01*
X134780339Y-60414784D01*
X135005838Y-60450500D01*
X135005843Y-60450500D01*
X135234162Y-60450500D01*
X135459660Y-60414784D01*
X135676799Y-60344231D01*
X135880228Y-60240579D01*
X136064937Y-60106379D01*
X136226379Y-59944937D01*
X136269683Y-59885333D01*
X136325012Y-59842670D01*
X136394626Y-59836691D01*
X136456421Y-59869297D01*
X136470313Y-59885329D01*
X136513621Y-59944937D01*
X136675063Y-60106379D01*
X136859772Y-60240579D01*
X136955884Y-60289550D01*
X137063196Y-60344229D01*
X137063198Y-60344229D01*
X137063201Y-60344231D01*
X137179592Y-60382049D01*
X137280339Y-60414784D01*
X137505838Y-60450500D01*
X137505843Y-60450500D01*
X137734162Y-60450500D01*
X137959660Y-60414784D01*
X138176799Y-60344231D01*
X138380228Y-60240579D01*
X138534564Y-60128446D01*
X138600368Y-60104967D01*
X138668422Y-60120792D01*
X138717117Y-60170897D01*
X138723629Y-60185429D01*
X138726202Y-60192327D01*
X138726206Y-60192335D01*
X138812452Y-60307544D01*
X138812455Y-60307547D01*
X138927664Y-60393793D01*
X138927671Y-60393797D01*
X139062517Y-60444091D01*
X139062516Y-60444091D01*
X139069444Y-60444835D01*
X139122127Y-60450500D01*
X141117872Y-60450499D01*
X141177483Y-60444091D01*
X141312331Y-60393796D01*
X141427546Y-60307546D01*
X141513796Y-60192331D01*
X141564091Y-60057483D01*
X141570500Y-59997873D01*
X141570499Y-58002128D01*
X141564091Y-57942517D01*
X141545854Y-57893622D01*
X141513797Y-57807671D01*
X141513793Y-57807664D01*
X141427547Y-57692455D01*
X141427544Y-57692452D01*
X141312335Y-57606206D01*
X141312328Y-57606202D01*
X141177482Y-57555908D01*
X141177483Y-57555908D01*
X141117883Y-57549501D01*
X141117881Y-57549500D01*
X141117873Y-57549500D01*
X141117864Y-57549500D01*
X139122129Y-57549500D01*
X139122123Y-57549501D01*
X139062516Y-57555908D01*
X138927671Y-57606202D01*
X138927664Y-57606206D01*
X138812455Y-57692452D01*
X138812452Y-57692455D01*
X138726206Y-57807664D01*
X138726202Y-57807672D01*
X138723629Y-57814571D01*
X138681757Y-57870504D01*
X138616292Y-57894919D01*
X138548019Y-57880066D01*
X138534571Y-57871559D01*
X138380228Y-57759421D01*
X138176803Y-57655770D01*
X137959660Y-57585215D01*
X137734162Y-57549500D01*
X137734157Y-57549500D01*
X137505843Y-57549500D01*
X137505838Y-57549500D01*
X137280339Y-57585215D01*
X137063196Y-57655770D01*
X136859771Y-57759421D01*
X136675061Y-57893622D01*
X136513623Y-58055060D01*
X136513616Y-58055069D01*
X136470317Y-58114664D01*
X136414987Y-58157330D01*
X136345373Y-58163308D01*
X136283579Y-58130701D01*
X136269683Y-58114664D01*
X136226383Y-58055069D01*
X136226379Y-58055063D01*
X136064937Y-57893621D01*
X135880228Y-57759421D01*
X135676803Y-57655770D01*
X135459660Y-57585215D01*
X135234162Y-57549500D01*
X135234157Y-57549500D01*
X135005843Y-57549500D01*
X135005838Y-57549500D01*
X134780339Y-57585215D01*
X134563196Y-57655770D01*
X134359771Y-57759421D01*
X134175061Y-57893622D01*
X134013622Y-58055061D01*
X133879421Y-58239771D01*
X133775770Y-58443196D01*
X133705215Y-58660339D01*
X133669500Y-58885837D01*
X128524100Y-58885837D01*
X128476297Y-58757671D01*
X128476293Y-58757664D01*
X128390047Y-58642455D01*
X128390044Y-58642452D01*
X128274835Y-58556206D01*
X128274828Y-58556202D01*
X128139982Y-58505908D01*
X128139983Y-58505908D01*
X128080383Y-58499501D01*
X128080381Y-58499500D01*
X128080373Y-58499500D01*
X128080364Y-58499500D01*
X126079629Y-58499500D01*
X126079623Y-58499501D01*
X126020016Y-58505908D01*
X125885171Y-58556202D01*
X125885164Y-58556206D01*
X125769955Y-58642452D01*
X125769952Y-58642455D01*
X125683706Y-58757664D01*
X125683702Y-58757671D01*
X125673127Y-58786026D01*
X125631256Y-58841960D01*
X125565791Y-58866377D01*
X125497518Y-58851525D01*
X125484060Y-58843011D01*
X125301279Y-58710213D01*
X125097568Y-58606417D01*
X124880124Y-58535765D01*
X124790000Y-58521490D01*
X124790000Y-59509252D01*
X124752292Y-59487482D01*
X124612409Y-59450000D01*
X124467591Y-59450000D01*
X124327708Y-59487482D01*
X124290000Y-59509252D01*
X124290000Y-58521490D01*
X124289999Y-58521490D01*
X124199875Y-58535765D01*
X123982431Y-58606417D01*
X123778723Y-58710211D01*
X123593757Y-58844597D01*
X123432097Y-59006257D01*
X123370627Y-59090864D01*
X123315297Y-59133529D01*
X123245684Y-59139508D01*
X123183889Y-59106902D01*
X123169991Y-59090864D01*
X123108286Y-59005934D01*
X122946566Y-58844214D01*
X122761538Y-58709783D01*
X122664499Y-58660339D01*
X122557755Y-58605950D01*
X122340248Y-58535278D01*
X122154812Y-58505908D01*
X122114354Y-58499500D01*
X121885646Y-58499500D01*
X121845188Y-58505908D01*
X121659753Y-58535278D01*
X121659750Y-58535278D01*
X121442244Y-58605950D01*
X121238461Y-58709783D01*
X121172550Y-58757671D01*
X121053434Y-58844214D01*
X121053432Y-58844216D01*
X121053431Y-58844216D01*
X120891716Y-59005931D01*
X120891716Y-59005932D01*
X120891714Y-59005934D01*
X120833980Y-59085396D01*
X120757283Y-59190961D01*
X120653450Y-59394744D01*
X120582778Y-59612250D01*
X120582778Y-59612253D01*
X120547000Y-59838146D01*
X119400500Y-59838146D01*
X119400500Y-55897682D01*
X120200000Y-55897682D01*
X120200000Y-56102317D01*
X120232009Y-56304417D01*
X120295244Y-56499031D01*
X120388141Y-56681350D01*
X120388147Y-56681359D01*
X120420523Y-56725921D01*
X120420524Y-56725922D01*
X121100000Y-56046446D01*
X121100000Y-56052661D01*
X121127259Y-56154394D01*
X121179920Y-56245606D01*
X121254394Y-56320080D01*
X121345606Y-56372741D01*
X121447339Y-56400000D01*
X121453553Y-56400000D01*
X120774076Y-57079474D01*
X120818650Y-57111859D01*
X121000968Y-57204755D01*
X121195582Y-57267990D01*
X121397683Y-57300000D01*
X121602317Y-57300000D01*
X121804417Y-57267990D01*
X121999031Y-57204755D01*
X122181349Y-57111859D01*
X122225921Y-57079474D01*
X121546447Y-56400000D01*
X121552661Y-56400000D01*
X121654394Y-56372741D01*
X121745606Y-56320080D01*
X121820080Y-56245606D01*
X121872741Y-56154394D01*
X121900000Y-56052661D01*
X121900000Y-56046447D01*
X122579474Y-56725921D01*
X122611859Y-56681349D01*
X122639233Y-56627624D01*
X122687207Y-56576827D01*
X122755028Y-56560031D01*
X122821163Y-56582567D01*
X122860203Y-56627621D01*
X122887713Y-56681611D01*
X123008028Y-56847213D01*
X123152786Y-56991971D01*
X123273226Y-57079474D01*
X123318390Y-57112287D01*
X123434607Y-57171503D01*
X123500776Y-57205218D01*
X123500778Y-57205218D01*
X123500781Y-57205220D01*
X123605137Y-57239127D01*
X123695465Y-57268477D01*
X123796557Y-57284488D01*
X123897648Y-57300500D01*
X123897649Y-57300500D01*
X124102351Y-57300500D01*
X124102352Y-57300500D01*
X124304534Y-57268477D01*
X124499219Y-57205220D01*
X124681610Y-57112287D01*
X124774590Y-57044732D01*
X124847213Y-56991971D01*
X124847215Y-56991968D01*
X124847219Y-56991966D01*
X124991966Y-56847219D01*
X124991968Y-56847215D01*
X124991971Y-56847213D01*
X125112286Y-56681611D01*
X125112415Y-56681359D01*
X125139795Y-56627621D01*
X125187769Y-56576826D01*
X125255589Y-56560030D01*
X125321725Y-56582567D01*
X125360765Y-56627621D01*
X125388141Y-56681350D01*
X125388147Y-56681359D01*
X125420523Y-56725921D01*
X125420524Y-56725922D01*
X126100000Y-56046446D01*
X126100000Y-56052661D01*
X126127259Y-56154394D01*
X126179920Y-56245606D01*
X126254394Y-56320080D01*
X126345606Y-56372741D01*
X126447339Y-56400000D01*
X126453553Y-56400000D01*
X125774076Y-57079474D01*
X125818650Y-57111859D01*
X126000968Y-57204755D01*
X126195582Y-57267990D01*
X126397683Y-57300000D01*
X126602317Y-57300000D01*
X126804417Y-57267990D01*
X126999031Y-57204755D01*
X127181349Y-57111859D01*
X127225921Y-57079474D01*
X126546447Y-56400000D01*
X126552661Y-56400000D01*
X126654394Y-56372741D01*
X126745606Y-56320080D01*
X126820080Y-56245606D01*
X126872741Y-56154394D01*
X126900000Y-56052661D01*
X126900000Y-56046448D01*
X127579474Y-56725922D01*
X127579474Y-56725921D01*
X127611859Y-56681349D01*
X127639233Y-56627624D01*
X127687207Y-56576827D01*
X127755028Y-56560031D01*
X127821163Y-56582567D01*
X127860203Y-56627621D01*
X127887713Y-56681611D01*
X128008028Y-56847213D01*
X128152786Y-56991971D01*
X128273226Y-57079474D01*
X128318390Y-57112287D01*
X128434607Y-57171503D01*
X128500776Y-57205218D01*
X128500778Y-57205218D01*
X128500781Y-57205220D01*
X128605137Y-57239127D01*
X128695465Y-57268477D01*
X128796557Y-57284488D01*
X128897648Y-57300500D01*
X128897649Y-57300500D01*
X129102351Y-57300500D01*
X129102352Y-57300500D01*
X129304534Y-57268477D01*
X129499219Y-57205220D01*
X129681610Y-57112287D01*
X129774590Y-57044732D01*
X129847213Y-56991971D01*
X129847215Y-56991968D01*
X129847219Y-56991966D01*
X129991966Y-56847219D01*
X129991968Y-56847215D01*
X129991971Y-56847213D01*
X130044732Y-56774590D01*
X130112287Y-56681610D01*
X130205220Y-56499219D01*
X130268477Y-56304534D01*
X130300500Y-56102352D01*
X130300500Y-55897648D01*
X130292257Y-55845606D01*
X130268477Y-55695465D01*
X130237458Y-55600000D01*
X130205220Y-55500781D01*
X130205218Y-55500778D01*
X130205218Y-55500776D01*
X130162750Y-55417429D01*
X130112287Y-55318390D01*
X130080092Y-55274077D01*
X129991971Y-55152786D01*
X129847213Y-55008028D01*
X129681613Y-54887715D01*
X129681612Y-54887714D01*
X129681610Y-54887713D01*
X129624653Y-54858691D01*
X129499223Y-54794781D01*
X129304534Y-54731522D01*
X129129995Y-54703878D01*
X129102352Y-54699500D01*
X128897648Y-54699500D01*
X128873329Y-54703351D01*
X128695465Y-54731522D01*
X128500776Y-54794781D01*
X128318386Y-54887715D01*
X128152786Y-55008028D01*
X128008028Y-55152786D01*
X127887714Y-55318386D01*
X127860203Y-55372379D01*
X127812227Y-55423174D01*
X127744406Y-55439968D01*
X127678272Y-55417429D01*
X127639234Y-55372376D01*
X127611861Y-55318652D01*
X127579474Y-55274077D01*
X127579474Y-55274076D01*
X126900000Y-55953551D01*
X126900000Y-55947339D01*
X126872741Y-55845606D01*
X126820080Y-55754394D01*
X126745606Y-55679920D01*
X126654394Y-55627259D01*
X126552661Y-55600000D01*
X126546446Y-55600000D01*
X127225922Y-54920524D01*
X127225921Y-54920523D01*
X127181359Y-54888147D01*
X127181350Y-54888141D01*
X126999031Y-54795244D01*
X126804417Y-54732009D01*
X126602317Y-54700000D01*
X126397683Y-54700000D01*
X126195582Y-54732009D01*
X126000968Y-54795244D01*
X125818644Y-54888143D01*
X125774077Y-54920523D01*
X125774077Y-54920524D01*
X126453554Y-55600000D01*
X126447339Y-55600000D01*
X126345606Y-55627259D01*
X126254394Y-55679920D01*
X126179920Y-55754394D01*
X126127259Y-55845606D01*
X126100000Y-55947339D01*
X126100000Y-55953553D01*
X125420524Y-55274077D01*
X125420523Y-55274077D01*
X125388143Y-55318644D01*
X125360765Y-55372378D01*
X125312790Y-55423174D01*
X125244969Y-55439969D01*
X125178834Y-55417431D01*
X125139795Y-55372378D01*
X125112284Y-55318385D01*
X124991971Y-55152786D01*
X124847213Y-55008028D01*
X124681613Y-54887715D01*
X124681612Y-54887714D01*
X124681610Y-54887713D01*
X124624653Y-54858691D01*
X124499223Y-54794781D01*
X124304534Y-54731522D01*
X124129995Y-54703878D01*
X124102352Y-54699500D01*
X123897648Y-54699500D01*
X123873329Y-54703351D01*
X123695465Y-54731522D01*
X123500776Y-54794781D01*
X123318386Y-54887715D01*
X123152786Y-55008028D01*
X123008028Y-55152786D01*
X122887714Y-55318386D01*
X122860203Y-55372379D01*
X122812227Y-55423174D01*
X122744406Y-55439968D01*
X122678272Y-55417429D01*
X122639234Y-55372376D01*
X122611861Y-55318652D01*
X122579474Y-55274077D01*
X122579474Y-55274076D01*
X121900000Y-55953551D01*
X121900000Y-55947339D01*
X121872741Y-55845606D01*
X121820080Y-55754394D01*
X121745606Y-55679920D01*
X121654394Y-55627259D01*
X121552661Y-55600000D01*
X121546446Y-55600000D01*
X122225922Y-54920524D01*
X122225921Y-54920523D01*
X122181359Y-54888147D01*
X122181350Y-54888141D01*
X121999031Y-54795244D01*
X121804417Y-54732009D01*
X121602317Y-54700000D01*
X121397683Y-54700000D01*
X121195582Y-54732009D01*
X121000968Y-54795244D01*
X120818644Y-54888143D01*
X120774077Y-54920523D01*
X120774077Y-54920524D01*
X121453554Y-55600000D01*
X121447339Y-55600000D01*
X121345606Y-55627259D01*
X121254394Y-55679920D01*
X121179920Y-55754394D01*
X121127259Y-55845606D01*
X121100000Y-55947339D01*
X121100000Y-55953553D01*
X120420524Y-55274077D01*
X120420523Y-55274077D01*
X120388143Y-55318644D01*
X120295244Y-55500968D01*
X120232009Y-55695582D01*
X120200000Y-55897682D01*
X119400500Y-55897682D01*
X119400500Y-49102135D01*
X122649500Y-49102135D01*
X122649500Y-50897870D01*
X122649501Y-50897876D01*
X122655908Y-50957483D01*
X122706202Y-51092328D01*
X122706206Y-51092335D01*
X122792452Y-51207544D01*
X122792455Y-51207547D01*
X122907664Y-51293793D01*
X122907671Y-51293797D01*
X123042517Y-51344091D01*
X123042516Y-51344091D01*
X123049444Y-51344835D01*
X123102127Y-51350500D01*
X124897872Y-51350499D01*
X124957483Y-51344091D01*
X125092331Y-51293796D01*
X125207546Y-51207546D01*
X125293796Y-51092331D01*
X125342810Y-50960916D01*
X125384681Y-50904984D01*
X125450145Y-50880566D01*
X125518418Y-50895417D01*
X125546673Y-50916569D01*
X125660213Y-51030109D01*
X125832179Y-51155048D01*
X125832181Y-51155049D01*
X125832184Y-51155051D01*
X126021588Y-51251557D01*
X126223757Y-51317246D01*
X126433713Y-51350500D01*
X126433714Y-51350500D01*
X126646286Y-51350500D01*
X126646287Y-51350500D01*
X126856243Y-51317246D01*
X127058412Y-51251557D01*
X127247816Y-51155051D01*
X127334138Y-51092335D01*
X127419786Y-51030109D01*
X127419788Y-51030106D01*
X127419792Y-51030104D01*
X127570104Y-50879792D01*
X127570106Y-50879788D01*
X127570109Y-50879786D01*
X127695048Y-50707820D01*
X127695047Y-50707820D01*
X127695051Y-50707816D01*
X127699514Y-50699054D01*
X127747488Y-50648259D01*
X127815308Y-50631463D01*
X127881444Y-50653999D01*
X127920486Y-50699056D01*
X127924951Y-50707820D01*
X128049890Y-50879786D01*
X128200213Y-51030109D01*
X128372179Y-51155048D01*
X128372181Y-51155049D01*
X128372184Y-51155051D01*
X128561588Y-51251557D01*
X128763757Y-51317246D01*
X128973713Y-51350500D01*
X128973714Y-51350500D01*
X129186286Y-51350500D01*
X129186287Y-51350500D01*
X129396243Y-51317246D01*
X129598412Y-51251557D01*
X129787816Y-51155051D01*
X129874138Y-51092335D01*
X129959786Y-51030109D01*
X129959788Y-51030106D01*
X129959792Y-51030104D01*
X130110104Y-50879792D01*
X130110106Y-50879788D01*
X130110109Y-50879786D01*
X130235048Y-50707820D01*
X130235047Y-50707820D01*
X130235051Y-50707816D01*
X130331557Y-50518412D01*
X130397246Y-50316243D01*
X130430500Y-50106287D01*
X130430500Y-49893713D01*
X130427165Y-49872655D01*
X130418514Y-49818036D01*
X130413554Y-49786721D01*
X130397246Y-49683757D01*
X130331557Y-49481588D01*
X130235051Y-49292184D01*
X130235049Y-49292181D01*
X130235048Y-49292179D01*
X130110109Y-49120213D01*
X129959786Y-48969890D01*
X129787820Y-48844951D01*
X129598414Y-48748444D01*
X129598413Y-48748443D01*
X129598412Y-48748443D01*
X129396243Y-48682754D01*
X129396241Y-48682753D01*
X129396240Y-48682753D01*
X129234957Y-48657208D01*
X129186287Y-48649500D01*
X128973713Y-48649500D01*
X128925042Y-48657208D01*
X128763760Y-48682753D01*
X128561585Y-48748444D01*
X128372179Y-48844951D01*
X128200213Y-48969890D01*
X128049890Y-49120213D01*
X127924949Y-49292182D01*
X127920484Y-49300946D01*
X127872509Y-49351742D01*
X127804688Y-49368536D01*
X127738553Y-49345998D01*
X127699516Y-49300946D01*
X127695050Y-49292182D01*
X127570109Y-49120213D01*
X127419786Y-48969890D01*
X127247820Y-48844951D01*
X127058414Y-48748444D01*
X127058413Y-48748443D01*
X127058412Y-48748443D01*
X126856243Y-48682754D01*
X126856241Y-48682753D01*
X126856240Y-48682753D01*
X126694957Y-48657208D01*
X126646287Y-48649500D01*
X126433713Y-48649500D01*
X126385042Y-48657208D01*
X126223760Y-48682753D01*
X126021585Y-48748444D01*
X125832179Y-48844951D01*
X125660215Y-48969889D01*
X125546673Y-49083431D01*
X125485350Y-49116915D01*
X125415658Y-49111931D01*
X125359725Y-49070059D01*
X125342810Y-49039082D01*
X125293797Y-48907671D01*
X125293793Y-48907664D01*
X125207547Y-48792455D01*
X125207544Y-48792452D01*
X125092335Y-48706206D01*
X125092328Y-48706202D01*
X124957482Y-48655908D01*
X124957483Y-48655908D01*
X124897883Y-48649501D01*
X124897881Y-48649500D01*
X124897873Y-48649500D01*
X124897864Y-48649500D01*
X123102129Y-48649500D01*
X123102123Y-48649501D01*
X123042516Y-48655908D01*
X122907671Y-48706202D01*
X122907664Y-48706206D01*
X122792455Y-48792452D01*
X122792452Y-48792455D01*
X122706206Y-48907664D01*
X122706202Y-48907671D01*
X122655908Y-49042517D01*
X122649501Y-49102116D01*
X122649500Y-49102135D01*
X119400500Y-49102135D01*
X119400500Y-48052155D01*
X134000000Y-48052155D01*
X134000000Y-49350000D01*
X135280936Y-49350000D01*
X135269207Y-49378316D01*
X135240000Y-49525147D01*
X135240000Y-49674853D01*
X135269207Y-49821684D01*
X135280936Y-49850000D01*
X134000000Y-49850000D01*
X134000000Y-51147844D01*
X134006401Y-51207372D01*
X134006403Y-51207379D01*
X134056645Y-51342086D01*
X134056649Y-51342093D01*
X134142809Y-51457187D01*
X134142812Y-51457190D01*
X134257906Y-51543350D01*
X134257913Y-51543354D01*
X134392620Y-51593596D01*
X134392627Y-51593598D01*
X134452155Y-51599999D01*
X134452172Y-51600000D01*
X135750000Y-51600000D01*
X135750000Y-50319064D01*
X135778316Y-50330793D01*
X135925147Y-50360000D01*
X136074853Y-50360000D01*
X136221684Y-50330793D01*
X136250000Y-50319064D01*
X136250000Y-51600000D01*
X137547828Y-51600000D01*
X137547844Y-51599999D01*
X137607372Y-51593598D01*
X137607379Y-51593596D01*
X137742086Y-51543354D01*
X137742093Y-51543350D01*
X137857187Y-51457190D01*
X137857190Y-51457187D01*
X137943350Y-51342093D01*
X137943354Y-51342086D01*
X137993596Y-51207379D01*
X137993598Y-51207372D01*
X137999999Y-51147844D01*
X138000000Y-51147827D01*
X138000000Y-49850000D01*
X136719064Y-49850000D01*
X136730793Y-49821684D01*
X136760000Y-49674853D01*
X136760000Y-49525147D01*
X136748806Y-49468872D01*
X139079500Y-49468872D01*
X139079500Y-49731127D01*
X139091423Y-49821684D01*
X139113730Y-49991116D01*
X139138745Y-50084472D01*
X139181602Y-50244418D01*
X139181605Y-50244428D01*
X139281953Y-50486690D01*
X139281958Y-50486700D01*
X139413075Y-50713803D01*
X139572718Y-50921851D01*
X139572726Y-50921860D01*
X139758140Y-51107274D01*
X139758148Y-51107281D01*
X139966196Y-51266924D01*
X140193299Y-51398041D01*
X140193309Y-51398046D01*
X140336096Y-51457190D01*
X140435581Y-51498398D01*
X140688884Y-51566270D01*
X140937188Y-51598960D01*
X140945074Y-51599999D01*
X140948880Y-51600500D01*
X140948887Y-51600500D01*
X141211113Y-51600500D01*
X141211120Y-51600500D01*
X141471116Y-51566270D01*
X141724419Y-51498398D01*
X141966697Y-51398043D01*
X142193803Y-51266924D01*
X142401851Y-51107282D01*
X142401855Y-51107277D01*
X142401860Y-51107274D01*
X142587274Y-50921860D01*
X142587277Y-50921855D01*
X142587282Y-50921851D01*
X142746924Y-50713803D01*
X142878043Y-50486697D01*
X142978398Y-50244419D01*
X143046270Y-49991116D01*
X143059094Y-49893713D01*
X148649500Y-49893713D01*
X148649500Y-50106286D01*
X148682753Y-50316239D01*
X148748444Y-50518414D01*
X148844951Y-50707820D01*
X148969890Y-50879786D01*
X149120213Y-51030109D01*
X149292179Y-51155048D01*
X149292181Y-51155049D01*
X149292184Y-51155051D01*
X149481588Y-51251557D01*
X149683757Y-51317246D01*
X149893713Y-51350500D01*
X149893714Y-51350500D01*
X150106286Y-51350500D01*
X150106287Y-51350500D01*
X150316243Y-51317246D01*
X150518412Y-51251557D01*
X150707816Y-51155051D01*
X150794138Y-51092335D01*
X150879786Y-51030109D01*
X150879788Y-51030106D01*
X150879792Y-51030104D01*
X151030104Y-50879792D01*
X151030106Y-50879788D01*
X151030109Y-50879786D01*
X151155048Y-50707820D01*
X151155047Y-50707820D01*
X151155051Y-50707816D01*
X151251557Y-50518412D01*
X151317246Y-50316243D01*
X151350500Y-50106287D01*
X151350500Y-49893713D01*
X151317246Y-49683757D01*
X151251557Y-49481588D01*
X151155051Y-49292184D01*
X151155049Y-49292181D01*
X151155048Y-49292179D01*
X151030109Y-49120213D01*
X150916181Y-49006285D01*
X150882696Y-48944962D01*
X150887680Y-48875270D01*
X150929552Y-48819337D01*
X150960529Y-48802422D01*
X151092086Y-48753354D01*
X151092093Y-48753350D01*
X151207187Y-48667190D01*
X151207190Y-48667187D01*
X151293350Y-48552093D01*
X151293354Y-48552086D01*
X151343596Y-48417379D01*
X151343598Y-48417372D01*
X151349999Y-48357844D01*
X151350000Y-48357827D01*
X151350000Y-47710000D01*
X150433012Y-47710000D01*
X150465925Y-47652993D01*
X150500000Y-47525826D01*
X150500000Y-47394174D01*
X150465925Y-47267007D01*
X150433012Y-47210000D01*
X151350000Y-47210000D01*
X151350000Y-46562172D01*
X151349999Y-46562155D01*
X151343598Y-46502627D01*
X151343596Y-46502620D01*
X151293354Y-46367913D01*
X151293350Y-46367906D01*
X151207190Y-46252812D01*
X151207187Y-46252809D01*
X151092093Y-46166649D01*
X151092086Y-46166645D01*
X150957379Y-46116403D01*
X150957372Y-46116401D01*
X150897844Y-46110000D01*
X150250000Y-46110000D01*
X150250000Y-47026988D01*
X150192993Y-46994075D01*
X150065826Y-46960000D01*
X149934174Y-46960000D01*
X149807007Y-46994075D01*
X149750000Y-47026988D01*
X149750000Y-46110000D01*
X149102155Y-46110000D01*
X149042627Y-46116401D01*
X149042620Y-46116403D01*
X148907913Y-46166645D01*
X148907906Y-46166649D01*
X148792812Y-46252809D01*
X148792809Y-46252812D01*
X148706649Y-46367906D01*
X148706645Y-46367913D01*
X148656403Y-46502620D01*
X148656401Y-46502627D01*
X148650000Y-46562155D01*
X148650000Y-47210000D01*
X149566988Y-47210000D01*
X149534075Y-47267007D01*
X149500000Y-47394174D01*
X149500000Y-47525826D01*
X149534075Y-47652993D01*
X149566988Y-47710000D01*
X148650000Y-47710000D01*
X148650000Y-48357844D01*
X148656401Y-48417372D01*
X148656403Y-48417379D01*
X148706645Y-48552086D01*
X148706649Y-48552093D01*
X148792809Y-48667187D01*
X148792812Y-48667190D01*
X148907906Y-48753350D01*
X148907913Y-48753354D01*
X149039470Y-48802422D01*
X149095404Y-48844293D01*
X149119821Y-48909758D01*
X149104969Y-48978031D01*
X149083819Y-49006285D01*
X148969889Y-49120215D01*
X148844951Y-49292179D01*
X148748444Y-49481585D01*
X148682753Y-49683760D01*
X148649500Y-49893713D01*
X143059094Y-49893713D01*
X143080500Y-49731120D01*
X143080500Y-49468880D01*
X143046270Y-49208884D01*
X142978398Y-48955581D01*
X142978394Y-48955571D01*
X142878046Y-48713309D01*
X142878041Y-48713299D01*
X142746924Y-48486196D01*
X142587281Y-48278148D01*
X142587274Y-48278140D01*
X142401860Y-48092726D01*
X142401851Y-48092718D01*
X142193803Y-47933075D01*
X141966700Y-47801958D01*
X141966690Y-47801953D01*
X141724428Y-47701605D01*
X141724421Y-47701603D01*
X141724419Y-47701602D01*
X141471116Y-47633730D01*
X141413339Y-47626123D01*
X141211127Y-47599500D01*
X141211120Y-47599500D01*
X140948880Y-47599500D01*
X140948872Y-47599500D01*
X140717772Y-47629926D01*
X140688884Y-47633730D01*
X140603364Y-47656645D01*
X140435581Y-47701602D01*
X140435571Y-47701605D01*
X140193309Y-47801953D01*
X140193299Y-47801958D01*
X139966196Y-47933075D01*
X139758148Y-48092718D01*
X139572718Y-48278148D01*
X139413075Y-48486196D01*
X139281958Y-48713299D01*
X139281953Y-48713309D01*
X139181605Y-48955571D01*
X139181602Y-48955581D01*
X139139709Y-49111931D01*
X139113730Y-49208885D01*
X139079500Y-49468872D01*
X136748806Y-49468872D01*
X136730793Y-49378316D01*
X136719064Y-49350000D01*
X138000000Y-49350000D01*
X138000000Y-48052172D01*
X137999999Y-48052155D01*
X137993598Y-47992627D01*
X137993596Y-47992620D01*
X137943354Y-47857913D01*
X137943350Y-47857906D01*
X137857190Y-47742812D01*
X137857187Y-47742809D01*
X137742093Y-47656649D01*
X137742086Y-47656645D01*
X137607379Y-47606403D01*
X137607372Y-47606401D01*
X137547844Y-47600000D01*
X136250000Y-47600000D01*
X136250000Y-48880935D01*
X136221684Y-48869207D01*
X136074853Y-48840000D01*
X135925147Y-48840000D01*
X135778316Y-48869207D01*
X135750000Y-48880935D01*
X135750000Y-47600000D01*
X134452155Y-47600000D01*
X134392627Y-47606401D01*
X134392620Y-47606403D01*
X134257913Y-47656645D01*
X134257906Y-47656649D01*
X134142812Y-47742809D01*
X134142809Y-47742812D01*
X134056649Y-47857906D01*
X134056645Y-47857913D01*
X134006403Y-47992620D01*
X134006401Y-47992627D01*
X134000000Y-48052155D01*
X119400500Y-48052155D01*
X119400500Y-46206961D01*
X119401280Y-46193078D01*
X119409919Y-46116403D01*
X119413966Y-46080479D01*
X119420142Y-46053418D01*
X119455256Y-45953068D01*
X119467299Y-45928062D01*
X119523863Y-45838040D01*
X119541168Y-45816341D01*
X119616341Y-45741168D01*
X119638040Y-45723863D01*
X119728062Y-45667299D01*
X119753068Y-45655256D01*
X119853418Y-45620142D01*
X119880481Y-45613966D01*
X119977769Y-45603004D01*
X119993078Y-45601280D01*
X120006961Y-45600500D01*
X120057583Y-45600500D01*
X151242417Y-45600500D01*
X151293039Y-45600500D01*
X151306922Y-45601279D01*
G37*
%TD.AperFunction*%
%TD*%
M02*
