%TF.GenerationSoftware,KiCad,Pcbnew,9.0.1*%
%TF.CreationDate,2025-05-12T10:57:46-03:00*%
%TF.ProjectId,Project_1_LED_Torch,50726f6a-6563-4745-9f31-5f4c45445f54,1*%
%TF.SameCoordinates,Original*%
%TF.FileFunction,Legend,Top*%
%TF.FilePolarity,Positive*%
%FSLAX46Y46*%
G04 Gerber Fmt 4.6, Leading zero omitted, Abs format (unit mm)*
G04 Created by KiCad (PCBNEW 9.0.1) date 2025-05-12 10:57:46*
%MOMM*%
%LPD*%
G01*
G04 APERTURE LIST*
%ADD10C,0.100000*%
%ADD11C,0.150000*%
%ADD12C,0.120000*%
G04 APERTURE END LIST*
D10*
X130403884Y-109891466D02*
X131165789Y-109891466D01*
X130403884Y-117591466D02*
X131165789Y-117591466D01*
X130784836Y-117972419D02*
X130784836Y-117210514D01*
D11*
X168124285Y-105976009D02*
X168267142Y-106023628D01*
X168267142Y-106023628D02*
X168314761Y-106071247D01*
X168314761Y-106071247D02*
X168362380Y-106166485D01*
X168362380Y-106166485D02*
X168362380Y-106309342D01*
X168362380Y-106309342D02*
X168314761Y-106404580D01*
X168314761Y-106404580D02*
X168267142Y-106452200D01*
X168267142Y-106452200D02*
X168171904Y-106499819D01*
X168171904Y-106499819D02*
X167790952Y-106499819D01*
X167790952Y-106499819D02*
X167790952Y-105499819D01*
X167790952Y-105499819D02*
X168124285Y-105499819D01*
X168124285Y-105499819D02*
X168219523Y-105547438D01*
X168219523Y-105547438D02*
X168267142Y-105595057D01*
X168267142Y-105595057D02*
X168314761Y-105690295D01*
X168314761Y-105690295D02*
X168314761Y-105785533D01*
X168314761Y-105785533D02*
X168267142Y-105880771D01*
X168267142Y-105880771D02*
X168219523Y-105928390D01*
X168219523Y-105928390D02*
X168124285Y-105976009D01*
X168124285Y-105976009D02*
X167790952Y-105976009D01*
X168648095Y-105499819D02*
X169219523Y-105499819D01*
X168933809Y-106499819D02*
X168933809Y-105499819D01*
X170076666Y-106499819D02*
X169505238Y-106499819D01*
X169790952Y-106499819D02*
X169790952Y-105499819D01*
X169790952Y-105499819D02*
X169695714Y-105642676D01*
X169695714Y-105642676D02*
X169600476Y-105737914D01*
X169600476Y-105737914D02*
X169505238Y-105785533D01*
X165957618Y-122994009D02*
X166100475Y-123041628D01*
X166100475Y-123041628D02*
X166148094Y-123089247D01*
X166148094Y-123089247D02*
X166195713Y-123184485D01*
X166195713Y-123184485D02*
X166195713Y-123327342D01*
X166195713Y-123327342D02*
X166148094Y-123422580D01*
X166148094Y-123422580D02*
X166100475Y-123470200D01*
X166100475Y-123470200D02*
X166005237Y-123517819D01*
X166005237Y-123517819D02*
X165624285Y-123517819D01*
X165624285Y-123517819D02*
X165624285Y-122517819D01*
X165624285Y-122517819D02*
X165957618Y-122517819D01*
X165957618Y-122517819D02*
X166052856Y-122565438D01*
X166052856Y-122565438D02*
X166100475Y-122613057D01*
X166100475Y-122613057D02*
X166148094Y-122708295D01*
X166148094Y-122708295D02*
X166148094Y-122803533D01*
X166148094Y-122803533D02*
X166100475Y-122898771D01*
X166100475Y-122898771D02*
X166052856Y-122946390D01*
X166052856Y-122946390D02*
X165957618Y-122994009D01*
X165957618Y-122994009D02*
X165624285Y-122994009D01*
X167052856Y-123517819D02*
X167052856Y-122994009D01*
X167052856Y-122994009D02*
X167005237Y-122898771D01*
X167005237Y-122898771D02*
X166909999Y-122851152D01*
X166909999Y-122851152D02*
X166719523Y-122851152D01*
X166719523Y-122851152D02*
X166624285Y-122898771D01*
X167052856Y-123470200D02*
X166957618Y-123517819D01*
X166957618Y-123517819D02*
X166719523Y-123517819D01*
X166719523Y-123517819D02*
X166624285Y-123470200D01*
X166624285Y-123470200D02*
X166576666Y-123374961D01*
X166576666Y-123374961D02*
X166576666Y-123279723D01*
X166576666Y-123279723D02*
X166624285Y-123184485D01*
X166624285Y-123184485D02*
X166719523Y-123136866D01*
X166719523Y-123136866D02*
X166957618Y-123136866D01*
X166957618Y-123136866D02*
X167052856Y-123089247D01*
X167386190Y-122851152D02*
X167767142Y-122851152D01*
X167529047Y-122517819D02*
X167529047Y-123374961D01*
X167529047Y-123374961D02*
X167576666Y-123470200D01*
X167576666Y-123470200D02*
X167671904Y-123517819D01*
X167671904Y-123517819D02*
X167767142Y-123517819D01*
X168814762Y-122613057D02*
X168862381Y-122565438D01*
X168862381Y-122565438D02*
X168957619Y-122517819D01*
X168957619Y-122517819D02*
X169195714Y-122517819D01*
X169195714Y-122517819D02*
X169290952Y-122565438D01*
X169290952Y-122565438D02*
X169338571Y-122613057D01*
X169338571Y-122613057D02*
X169386190Y-122708295D01*
X169386190Y-122708295D02*
X169386190Y-122803533D01*
X169386190Y-122803533D02*
X169338571Y-122946390D01*
X169338571Y-122946390D02*
X168767143Y-123517819D01*
X168767143Y-123517819D02*
X169386190Y-123517819D01*
X170005238Y-122517819D02*
X170100476Y-122517819D01*
X170100476Y-122517819D02*
X170195714Y-122565438D01*
X170195714Y-122565438D02*
X170243333Y-122613057D01*
X170243333Y-122613057D02*
X170290952Y-122708295D01*
X170290952Y-122708295D02*
X170338571Y-122898771D01*
X170338571Y-122898771D02*
X170338571Y-123136866D01*
X170338571Y-123136866D02*
X170290952Y-123327342D01*
X170290952Y-123327342D02*
X170243333Y-123422580D01*
X170243333Y-123422580D02*
X170195714Y-123470200D01*
X170195714Y-123470200D02*
X170100476Y-123517819D01*
X170100476Y-123517819D02*
X170005238Y-123517819D01*
X170005238Y-123517819D02*
X169910000Y-123470200D01*
X169910000Y-123470200D02*
X169862381Y-123422580D01*
X169862381Y-123422580D02*
X169814762Y-123327342D01*
X169814762Y-123327342D02*
X169767143Y-123136866D01*
X169767143Y-123136866D02*
X169767143Y-122898771D01*
X169767143Y-122898771D02*
X169814762Y-122708295D01*
X169814762Y-122708295D02*
X169862381Y-122613057D01*
X169862381Y-122613057D02*
X169910000Y-122565438D01*
X169910000Y-122565438D02*
X170005238Y-122517819D01*
X170671905Y-122517819D02*
X171290952Y-122517819D01*
X171290952Y-122517819D02*
X170957619Y-122898771D01*
X170957619Y-122898771D02*
X171100476Y-122898771D01*
X171100476Y-122898771D02*
X171195714Y-122946390D01*
X171195714Y-122946390D02*
X171243333Y-122994009D01*
X171243333Y-122994009D02*
X171290952Y-123089247D01*
X171290952Y-123089247D02*
X171290952Y-123327342D01*
X171290952Y-123327342D02*
X171243333Y-123422580D01*
X171243333Y-123422580D02*
X171195714Y-123470200D01*
X171195714Y-123470200D02*
X171100476Y-123517819D01*
X171100476Y-123517819D02*
X170814762Y-123517819D01*
X170814762Y-123517819D02*
X170719524Y-123470200D01*
X170719524Y-123470200D02*
X170671905Y-123422580D01*
X171671905Y-122613057D02*
X171719524Y-122565438D01*
X171719524Y-122565438D02*
X171814762Y-122517819D01*
X171814762Y-122517819D02*
X172052857Y-122517819D01*
X172052857Y-122517819D02*
X172148095Y-122565438D01*
X172148095Y-122565438D02*
X172195714Y-122613057D01*
X172195714Y-122613057D02*
X172243333Y-122708295D01*
X172243333Y-122708295D02*
X172243333Y-122803533D01*
X172243333Y-122803533D02*
X172195714Y-122946390D01*
X172195714Y-122946390D02*
X171624286Y-123517819D01*
X171624286Y-123517819D02*
X172243333Y-123517819D01*
X132461905Y-110154819D02*
X132461905Y-109154819D01*
X132461905Y-109154819D02*
X132700000Y-109154819D01*
X132700000Y-109154819D02*
X132842857Y-109202438D01*
X132842857Y-109202438D02*
X132938095Y-109297676D01*
X132938095Y-109297676D02*
X132985714Y-109392914D01*
X132985714Y-109392914D02*
X133033333Y-109583390D01*
X133033333Y-109583390D02*
X133033333Y-109726247D01*
X133033333Y-109726247D02*
X132985714Y-109916723D01*
X132985714Y-109916723D02*
X132938095Y-110011961D01*
X132938095Y-110011961D02*
X132842857Y-110107200D01*
X132842857Y-110107200D02*
X132700000Y-110154819D01*
X132700000Y-110154819D02*
X132461905Y-110154819D01*
X133985714Y-110154819D02*
X133414286Y-110154819D01*
X133700000Y-110154819D02*
X133700000Y-109154819D01*
X133700000Y-109154819D02*
X133604762Y-109297676D01*
X133604762Y-109297676D02*
X133509524Y-109392914D01*
X133509524Y-109392914D02*
X133414286Y-109440533D01*
X145986667Y-109772200D02*
X146129524Y-109819819D01*
X146129524Y-109819819D02*
X146367619Y-109819819D01*
X146367619Y-109819819D02*
X146462857Y-109772200D01*
X146462857Y-109772200D02*
X146510476Y-109724580D01*
X146510476Y-109724580D02*
X146558095Y-109629342D01*
X146558095Y-109629342D02*
X146558095Y-109534104D01*
X146558095Y-109534104D02*
X146510476Y-109438866D01*
X146510476Y-109438866D02*
X146462857Y-109391247D01*
X146462857Y-109391247D02*
X146367619Y-109343628D01*
X146367619Y-109343628D02*
X146177143Y-109296009D01*
X146177143Y-109296009D02*
X146081905Y-109248390D01*
X146081905Y-109248390D02*
X146034286Y-109200771D01*
X146034286Y-109200771D02*
X145986667Y-109105533D01*
X145986667Y-109105533D02*
X145986667Y-109010295D01*
X145986667Y-109010295D02*
X146034286Y-108915057D01*
X146034286Y-108915057D02*
X146081905Y-108867438D01*
X146081905Y-108867438D02*
X146177143Y-108819819D01*
X146177143Y-108819819D02*
X146415238Y-108819819D01*
X146415238Y-108819819D02*
X146558095Y-108867438D01*
X146891429Y-108819819D02*
X147129524Y-109819819D01*
X147129524Y-109819819D02*
X147320000Y-109105533D01*
X147320000Y-109105533D02*
X147510476Y-109819819D01*
X147510476Y-109819819D02*
X147748572Y-108819819D01*
X148653333Y-109819819D02*
X148081905Y-109819819D01*
X148367619Y-109819819D02*
X148367619Y-108819819D01*
X148367619Y-108819819D02*
X148272381Y-108962676D01*
X148272381Y-108962676D02*
X148177143Y-109057914D01*
X148177143Y-109057914D02*
X148081905Y-109105533D01*
X138133333Y-115954819D02*
X137800000Y-115478628D01*
X137561905Y-115954819D02*
X137561905Y-114954819D01*
X137561905Y-114954819D02*
X137942857Y-114954819D01*
X137942857Y-114954819D02*
X138038095Y-115002438D01*
X138038095Y-115002438D02*
X138085714Y-115050057D01*
X138085714Y-115050057D02*
X138133333Y-115145295D01*
X138133333Y-115145295D02*
X138133333Y-115288152D01*
X138133333Y-115288152D02*
X138085714Y-115383390D01*
X138085714Y-115383390D02*
X138038095Y-115431009D01*
X138038095Y-115431009D02*
X137942857Y-115478628D01*
X137942857Y-115478628D02*
X137561905Y-115478628D01*
X139085714Y-115954819D02*
X138514286Y-115954819D01*
X138800000Y-115954819D02*
X138800000Y-114954819D01*
X138800000Y-114954819D02*
X138704762Y-115097676D01*
X138704762Y-115097676D02*
X138609524Y-115192914D01*
X138609524Y-115192914D02*
X138514286Y-115240533D01*
D12*
%TO.C,BT1*%
X158218000Y-110055000D02*
G75*
G02*
X161064629Y-105553211I10692020J-3610012D01*
G01*
X161064629Y-121776789D02*
G75*
G02*
X158218000Y-117275000I7845371J8111789D01*
G01*
X176755371Y-105553211D02*
G75*
G02*
X179602000Y-110055000I-7845366J-8111785D01*
G01*
X179602000Y-117275000D02*
G75*
G02*
X176755372Y-121776790I-10692020J3610010D01*
G01*
X154600000Y-110055000D02*
X158218000Y-110055000D01*
X154600000Y-111765000D02*
X154600000Y-110055000D01*
X154600000Y-115565000D02*
X154600000Y-117275000D01*
X158218000Y-117275000D02*
X154600000Y-117275000D01*
X161062700Y-105555000D02*
X165050000Y-105555000D01*
X167250000Y-107755000D02*
X165050000Y-105555000D01*
X167250000Y-107755000D02*
X170570000Y-107755000D01*
X170570000Y-107755000D02*
X172770000Y-105555000D01*
X172770000Y-105555000D02*
X176757300Y-105555000D01*
X176757300Y-121775000D02*
X161062700Y-121775000D01*
X179602000Y-110055000D02*
X183220000Y-110055000D01*
X183220000Y-111765000D02*
X183220000Y-110055000D01*
X183220000Y-115565000D02*
X183220000Y-117275000D01*
X183220000Y-117275000D02*
X179602000Y-117275000D01*
%TO.C,D1*%
X133310000Y-113660000D02*
G75*
G02*
X128310000Y-113660000I-2500000J0D01*
G01*
X128310000Y-113660000D02*
G75*
G02*
X133310000Y-113660000I2500000J0D01*
G01*
X130809952Y-116650000D02*
G75*
G02*
X129265170Y-111100000I48J2990000D01*
G01*
X132354830Y-111100000D02*
G75*
G02*
X130810048Y-116650000I-1544830J-2560000D01*
G01*
X132355000Y-111100000D02*
X129265000Y-111100000D01*
%TO.C,SW1*%
X144200000Y-114815000D02*
X144200000Y-112615000D01*
X144670000Y-116785000D02*
X149870000Y-116785000D01*
X145270000Y-110545000D02*
X149670000Y-110545000D01*
X150440000Y-112615000D02*
X150440000Y-114815000D01*
X148734214Y-113665000D02*
G75*
G02*
X145905786Y-113665000I-1414214J0D01*
G01*
X145905786Y-113665000D02*
G75*
G02*
X148734214Y-113665000I1414214J0D01*
G01*
%TO.C,R1*%
X140335000Y-116535000D02*
X140335000Y-115585000D01*
X139415000Y-115585000D02*
X141255000Y-115585000D01*
X141255000Y-115585000D02*
X141255000Y-111745000D01*
X139415000Y-111745000D02*
X139415000Y-115585000D01*
X141255000Y-111745000D02*
X139415000Y-111745000D01*
X140335000Y-110795000D02*
X140335000Y-111745000D01*
%TD*%
M02*
